<svg width="620" height="635" viewBox="0 0 620 635" fill="none" xmlns="http://www.w3.org/2000/svg">
<mask id="mask0_26_19" style="mask-type:alpha" maskUnits="userSpaceOnUse" x="0" y="0" width="620" height="635">
<rect x="0.667969" y="0.135254" width="618.945" height="634.478" fill="#29293A"/>
</mask>
<g mask="url(#mask0_26_19)">
<path fill-rule="evenodd" clip-rule="evenodd" d="M213.918 -14.3079C213.918 19.4775 185.146 46.8532 149.637 46.8532C114.127 46.8532 85.3548 19.4775 85.3548 -14.3079C85.3548 -48.0934 114.127 -75.4691 149.637 -75.4691C185.146 -75.4691 213.918 -48.0934 213.918 -14.3079ZM122.442 131.537C142.928 131.537 159.527 115.744 159.527 96.2521C159.527 76.7605 142.928 60.9668 122.442 60.9668C101.956 60.9668 85.3561 76.7605 85.3561 96.2521C85.3561 115.744 101.956 131.537 122.442 131.537ZM365.558 263.289L435.609 263.28C474.305 263.275 505.656 236.925 505.651 204.464C505.647 172.004 474.288 145.663 435.592 145.668L365.541 145.677L365.55 204.483L365.558 263.289ZM365.557 263.287L225.455 263.305L225.456 263.306L155.405 263.315C116.709 263.32 85.351 237.003 85.3463 204.518C85.3417 172.034 116.692 145.708 155.388 145.703L225.439 145.694L225.439 145.693L365.54 145.675L365.557 263.287ZM297.982 46.8532C333.491 46.8532 362.263 19.4775 362.263 -14.3079C362.263 -48.0934 333.491 -75.4691 297.982 -75.4691C262.472 -75.4691 233.7 -48.0934 233.7 -14.3079C233.7 19.4775 262.472 46.8532 297.982 46.8532ZM505.66 -14.3079C505.66 19.4775 476.888 46.8532 441.378 46.8532C405.869 46.8532 377.097 19.4775 377.097 -14.3079C377.097 -48.0934 405.869 -75.4691 441.378 -75.4691C476.888 -75.4691 505.66 -48.0934 505.66 -14.3079ZM184.251 493.8C238.88 493.8 283.146 449.578 283.146 395.002C283.146 340.425 238.88 296.203 184.251 296.203C129.621 296.203 85.3556 340.425 85.3556 395.002C85.3556 449.578 129.621 493.8 184.251 493.8ZM283.146 611.418C283.146 665.995 238.88 710.217 184.251 710.217C129.621 710.217 85.3556 665.995 85.3556 611.418C85.3556 556.842 129.621 512.619 184.251 512.619C238.88 512.619 283.146 556.842 283.146 611.418ZM406.764 710.217C461.394 710.217 505.659 665.995 505.659 611.418C505.659 556.842 461.394 512.619 406.764 512.619C352.134 512.619 307.869 556.842 307.869 611.418C307.869 665.995 352.134 710.217 406.764 710.217Z" fill="url(#paint0_linear_26_19)"/>
</g>
<path d="M505.659 395.002C505.659 449.578 461.394 493.801 406.764 493.801C352.134 493.801 307.869 449.578 307.869 395.002C307.869 340.425 352.134 296.203 406.764 296.203C461.394 296.203 505.659 340.425 505.659 395.002Z" fill="url(#paint1_linear_26_19)"/>
<defs>
<linearGradient id="paint0_linear_26_19" x1="505.659" y1="611.418" x2="7.97486" y2="98.7357" gradientUnits="userSpaceOnUse">
<stop stop-color="#1C1C28"/>
<stop offset="1" stop-color="#1C1C28" stop-opacity="0"/>
</linearGradient>
<linearGradient id="paint1_linear_26_19" x1="613.935" y1="573.627" x2="307.869" y2="395.002" gradientUnits="userSpaceOnUse">
<stop stop-color="#00DEFC"/>
<stop offset="1" stop-color="#BAFFD1"/>
</linearGradient>
</defs>
</svg>
