<svg width="42" height="61" viewBox="0 0 42 61" fill="none" xmlns="http://www.w3.org/2000/svg">
    <path d="M21.9471 13.0121L24.535 18.1774C24.5952 18.299 24.6846 18.4042 24.7955 18.4838C24.9064 18.5635 25.0354 18.6152 25.1712 18.6344L30.9537 19.4608C31.1096 19.4834 31.2561 19.5485 31.3766 19.6487C31.497 19.749 31.5867 19.8804 31.6354 20.0282C31.6842 20.1759 31.6901 20.3342 31.6525 20.4851C31.615 20.636 31.5354 20.7736 31.4227 20.8823L27.2389 24.913C27.1406 25.0068 27.067 25.123 27.0247 25.2513C26.9825 25.3796 26.9727 25.5161 26.9963 25.649L27.9829 31.3271C28.0094 31.4803 27.9919 31.6378 27.9325 31.7817C27.873 31.9257 27.7739 32.0504 27.6464 32.1418C27.5189 32.2333 27.368 32.2878 27.2107 32.2992C27.0535 32.3106 26.8961 32.2786 26.7563 32.2066L21.5831 29.5256C21.4617 29.4628 21.3267 29.4299 21.1895 29.4299C21.0524 29.4299 20.9174 29.4628 20.796 29.5256L15.6228 32.2066C15.483 32.2786 15.3256 32.3106 15.1684 32.2992C15.0111 32.2878 14.8602 32.2333 14.7327 32.1418C14.6052 32.0504 14.5061 31.9257 14.4466 31.7817C14.3872 31.6378 14.3697 31.4803 14.3962 31.3271L15.3828 25.649C15.4064 25.5161 15.3966 25.3796 15.3543 25.2513C15.3121 25.123 15.2385 25.0068 15.1402 24.913L10.9564 20.8902C10.8437 20.7815 10.7641 20.644 10.7266 20.4931C10.689 20.3421 10.6949 20.1839 10.7437 20.0361C10.7924 19.8884 10.8821 19.7569 11.0025 19.6567C11.123 19.5565 11.2695 19.4914 11.4254 19.4687L17.2079 18.6424C17.3437 18.6232 17.4727 18.5715 17.5836 18.4918C17.6945 18.4121 17.7839 18.3069 17.8441 18.1854L20.432 13.0201C20.5008 12.8801 20.608 12.762 20.7414 12.679C20.8749 12.596 21.0293 12.5516 21.187 12.5508C21.3448 12.55 21.4997 12.5928 21.634 12.6743C21.7684 12.7559 21.8768 12.8729 21.9471 13.0121Z" fill="white"/>
    <path fill-rule="evenodd" clip-rule="evenodd" d="M40.1999 43.1016C41.0642 42.2137 41.5513 41.0095 41.5546 39.7526V4.91314C41.5546 3.6527 41.0681 2.44389 40.2023 1.55262C39.3364 0.661358 38.162 0.160645 36.9375 0.160645H5.43445C4.20993 0.160645 3.03556 0.661358 2.16969 1.55262C1.30383 2.44389 0.817383 3.6527 0.817383 4.91314V39.7648C0.820653 41.0216 1.30778 42.2259 2.17204 43.1138L17.9191 59.2923C18.7852 60.1814 19.9584 60.6806 21.1815 60.6806C22.4047 60.6806 23.5779 60.1814 24.444 59.2923L40.1999 43.1016ZM21.1815 55.5662L27.836 48.7282L36.6178 39.7039V5.09741H5.75415V39.7161L14.5352 48.7396L21.1815 55.5662Z" fill="#BAFFD1"/>
</svg>
