<svg width="34" height="50" viewBox="0 0 34 50" fill="none" xmlns="http://www.w3.org/2000/svg">
    <path d="M17.616 10.4158L19.7129 14.601C19.7617 14.6994 19.8341 14.7847 19.924 14.8492C20.0138 14.9138 20.1183 14.9557 20.2284 14.9713L24.9136 15.6408C25.04 15.6591 25.1587 15.7119 25.2563 15.7931C25.3539 15.8743 25.4265 15.9808 25.466 16.1005C25.5055 16.2202 25.5103 16.3485 25.4799 16.4707C25.4494 16.593 25.3849 16.7045 25.2937 16.7926L21.9037 20.0584C21.8241 20.1345 21.7645 20.2286 21.7302 20.3325C21.696 20.4365 21.688 20.5471 21.7071 20.6548L22.5066 25.2554C22.528 25.3796 22.5139 25.5072 22.4657 25.6238C22.4175 25.7404 22.3373 25.8415 22.2339 25.9156C22.1306 25.9897 22.0083 26.0338 21.8809 26.0431C21.7535 26.0524 21.626 26.0264 21.5127 25.968L17.3212 23.7958C17.2228 23.7449 17.1134 23.7183 17.0023 23.7183C16.8912 23.7183 16.7817 23.7449 16.6834 23.7958L12.4918 25.968C12.3786 26.0264 12.251 26.0524 12.1236 26.0431C11.9962 26.0338 11.8739 25.9897 11.7706 25.9156C11.6673 25.8415 11.587 25.7404 11.5388 25.6238C11.4907 25.5072 11.4765 25.3796 11.498 25.2554L12.2974 20.6548C12.3165 20.5471 12.3086 20.4365 12.2743 20.3325C12.24 20.2286 12.1805 20.1345 12.1008 20.0584L8.71086 16.799C8.61959 16.7109 8.55511 16.5995 8.52466 16.4772C8.49421 16.3549 8.499 16.2267 8.53851 16.107C8.57802 15.9872 8.65067 15.8808 8.74827 15.7995C8.84587 15.7183 8.96454 15.6656 9.09092 15.6472L13.7761 14.9777C13.8862 14.9621 13.9907 14.9202 14.0805 14.8557C14.1704 14.7911 14.2429 14.7059 14.2916 14.6074L16.3885 10.4223C16.4442 10.3089 16.531 10.2131 16.6392 10.1459C16.7473 10.0787 16.8724 10.0427 17.0002 10.042C17.1281 10.0413 17.2535 10.076 17.3624 10.1421C17.4712 10.2082 17.5591 10.303 17.616 10.4158Z" fill="white"/>
    <path fill-rule="evenodd" clip-rule="evenodd" d="M32.4057 34.7957C33.1059 34.0763 33.5006 33.1006 33.5033 32.0822V3.85362C33.5033 2.83236 33.1091 1.85292 32.4076 1.13078C31.706 0.408631 30.7545 0.00292969 29.7623 0.00292969H4.23706C3.24489 0.00292969 2.29337 0.408631 1.5918 1.13078C0.890234 1.85292 0.496094 2.83236 0.496094 3.85362V32.0921C0.498743 33.1104 0.893439 34.0862 1.5937 34.8056L14.3527 47.9142C15.0545 48.6345 16.0051 49.0391 16.9961 49.0391C17.9871 49.0391 18.9377 48.6345 19.6395 47.9142L32.4057 34.7957ZM16.996 44.8951L22.3878 39.3547L29.5033 32.0428V4.00293H4.49609V32.0526L11.6109 39.3639L16.996 44.8951Z" fill="url(#paint0_linear_834_61)"/>
    <defs>
        <linearGradient id="paint0_linear_834_61" x1="36.4313" y1="23.6755" x2="0.914851" y2="25.0511" gradientUnits="userSpaceOnUse">
            <stop stop-color="#00DEFC"/>
            <stop offset="1" stop-color="#BADAFF"/>
        </linearGradient>
    </defs>
</svg>
