<svg width="54" height="68" viewBox="0 0 54 68" fill="none" xmlns="http://www.w3.org/2000/svg">
    <g clip-path="url(#clip0_834_70)">
        <path d="M28.1209 18.3555L30.2178 22.5407C30.2666 22.6391 30.339 22.7244 30.4289 22.7889C30.5187 22.8535 30.6232 22.8954 30.7333 22.9109L35.4185 23.5805C35.5449 23.5988 35.6635 23.6516 35.7611 23.7328C35.8587 23.814 35.9314 23.9205 35.9709 24.0402C36.0104 24.1599 36.0152 24.2882 35.9848 24.4104C35.9543 24.5327 35.8898 24.6442 35.7985 24.7323L32.4086 27.9981C32.3289 28.0742 32.2694 28.1683 32.2351 28.2722C32.2008 28.3762 32.1929 28.4868 32.212 28.5945L33.0115 33.1951C33.0329 33.3193 33.0187 33.4469 32.9706 33.5635C32.9224 33.6801 32.8421 33.7812 32.7388 33.8553C32.6355 33.9294 32.5132 33.9735 32.3858 33.9828C32.2584 33.9921 32.1308 33.9661 32.0176 33.9077L27.826 31.7355C27.7277 31.6846 27.6183 31.658 27.5071 31.658C27.396 31.658 27.2866 31.6846 27.1882 31.7355L22.9967 33.9077C22.8834 33.9661 22.7559 33.9921 22.6285 33.9828C22.5011 33.9735 22.3788 33.9294 22.2755 33.8553C22.1722 33.7812 22.0919 33.6801 22.0437 33.5635C21.9955 33.4469 21.9814 33.3193 22.0028 33.1951L22.8023 28.5945C22.8214 28.4868 22.8135 28.3762 22.7792 28.2722C22.7449 28.1683 22.6854 28.0742 22.6057 27.9981L19.2157 24.7387C19.1245 24.6506 19.06 24.5392 19.0295 24.4169C18.9991 24.2946 19.0039 24.1664 19.0434 24.0467C19.0829 23.9269 19.1555 23.8205 19.2532 23.7392C19.3508 23.658 19.4694 23.6053 19.5958 23.5869L24.281 22.9174C24.3911 22.9018 24.4956 22.8599 24.5854 22.7954C24.6753 22.7308 24.7477 22.6456 24.7965 22.5471L26.8934 18.362C26.9491 18.2486 27.0359 18.1528 27.1441 18.0856C27.2522 18.0184 27.3773 17.9824 27.5051 17.9817C27.633 17.981 27.7584 18.0157 27.8673 18.0818C27.9761 18.1478 28.064 18.2427 28.1209 18.3555Z" fill="white"/>
    </g>
    <g clip-path="url(#clip1_834_70)">
        <path d="M50.7526 22.6479L51.616 24.4789C51.6361 24.522 51.666 24.5593 51.703 24.5875C51.74 24.6158 51.783 24.6341 51.8283 24.6409L53.7575 24.9338C53.8095 24.9419 53.8584 24.9649 53.8986 25.0005C53.9388 25.036 53.9687 25.0826 53.985 25.135C54.0012 25.1874 54.0032 25.2435 53.9907 25.297C53.9781 25.3504 53.9516 25.3992 53.914 25.4377L52.5181 26.8666C52.4853 26.8998 52.4608 26.941 52.4467 26.9865C52.4326 27.032 52.4293 27.0804 52.4372 27.1275L52.7664 29.1403C52.7752 29.1946 52.7694 29.2504 52.7495 29.3014C52.7297 29.3524 52.6967 29.3967 52.6541 29.4291C52.6116 29.4615 52.5612 29.4808 52.5088 29.4849C52.4563 29.4889 52.4038 29.4775 52.3571 29.452L50.6312 28.5017C50.5907 28.4794 50.5456 28.4678 50.4999 28.4678C50.4542 28.4678 50.4091 28.4794 50.3686 28.5017L48.6426 29.452C48.596 29.4775 48.5435 29.4889 48.491 29.4849C48.4386 29.4808 48.3882 29.4615 48.3457 29.4291C48.3031 29.3967 48.2701 29.3524 48.2503 29.3014C48.2304 29.2504 48.2246 29.1946 48.2334 29.1403L48.5626 27.1275C48.5705 27.0804 48.5672 27.032 48.5531 26.9865C48.539 26.941 48.5145 26.8998 48.4817 26.8666L47.0858 25.4406C47.0482 25.402 47.0217 25.3533 47.0091 25.2998C46.9966 25.2463 46.9986 25.1902 47.0148 25.1378C47.0311 25.0854 47.061 25.0388 47.1012 25.0033C47.1414 24.9678 47.1902 24.9447 47.2423 24.9367L49.1715 24.6438C49.2168 24.6369 49.2598 24.6186 49.2968 24.5904C49.3338 24.5621 49.3637 24.5248 49.3837 24.4817L50.2472 22.6507C50.2701 22.6011 50.3059 22.5592 50.3504 22.5298C50.3949 22.5004 50.4464 22.4847 50.4991 22.4844C50.5517 22.4841 50.6034 22.4993 50.6482 22.5282C50.693 22.5571 50.7292 22.5986 50.7526 22.6479Z" fill="white"/>
    </g>
    <g clip-path="url(#clip2_834_70)">
        <path d="M3.75263 22.6479L4.61605 24.4789C4.63612 24.522 4.66596 24.5593 4.70296 24.5875C4.73996 24.6158 4.78299 24.6341 4.8283 24.6409L6.75751 24.9338C6.80955 24.9419 6.85842 24.9649 6.8986 25.0005C6.93879 25.036 6.96871 25.0826 6.98498 25.135C7.00124 25.1874 7.00322 25.2435 6.99068 25.297C6.97814 25.3504 6.95158 25.3992 6.914 25.4377L5.51814 26.8666C5.48534 26.8998 5.46081 26.941 5.4467 26.9865C5.43259 27.032 5.42933 27.0804 5.4372 27.1275L5.76638 29.1403C5.77521 29.1946 5.76938 29.2504 5.74954 29.3014C5.72971 29.3524 5.69666 29.3967 5.65411 29.4291C5.61157 29.4615 5.56122 29.4808 5.50875 29.4849C5.45628 29.4889 5.40377 29.4775 5.35715 29.452L3.63121 28.5017C3.59071 28.4794 3.54565 28.4678 3.4999 28.4678C3.45415 28.4678 3.40909 28.4794 3.36859 28.5017L1.64264 29.452C1.59602 29.4775 1.54351 29.4889 1.49104 29.4849C1.43857 29.4808 1.38823 29.4615 1.34569 29.4291C1.30314 29.3967 1.27009 29.3524 1.25025 29.3014C1.23042 29.2504 1.22459 29.1946 1.23342 29.1403L1.5626 27.1275C1.57046 27.0804 1.5672 27.032 1.55309 26.9865C1.53898 26.941 1.51446 26.8998 1.48165 26.8666L0.0857907 25.4406C0.0482109 25.402 0.0216583 25.3533 0.00911923 25.2998C-0.00341983 25.2463 -0.00144523 25.1902 0.0148228 25.1378C0.0310908 25.0854 0.0610054 25.0388 0.101194 25.0033C0.141383 24.9678 0.190246 24.9447 0.242285 24.9367L2.17149 24.6438C2.2168 24.6369 2.25984 24.6186 2.29684 24.5904C2.33383 24.5621 2.36367 24.5248 2.38375 24.4817L3.24717 22.6507C3.2701 22.6011 3.30586 22.5592 3.35039 22.5298C3.39491 22.5004 3.44642 22.4847 3.49906 22.4844C3.5517 22.4841 3.60336 22.4993 3.64819 22.5282C3.69301 22.5571 3.72919 22.5986 3.75263 22.6479Z" fill="white"/>
    </g>
    <path fill-rule="evenodd" clip-rule="evenodd" d="M21.5156 0.196045C20.4111 0.196045 19.5156 1.09148 19.5156 2.19604C19.5156 3.30061 20.4111 4.19604 21.5156 4.19604H32.0387C33.1433 4.19604 34.0387 3.30061 34.0387 2.19604C34.0387 1.09148 33.1433 0.196045 32.0387 0.196045H21.5156ZM12.0976 42.7455L24.8566 55.8541C25.5584 56.5745 26.509 56.979 27.5 56.979C28.491 56.979 29.4416 56.5745 30.1434 55.8541L42.9096 42.7356C43.6098 42.0163 44.0045 41.0405 44.0072 40.0222V11.7936C44.0072 10.7723 43.6131 9.79286 42.9115 9.07072C42.2099 8.34857 41.2584 7.94287 40.2662 7.94287H14.741C13.7488 7.94287 12.7973 8.34857 12.0957 9.07072C11.3941 9.79286 11 10.7723 11 11.7936V40.032C11.0026 41.0504 11.3973 42.0261 12.0976 42.7455ZM40.0072 39.9827L32.8918 47.2946L27.5 52.8351L22.1155 47.3045L15 39.9926V11.9429H40.0072V39.9827ZM12.8402 52.3077C13.6212 51.5267 14.8876 51.5267 15.6686 52.3077L26.0931 62.7322C26.8742 63.5133 28.1405 63.5133 28.9215 62.7322L39.346 52.3077C40.1271 51.5267 41.3934 51.5267 42.1745 52.3077C42.9555 53.0888 42.9555 54.3551 42.1745 55.1361L31.75 65.5606C29.4068 67.9038 25.6078 67.9038 23.2647 65.5606L12.8402 55.1361C12.0591 54.3551 12.0591 53.0888 12.8402 52.3077Z" fill="url(#paint0_linear_834_70)"/>
    <defs>
        <linearGradient id="paint0_linear_834_70" x1="46.9352" y1="32.5997" x2="11.3939" y2="33.6054" gradientUnits="userSpaceOnUse">
            <stop stop-color="#00DEFC"/>
            <stop offset="1" stop-color="#BADAFF"/>
        </linearGradient>
        <clipPath id="clip0_834_70">
            <rect width="17" height="16" fill="white" transform="translate(19.0078 17.9788)"/>
        </clipPath>
        <clipPath id="clip1_834_70">
            <rect width="7" height="7" fill="white" transform="translate(47 22.4832)"/>
        </clipPath>
        <clipPath id="clip2_834_70">
            <rect width="7" height="7" fill="white" transform="translate(0 22.4832)"/>
        </clipPath>
    </defs>
</svg>
