<svg width="67" height="83" viewBox="0 0 67 83" fill="none" xmlns="http://www.w3.org/2000/svg">
    <g clip-path="url(#clip0_604_7)">
        <path d="M34.7054 22.4122L37.2933 27.5774C37.3535 27.699 37.4429 27.8042 37.5538 27.8838C37.6647 27.9635 37.7937 28.0152 37.9295 28.0345L43.712 28.8608C43.8679 28.8834 44.0144 28.9485 44.1349 29.0488C44.2553 29.149 44.345 29.2804 44.3937 29.4282C44.4425 29.5759 44.4484 29.7342 44.4108 29.8851C44.3733 30.036 44.2937 30.1736 44.181 30.2823L39.9972 34.313C39.8989 34.4069 39.8253 34.523 39.783 34.6513C39.7408 34.7796 39.731 34.9161 39.7545 35.049L40.7412 40.7271C40.7677 40.8803 40.7502 41.0378 40.6908 41.1817C40.6313 41.3257 40.5322 41.4504 40.4047 41.5419C40.2772 41.6333 40.1263 41.6878 39.969 41.6992C39.8118 41.7107 39.6544 41.6786 39.5146 41.6066L34.3414 38.9256C34.22 38.8628 34.085 38.83 33.9478 38.83C33.8107 38.83 33.6757 38.8628 33.5543 38.9256L28.3811 41.6066C28.2413 41.6786 28.0839 41.7107 27.9267 41.6992C27.7694 41.6878 27.6185 41.6333 27.491 41.5419C27.3635 41.4504 27.2644 41.3257 27.2049 41.1817C27.1455 41.0378 27.128 40.8803 27.1545 40.7271L28.1411 35.049C28.1647 34.9161 28.1549 34.7796 28.1126 34.6513C28.0704 34.523 27.9968 34.4069 27.8985 34.313L23.7147 30.2903C23.602 30.1816 23.5224 30.044 23.4849 29.8931C23.4473 29.7422 23.4532 29.5839 23.502 29.4362C23.5507 29.2884 23.6404 29.157 23.7608 29.0567C23.8813 28.9565 24.0278 28.8914 24.1837 28.8688L29.9662 28.0424C30.102 28.0232 30.231 27.9715 30.3419 27.8918C30.4528 27.8122 30.5422 27.707 30.6024 27.5854L33.1903 22.4201C33.2591 22.2802 33.3663 22.162 33.4997 22.079C33.6332 21.9961 33.7876 21.9516 33.9453 21.9508C34.1031 21.95 34.258 21.9928 34.3923 22.0743C34.5267 22.1559 34.6351 22.2729 34.7054 22.4122Z" fill="#3A3A53"></path>
    </g>
    <g clip-path="url(#clip1_604_7)">
        <path d="M62.6381 27.71L63.7037 29.9698C63.7285 30.023 63.7653 30.069 63.811 30.1039C63.8566 30.1387 63.9097 30.1614 63.9657 30.1698L66.3467 30.5313C66.4109 30.5412 66.4712 30.5697 66.5208 30.6135C66.5704 30.6574 66.6073 30.7149 66.6274 30.7795C66.6475 30.8442 66.6499 30.9134 66.6344 30.9794C66.619 31.0455 66.5862 31.1056 66.5398 31.1532L64.8171 32.9166C64.7766 32.9577 64.7463 33.0085 64.7289 33.0646C64.7115 33.1208 64.7074 33.1805 64.7171 33.2386L65.1234 35.7228C65.1343 35.7898 65.1271 35.8587 65.1026 35.9217C65.0782 35.9847 65.0374 36.0393 64.9849 36.0793C64.9324 36.1193 64.8702 36.1431 64.8055 36.1481C64.7407 36.1531 64.6759 36.1391 64.6184 36.1076L62.4882 34.9347C62.4382 34.9072 62.3826 34.8928 62.3262 34.8928C62.2697 34.8928 62.2141 34.9072 62.1641 34.9347L60.0339 36.1076C59.9764 36.1391 59.9116 36.1531 59.8468 36.1481C59.7821 36.1431 59.7199 36.1193 59.6674 36.0793C59.6149 36.0393 59.5741 35.9847 59.5497 35.9217C59.5252 35.8587 59.518 35.7898 59.5289 35.7228L59.9352 33.2386C59.9449 33.1805 59.9408 33.1208 59.9234 33.0646C59.906 33.0085 59.8757 32.9577 59.8353 32.9166L58.1125 31.1567C58.0661 31.1091 58.0333 31.0489 58.0179 30.9829C58.0024 30.9169 58.0048 30.8477 58.0249 30.783C58.045 30.7184 58.0819 30.6609 58.1315 30.617C58.1811 30.5732 58.2414 30.5447 58.3056 30.5348L60.6866 30.1733C60.7426 30.1648 60.7957 30.1422 60.8413 30.1074C60.887 30.0725 60.9238 30.0265 60.9486 29.9733L62.0142 27.7135C62.0425 27.6523 62.0867 27.6006 62.1416 27.5643C62.1966 27.528 62.2601 27.5085 62.3251 27.5082C62.3901 27.5078 62.4538 27.5265 62.5092 27.5622C62.5645 27.5979 62.6091 27.6491 62.6381 27.71Z" fill="#3A3A53"></path>
    </g>
    <g clip-path="url(#clip2_604_7)">
        <path d="M4.63123 27.71L5.69686 29.9698C5.72164 30.023 5.75847 30.069 5.80413 30.1039C5.84979 30.1387 5.90289 30.1614 5.95882 30.1698L8.33983 30.5313C8.40406 30.5412 8.46437 30.5697 8.51397 30.6135C8.56357 30.6574 8.60049 30.7149 8.62057 30.7795C8.64065 30.8442 8.64308 30.9134 8.62761 30.9794C8.61213 31.0455 8.57936 31.1056 8.53297 31.1532L6.81022 32.9166C6.76973 32.9577 6.73946 33.0085 6.72205 33.0646C6.70463 33.1208 6.7006 33.1805 6.71031 33.2386L7.11659 35.7228C7.12749 35.7898 7.12029 35.8587 7.09581 35.9217C7.07133 35.9847 7.03054 36.0393 6.97803 36.0793C6.92552 36.1193 6.86338 36.1431 6.79863 36.1481C6.73387 36.1531 6.66906 36.1391 6.61152 36.1076L4.48138 34.9347C4.43139 34.9072 4.37578 34.8928 4.31932 34.8928C4.26286 34.8928 4.20724 34.9072 4.15725 34.9347L2.02711 36.1076C1.96956 36.1391 1.90476 36.1531 1.84 36.1481C1.77525 36.1431 1.71311 36.1193 1.66061 36.0793C1.6081 36.0393 1.5673 35.9847 1.54282 35.9217C1.51834 35.8587 1.51115 35.7898 1.52205 35.7228L1.92832 33.2386C1.93803 33.1805 1.934 33.1208 1.91659 33.0646C1.89917 33.0085 1.8689 32.9577 1.82842 32.9166L0.105654 31.1567C0.0592727 31.1091 0.0265018 31.0489 0.0110262 30.9829C-0.00444942 30.9169 -0.00201239 30.8477 0.0180655 30.783C0.0381433 30.7184 0.0750636 30.6609 0.124664 30.617C0.174265 30.5732 0.234572 30.5447 0.298797 30.5348L2.67981 30.1733C2.73573 30.1648 2.78885 30.1422 2.83451 30.1074C2.88017 30.0725 2.91699 30.0265 2.94177 29.9733L4.0074 27.7135C4.0357 27.6523 4.07984 27.6006 4.13479 27.5643C4.18974 27.528 4.25331 27.5085 4.31828 27.5082C4.38325 27.5078 4.44701 27.5265 4.50233 27.5622C4.55765 27.5979 4.60231 27.6491 4.63123 27.71Z" fill="#3A3A53"></path>
    </g>
    <path fill-rule="evenodd" clip-rule="evenodd" d="M26.554 0C25.1907 0 24.0856 1.10513 24.0856 2.46838C24.0856 3.83163 25.1907 4.93677 26.554 4.93677H39.5415C40.9048 4.93677 42.0099 3.83163 42.0099 2.46838C42.0099 1.10513 40.9048 0 39.5415 0H26.554ZM14.9303 52.5142L30.6774 68.6928C31.5435 69.5818 32.7167 70.0811 33.9398 70.0811C35.163 70.0811 36.3362 69.5818 37.2023 68.6928L52.9582 52.502C53.8225 51.6142 54.3096 50.4099 54.3129 49.1531V14.3136C54.3129 13.0531 53.8264 11.8443 52.9606 10.953C52.0947 10.0618 50.9203 9.56107 49.6958 9.56107H18.1927C16.9682 9.56107 15.7939 10.0618 14.928 10.953C14.0621 11.8443 13.5757 13.0531 13.5757 14.3136V49.1652C13.579 50.4221 14.0661 51.6263 14.9303 52.5142ZM49.3761 49.1044L40.5943 58.1286L33.9398 64.9666L27.2943 58.1409L18.5124 49.1165V14.4978H49.3761V49.1044ZM15.8468 64.3158C16.8108 63.3518 18.3737 63.3518 19.3376 64.3158L32.2035 77.1816C33.1674 78.1456 34.7303 78.1456 35.6943 77.1816L48.5601 64.3158C49.5241 63.3518 51.087 63.3518 52.0509 64.3158C53.0149 65.2797 53.0149 66.8426 52.0509 67.8066L39.1851 80.6724C36.2932 83.5643 31.6045 83.5643 28.7126 80.6724L15.8468 67.8066C14.8829 66.8426 14.8829 65.2797 15.8468 64.3158Z" fill="#3A3A53"></path>
    <defs>
        <clipPath id="clip0_604_7">
            <rect width="20.9813" height="19.7471" fill="white" transform="translate(23.4585 21.9473)"></rect>
        </clipPath>
        <clipPath id="clip1_604_7">
            <rect width="8.63934" height="8.63934" fill="white" transform="translate(58.0068 27.5066)"></rect>
        </clipPath>
        <clipPath id="clip2_604_7">
            <rect width="8.63934" height="8.63934" fill="white" transform="translate(0 27.5066)"></rect>
        </clipPath>
    </defs>
</svg>
