<svg width="74" height="38" viewBox="0 0 74 38" fill="none" xmlns="http://www.w3.org/2000/svg">
<path fill-rule="evenodd" clip-rule="evenodd" d="M11.5997 6.29153C11.5997 3.15244 9.05611 0.608887 5.91702 0.608887C2.77792 0.608887 0.234375 3.15244 0.234375 6.29153C0.234375 9.43062 2.77792 11.9742 5.91702 11.9742C9.05611 11.9742 11.5997 9.43062 11.5997 6.29153ZM20.7834 25.3809L20.7842 31.5735C20.7847 34.9943 23.2307 37.7657 26.2489 37.7653C29.2671 37.7649 31.7123 34.9928 31.7118 31.572L31.711 25.3794H31.7109L31.7092 12.9942L20.7816 12.9957L20.7833 25.3809H20.7834ZM31.7083 6.80151L31.7092 12.9941L26.2454 12.9949L20.7815 12.9956L20.7807 6.803C20.7802 3.38219 23.2276 0.610042 26.2437 0.609631C29.2597 0.60922 31.7079 3.38071 31.7083 6.80151ZM16.1896 31.2077C18.0006 31.2077 19.4681 32.6752 19.4681 34.4862C19.4681 36.2972 18.0006 37.7646 16.1896 37.7646C14.3786 37.7646 12.9112 36.2972 12.9112 34.4862C12.9112 32.6752 14.3786 31.2077 16.1896 31.2077ZM11.5997 32.082C11.5997 28.9429 9.05611 26.3993 5.91702 26.3993C2.77792 26.3993 0.234375 28.9429 0.234375 32.082C0.234375 35.2211 2.77792 37.7646 5.91702 37.7646C9.05611 37.7646 11.5997 35.2211 11.5997 32.082ZM5.91702 13.2855C9.05611 13.2855 11.5997 15.8291 11.5997 18.9682C11.5997 22.1073 9.05611 24.6508 5.91702 24.6508C2.77792 24.6508 0.234375 22.1073 0.234375 18.9682C0.234375 15.8291 2.77792 13.2855 5.91702 13.2855ZM43.9469 0.608887C49.0177 0.608887 53.1266 4.52204 53.1266 9.35141C53.1266 14.1808 49.0177 18.0939 43.9469 18.0939C38.8761 18.0939 34.7673 14.1808 34.7673 9.35141C34.7673 4.52204 38.8761 0.608887 43.9469 0.608887ZM53.1265 29.0221C53.1265 24.1927 49.0177 20.2796 43.9468 20.2796C38.876 20.2796 34.7672 24.1927 34.7672 29.0221C34.7672 33.8514 38.876 37.7646 43.9468 37.7646C49.0177 37.7646 53.1265 33.8514 53.1265 29.0221ZM64.0547 20.2796C69.1256 20.2796 73.2344 24.1927 73.2344 29.0221C73.2344 33.8514 69.1256 37.7646 64.0547 37.7646C58.9839 37.7646 54.8751 33.8514 54.8751 29.0221C54.8751 24.1927 58.9839 20.2796 64.0547 20.2796ZM73.2344 9.35141C73.2344 4.52204 69.1256 0.608887 64.0547 0.608887C58.9839 0.608887 54.8751 4.52204 54.8751 9.35141C54.8751 14.1808 58.9839 18.0939 64.0547 18.0939C69.1256 18.0939 73.2344 14.1808 73.2344 9.35141Z" fill="url(#paint0_linear_2_3251)"/>
<defs>
<linearGradient id="paint0_linear_2_3251" x1="0.234375" y1="0.608887" x2="73.2343" y2="37.7654" gradientUnits="userSpaceOnUse">
<stop offset="0.05" stop-color="#00DEFC"/>
<stop offset="1" stop-color="#BAFFD1"/>
</linearGradient>
</defs>
</svg>
