<svg width="58" height="68" viewBox="0 0 58 68" fill="none" xmlns="http://www.w3.org/2000/svg">
    <path d="M30.119 18.6573L32.2158 22.8424C32.2646 22.9409 32.3371 23.0261 32.4269 23.0907C32.5168 23.1552 32.6213 23.1971 32.7313 23.2127L37.4165 23.8822C37.5429 23.9006 37.6616 23.9533 37.7592 24.0345C37.8568 24.1158 37.9294 24.2222 37.969 24.342C38.0085 24.4617 38.0133 24.5899 37.9828 24.7122C37.9524 24.8345 37.8879 24.9459 37.7966 25.034L34.4066 28.2999C34.327 28.3759 34.2674 28.47 34.2332 28.574C34.1989 28.6779 34.191 28.7886 34.2101 28.8962L35.0095 33.4969C35.031 33.621 35.0168 33.7486 34.9686 33.8653C34.9204 33.9819 34.8402 34.083 34.7369 34.157C34.6335 34.2311 34.5113 34.2753 34.3838 34.2846C34.2564 34.2938 34.1289 34.2678 34.0157 34.2095L29.8241 32.0372C29.7257 31.9863 29.6163 31.9597 29.5052 31.9597C29.3941 31.9597 29.2847 31.9863 29.1863 32.0372L24.9947 34.2095C24.8815 34.2678 24.754 34.2938 24.6265 34.2846C24.4991 34.2753 24.3769 34.2311 24.2735 34.157C24.1702 34.083 24.0899 33.9819 24.0418 33.8653C23.9936 33.7486 23.9794 33.621 24.0009 33.4969L24.8003 28.8962C24.8194 28.7886 24.8115 28.6779 24.7772 28.574C24.743 28.47 24.6834 28.3759 24.6037 28.2999L21.2138 25.0405C21.1225 24.9524 21.058 24.8409 21.0276 24.7187C20.9971 24.5964 21.0019 24.4682 21.0414 24.3484C21.0809 24.2287 21.1536 24.1222 21.2512 24.041C21.3488 23.9598 21.4675 23.907 21.5938 23.8887L26.2791 23.2192C26.3891 23.2036 26.4936 23.1617 26.5835 23.0971C26.6733 23.0326 26.7458 22.9474 26.7945 22.8489L28.8914 18.6637C28.9471 18.5503 29.034 18.4546 29.1421 18.3873C29.2502 18.3201 29.3753 18.2841 29.5032 18.2835C29.631 18.2828 29.7565 18.3175 29.8653 18.3835C29.9742 18.4496 30.062 18.5444 30.119 18.6573Z" fill="white"/>
    <path d="M54.2517 13.4861L55.1151 15.3171C55.1351 15.3601 55.165 15.3974 55.202 15.4257C55.239 15.4539 55.282 15.4722 55.3273 15.4791L57.2565 15.772C57.3086 15.78 57.3574 15.8031 57.3976 15.8386C57.4378 15.8741 57.4677 15.9207 57.484 15.9731C57.5003 16.0255 57.5022 16.0816 57.4897 16.1351C57.4772 16.1886 57.4506 16.2373 57.413 16.2759L56.0172 17.7047C55.9844 17.738 55.9598 17.7791 55.9457 17.8246C55.9316 17.8701 55.9284 17.9185 55.9362 17.9656L56.2654 19.9784C56.2742 20.0327 56.2684 20.0885 56.2486 20.1395C56.2287 20.1906 56.1957 20.2348 56.1531 20.2672C56.1106 20.2996 56.0602 20.3189 56.0078 20.323C55.9553 20.327 55.9028 20.3157 55.8562 20.2901L54.1302 19.3398C54.0897 19.3175 54.0447 19.3059 53.9989 19.3059C53.9532 19.3059 53.9081 19.3175 53.8676 19.3398L52.1417 20.2901C52.095 20.3157 52.0425 20.327 51.9901 20.323C51.9376 20.3189 51.8873 20.2996 51.8447 20.2672C51.8022 20.2348 51.7691 20.1906 51.7493 20.1395C51.7294 20.0885 51.7236 20.0327 51.7324 19.9784L52.0616 17.9656C52.0695 17.9185 52.0662 17.8701 52.0521 17.8246C52.038 17.7791 52.0135 17.738 51.9807 17.7047L50.5848 16.2787C50.5472 16.2402 50.5207 16.1914 50.5081 16.1379C50.4956 16.0844 50.4976 16.0283 50.5138 15.9759C50.5301 15.9236 50.56 15.877 50.6002 15.8414C50.6404 15.8059 50.6893 15.7828 50.7413 15.7748L52.6705 15.4819C52.7158 15.4751 52.7589 15.4567 52.7959 15.4285C52.8329 15.4003 52.8627 15.363 52.8828 15.3199L53.7462 13.4889C53.7691 13.4393 53.8049 13.3974 53.8494 13.368C53.8939 13.3386 53.9454 13.3228 53.9981 13.3225C54.0507 13.3222 54.1024 13.3374 54.1472 13.3663C54.192 13.3952 54.2282 13.4367 54.2517 13.4861Z" fill="white"/>
    <path d="M4.25165 31.4861L5.11507 33.3171C5.13515 33.3601 5.16499 33.3974 5.20199 33.4257C5.23898 33.4539 5.28201 33.4722 5.32733 33.4791L7.25653 33.772C7.30857 33.78 7.35744 33.8031 7.39763 33.8386C7.43782 33.8741 7.46773 33.9207 7.484 33.9731C7.50027 34.0255 7.50224 34.0816 7.4897 34.1351C7.47716 34.1886 7.45061 34.2373 7.41303 34.2759L6.01717 35.7047C5.98436 35.738 5.95984 35.7791 5.94573 35.8246C5.93162 35.8701 5.92835 35.9185 5.93622 35.9656L6.2654 37.9784C6.27424 38.0327 6.2684 38.0885 6.24856 38.1395C6.22873 38.1906 6.19568 38.2348 6.15314 38.2672C6.11059 38.2996 6.06024 38.3189 6.00777 38.323C5.95531 38.327 5.9028 38.3157 5.85617 38.2901L4.13023 37.3398C4.08973 37.3175 4.04467 37.3059 3.99892 37.3059C3.95318 37.3059 3.90811 37.3175 3.86761 37.3398L2.14167 38.2901C2.09504 38.3157 2.04253 38.327 1.99007 38.323C1.9376 38.3189 1.88725 38.2996 1.84471 38.2672C1.80216 38.2348 1.76911 38.1906 1.74927 38.1395C1.72944 38.0885 1.72361 38.0327 1.73244 37.9784L2.06162 35.9656C2.06949 35.9185 2.06623 35.8701 2.05212 35.8246C2.03801 35.7791 2.01348 35.738 1.98068 35.7047L0.584814 34.2787C0.547234 34.2402 0.520682 34.1914 0.508143 34.1379C0.495604 34.0844 0.497578 34.0283 0.513846 33.9759C0.530114 33.9236 0.560029 33.877 0.600218 33.8414C0.640406 33.8059 0.68927 33.7828 0.741308 33.7748L2.67051 33.4819C2.71583 33.4751 2.75886 33.4567 2.79586 33.4285C2.83286 33.4003 2.86269 33.363 2.88277 33.3199L3.74619 31.4889C3.76913 31.4393 3.80489 31.3974 3.84941 31.368C3.89394 31.3386 3.94544 31.3228 3.99808 31.3225C4.05072 31.3222 4.10239 31.3374 4.14721 31.3663C4.19203 31.3952 4.22821 31.4367 4.25165 31.4861Z" fill="white"/>
    <path d="M54.1438 22.3808L54.6372 23.4271C54.6487 23.4517 54.6657 23.473 54.6868 23.4892C54.708 23.5053 54.7326 23.5158 54.7585 23.5197L55.8609 23.6871C55.8906 23.6916 55.9185 23.7048 55.9415 23.7251C55.9645 23.7454 55.9816 23.7721 55.9909 23.802C56.0002 23.8319 56.0013 23.864 55.9941 23.8945C55.987 23.9251 55.9718 23.953 55.9503 23.975L55.1527 24.7915C55.1339 24.8105 55.1199 24.834 55.1118 24.86C55.1038 24.886 55.1019 24.9136 55.1064 24.9406L55.2945 26.0907C55.2996 26.1218 55.2962 26.1536 55.2849 26.1828C55.2736 26.212 55.2547 26.2372 55.2304 26.2558C55.2061 26.2743 55.1773 26.2853 55.1473 26.2876C55.1173 26.2899 55.0873 26.2834 55.0607 26.2689L54.0744 25.7258C54.0513 25.7131 54.0255 25.7064 53.9994 25.7064C53.9732 25.7064 53.9475 25.7131 53.9243 25.7258L52.9381 26.2689C52.9115 26.2834 52.8814 26.2899 52.8515 26.2876C52.8215 26.2853 52.7927 26.2743 52.7684 26.2558C52.7441 26.2372 52.7252 26.212 52.7139 26.1828C52.7025 26.1536 52.6992 26.1218 52.7043 26.0907L52.8924 24.9406C52.8969 24.9136 52.895 24.886 52.8869 24.86C52.8789 24.834 52.8648 24.8105 52.8461 24.7915L52.0485 23.9766C52.027 23.9546 52.0118 23.9267 52.0047 23.8962C51.9975 23.8656 51.9986 23.8335 52.0079 23.8036C52.0172 23.7737 52.0343 23.747 52.0573 23.7267C52.0802 23.7064 52.1082 23.6932 52.1379 23.6887L53.2403 23.5213C53.2662 23.5174 53.2908 23.5069 53.3119 23.4908C53.3331 23.4746 53.3501 23.4533 53.3616 23.4287L53.855 22.3824C53.8681 22.3541 53.8885 22.3301 53.9139 22.3133C53.9394 22.2965 53.9688 22.2875 53.9989 22.2874C54.029 22.2872 54.0585 22.2959 54.0841 22.3124C54.1097 22.3289 54.1304 22.3526 54.1438 22.3808Z" fill="white"/>
    <path d="M4.1438 40.3808L4.63718 41.4271C4.64866 41.4517 4.66571 41.473 4.68685 41.4892C4.70799 41.5053 4.73258 41.5158 4.75847 41.5197L5.86088 41.6871C5.89061 41.6916 5.91854 41.7048 5.9415 41.7251C5.96447 41.7454 5.98156 41.7721 5.99086 41.802C6.00015 41.8319 6.00128 41.864 5.99412 41.8945C5.98695 41.9251 5.97177 41.953 5.9503 41.975L5.15267 42.7915C5.13392 42.8105 5.11991 42.834 5.11184 42.86C5.10378 42.886 5.10192 42.9136 5.10641 42.9406L5.29452 44.0907C5.29956 44.1218 5.29623 44.1536 5.28489 44.1828C5.27356 44.212 5.25467 44.2372 5.23036 44.2558C5.20605 44.2743 5.17728 44.2853 5.1473 44.2876C5.11732 44.2899 5.08731 44.2834 5.06067 44.2689L4.07442 43.7258C4.05127 43.7131 4.02553 43.7064 3.99938 43.7064C3.97324 43.7064 3.94749 43.7131 3.92435 43.7258L2.9381 44.2689C2.91145 44.2834 2.88145 44.2899 2.85147 44.2876C2.82148 44.2853 2.79272 44.2743 2.76841 44.2558C2.74409 44.2372 2.72521 44.212 2.71387 44.1828C2.70254 44.1536 2.69921 44.1218 2.70425 44.0907L2.89235 42.9406C2.89685 42.9136 2.89499 42.886 2.88692 42.86C2.87886 42.834 2.86485 42.8105 2.8461 42.7915L2.04847 41.9766C2.02699 41.9546 2.01182 41.9267 2.00465 41.8962C1.99749 41.8656 1.99862 41.8335 2.00791 41.8036C2.01721 41.7737 2.0343 41.747 2.05727 41.7267C2.08023 41.7064 2.10815 41.6932 2.13789 41.6887L3.24029 41.5213C3.26619 41.5174 3.29078 41.5069 3.31192 41.4908C3.33306 41.4746 3.35011 41.4533 3.36158 41.4287L3.85497 40.3824C3.86807 40.3541 3.88851 40.3301 3.91395 40.3133C3.93939 40.2965 3.96882 40.2875 3.9989 40.2874C4.02898 40.2872 4.05851 40.2959 4.08412 40.3124C4.10973 40.3289 4.13041 40.3526 4.1438 40.3808Z" fill="white"/>
    <path fill-rule="evenodd" clip-rule="evenodd" d="M23.5146 0.497803C22.4101 0.497803 21.5146 1.39323 21.5146 2.4978C21.5146 3.60237 22.4101 4.4978 23.5146 4.4978H34.0378C35.1423 4.4978 36.0378 3.60237 36.0378 2.4978C36.0378 1.39323 35.1423 0.497803 34.0378 0.497803H23.5146ZM14.0966 43.0473L26.8557 56.1559C27.5574 56.8762 28.508 57.2808 29.499 57.2808C30.4901 57.2808 31.4407 56.8762 32.1424 56.1559L44.9086 43.0374C45.6089 42.318 46.0036 41.3423 46.0062 40.3239V12.0953C46.0062 11.0741 45.6121 10.0946 44.9105 9.37247C44.2089 8.65033 43.2574 8.24463 42.2653 8.24463H16.74C15.7478 8.24463 14.7963 8.65033 14.0947 9.37247C13.3932 10.0946 12.999 11.0741 12.999 12.0953V40.3338C13.0017 41.3521 13.3964 42.3279 14.0966 43.0473ZM42.0062 40.2845L34.8908 47.5963L29.499 53.1368L24.1145 47.6063L16.999 40.2943V12.2446H42.0062V40.2845ZM14.8392 52.6095C15.6203 51.8284 16.8866 51.8284 17.6676 52.6095L28.0921 63.034C28.8732 63.815 30.1395 63.815 30.9206 63.034L41.3451 52.6095C42.1261 51.8284 43.3924 51.8284 44.1735 52.6095C44.9545 53.3905 44.9545 54.6568 44.1735 55.4379L33.749 65.8624C31.4058 68.2055 27.6069 68.2055 25.2637 65.8624L14.8392 55.4379C14.0582 54.6568 14.0582 53.3905 14.8392 52.6095Z" fill="url(#paint0_linear_834_78)"/>
    <path fill-rule="evenodd" clip-rule="evenodd" d="M4 25.542C2.89543 25.542 2 24.6466 2 23.542L2 13.0189C2 11.9143 2.89543 11.0189 4 11.0189C5.10457 11.0189 6 11.9143 6 13.0189L6 23.542C6 24.6466 5.10457 25.542 4 25.542Z" fill="url(#paint1_linear_834_78)"/>
    <path fill-rule="evenodd" clip-rule="evenodd" d="M53.999 48.8096C52.8945 48.8096 51.999 47.9141 51.999 46.8096L51.999 36.2865C51.999 35.1819 52.8945 34.2865 53.999 34.2865C55.1036 34.2865 55.999 35.1819 55.999 36.2865L55.999 46.8096C55.999 47.9141 55.1036 48.8096 53.999 48.8096Z" fill="url(#paint2_linear_834_78)"/>
    <defs>
        <linearGradient id="paint0_linear_834_78" x1="48.9343" y1="32.9015" x2="13.393" y2="33.9071" gradientUnits="userSpaceOnUse">
            <stop stop-color="#00DEFC"/>
            <stop offset="1" stop-color="#BADAFF"/>
        </linearGradient>
        <linearGradient id="paint1_linear_834_78" x1="3.93103" y1="9.73054" x2="7.06393" y2="24.7267" gradientUnits="userSpaceOnUse">
            <stop stop-color="#00DEFC"/>
            <stop offset="1" stop-color="#BADAFF"/>
        </linearGradient>
        <linearGradient id="paint2_linear_834_78" x1="53.9301" y1="32.9981" x2="57.063" y2="47.9943" gradientUnits="userSpaceOnUse">
            <stop stop-color="#00DEFC"/>
            <stop offset="1" stop-color="#BADAFF"/>
        </linearGradient>
    </defs>
</svg>
