<svg width="96" height="113" viewBox="0 0 96 113" fill="none" xmlns="http://www.w3.org/2000/svg">
    <path d="M49.8512 30.6349L53.3527 37.6235C53.4342 37.788 53.5552 37.9303 53.7052 38.0381C53.8553 38.1459 54.0298 38.2158 54.2135 38.2419L62.0373 39.3599C62.2483 39.3905 62.4465 39.4786 62.6095 39.6142C62.7724 39.7499 62.8937 39.9277 62.9597 40.1276C63.0257 40.3275 63.0337 40.5416 62.9829 40.7458C62.932 40.95 62.8243 41.1361 62.6719 41.2832L57.0111 46.7368C56.8781 46.8638 56.7786 47.021 56.7214 47.1945C56.6642 47.3681 56.6509 47.5529 56.6828 47.7327L58.0178 55.4152C58.0536 55.6225 58.03 55.8355 57.9495 56.0303C57.8691 56.2251 57.7351 56.3938 57.5625 56.5175C57.39 56.6413 57.1858 56.715 56.973 56.7305C56.7602 56.746 56.5473 56.7025 56.3582 56.6051L49.3588 52.9778C49.1946 52.8927 49.0118 52.8483 48.8263 52.8483C48.6408 52.8483 48.458 52.8927 48.2938 52.9778L41.2944 56.6051C41.1053 56.7025 40.8923 56.746 40.6795 56.7305C40.4668 56.715 40.2626 56.6413 40.0901 56.5175C39.9175 56.3938 39.7835 56.2251 39.703 56.0303C39.6226 55.8355 39.599 55.6225 39.6348 55.4152L40.9697 47.7327C41.0016 47.5529 40.9884 47.3681 40.9312 47.1945C40.874 47.021 40.7745 46.8638 40.6415 46.7368L34.9807 41.294C34.8283 41.1469 34.7206 40.9608 34.6697 40.7566C34.6189 40.5524 34.6269 40.3383 34.6929 40.1384C34.7588 39.9384 34.8802 39.7606 35.0431 39.625C35.2061 39.4894 35.4043 39.4013 35.6153 39.3707L43.439 38.2527C43.6228 38.2266 43.7973 38.1567 43.9474 38.0489C44.0974 37.9411 44.2184 37.7988 44.2998 37.6343L47.8014 30.6456C47.8944 30.4562 48.0394 30.2963 48.22 30.1841C48.4005 30.0719 48.6094 30.0118 48.8229 30.0106C49.0364 30.0095 49.2459 30.0674 49.4277 30.1777C49.6094 30.2881 49.7562 30.4465 49.8512 30.6349Z" fill="white"/>
    <path d="M90.1496 21.9994L91.5914 25.057C91.6249 25.1289 91.6747 25.1912 91.7365 25.2383C91.7983 25.2855 91.8701 25.3161 91.9458 25.3275L95.1673 25.8166C95.2542 25.83 95.3358 25.8686 95.4029 25.9279C95.4701 25.9872 95.52 26.065 95.5472 26.1525C95.5743 26.24 95.5776 26.3336 95.5567 26.423C95.5358 26.5123 95.4914 26.5937 95.4287 26.6581L93.0978 29.044C93.043 29.0996 93.002 29.1683 92.9785 29.2443C92.9549 29.3202 92.9494 29.4011 92.9626 29.4797L93.5123 32.8408C93.527 32.9315 93.5173 33.0247 93.4842 33.1099C93.451 33.1951 93.3958 33.269 93.3248 33.3231C93.2538 33.3772 93.1697 33.4095 93.0821 33.4163C92.9944 33.423 92.9068 33.404 92.8289 33.3614L89.9468 31.7744C89.8792 31.7372 89.8039 31.7178 89.7275 31.7178C89.6511 31.7178 89.5759 31.7372 89.5083 31.7744L86.6261 33.3614C86.5483 33.404 86.4606 33.423 86.373 33.4163C86.2854 33.4095 86.2013 33.3772 86.1303 33.3231C86.0592 33.269 86.004 33.1951 85.9709 33.1099C85.9378 33.0247 85.928 32.9315 85.9428 32.8408L86.4925 29.4797C86.5056 29.4011 86.5002 29.3202 86.4766 29.2443C86.453 29.1683 86.4121 29.0996 86.3573 29.044L84.0264 26.6628C83.9636 26.5984 83.9193 26.517 83.8984 26.4277C83.8774 26.3384 83.8807 26.2447 83.9079 26.1572C83.9351 26.0697 83.985 25.992 84.0521 25.9326C84.1192 25.8733 84.2008 25.8347 84.2877 25.8214L87.5093 25.3322C87.5849 25.3208 87.6568 25.2902 87.7186 25.2431C87.7803 25.1959 87.8302 25.1336 87.8637 25.0617L89.3055 22.0041C89.3438 21.9213 89.4035 21.8513 89.4779 21.8022C89.5522 21.7531 89.6382 21.7268 89.7261 21.7263C89.814 21.7258 89.9003 21.7512 89.9752 21.7994C90.05 21.8477 90.1104 21.917 90.1496 21.9994Z" fill="white"/>
    <path d="M6.6564 52.057L8.0982 55.1146C8.13172 55.1865 8.18155 55.2488 8.24333 55.296C8.30512 55.3431 8.37697 55.3737 8.45264 55.3851L11.6742 55.8743C11.7611 55.8876 11.8427 55.9262 11.9098 55.9855C11.9769 56.0449 12.0268 56.1226 12.054 56.2101C12.0812 56.2976 12.0845 56.3913 12.0635 56.4806C12.0426 56.5699 11.9983 56.6513 11.9355 56.7157L9.60459 59.1017C9.54981 59.1572 9.50885 59.226 9.48529 59.3019C9.46173 59.3778 9.45628 59.4587 9.46941 59.5373L10.0191 62.8984C10.0339 62.9891 10.0241 63.0823 9.99099 63.1675C9.95787 63.2528 9.90268 63.3266 9.83164 63.3807C9.76059 63.4348 9.67652 63.4671 9.5889 63.4739C9.50129 63.4806 9.4136 63.4616 9.33574 63.419L6.45364 61.8321C6.386 61.7949 6.31076 61.7754 6.23437 61.7754C6.15798 61.7754 6.08272 61.7949 6.01509 61.8321L3.13298 63.419C3.05512 63.4616 2.96744 63.4806 2.87983 63.4739C2.79221 63.4671 2.70814 63.4348 2.6371 63.3807C2.56606 63.3266 2.51086 63.2528 2.47774 63.1675C2.44461 63.0823 2.43488 62.9891 2.44963 62.8984L2.99931 59.5373C3.01245 59.4587 3.00701 59.3778 2.98345 59.3019C2.95988 59.226 2.91893 59.1572 2.86415 59.1017L0.533231 56.7204C0.470477 56.6561 0.426137 56.5746 0.405199 56.4853C0.38426 56.396 0.387557 56.3023 0.414723 56.2148C0.441889 56.1274 0.491842 56.0496 0.558953 55.9902C0.626063 55.9309 0.707658 55.8924 0.794556 55.879L4.01609 55.3898C4.09176 55.3784 4.16362 55.3478 4.2254 55.3007C4.28718 55.2535 4.33701 55.1913 4.37053 55.1193L5.81234 52.0618C5.85064 51.9789 5.91035 51.9089 5.9847 51.8598C6.05905 51.8107 6.14506 51.7844 6.23297 51.7839C6.32087 51.7835 6.40714 51.8088 6.48199 51.8571C6.55684 51.9053 6.61726 51.9746 6.6564 52.057Z" fill="white"/>
    <path d="M89.969 36.8528L90.7929 38.6C90.8121 38.6411 90.8406 38.6767 90.8759 38.7036C90.9112 38.7306 90.9522 38.7481 90.9955 38.7546L92.8363 39.0341C92.886 39.0418 92.9326 39.0638 92.971 39.0977C93.0093 39.1316 93.0379 39.176 93.0534 39.226C93.0689 39.276 93.0708 39.3295 93.0588 39.3806C93.0469 39.4316 93.0215 39.4782 92.9857 39.5149L91.6537 40.8783C91.6224 40.9101 91.599 40.9494 91.5856 40.9928C91.5721 41.0362 91.569 41.0823 91.5765 41.1273L91.8906 43.0479C91.899 43.0997 91.8935 43.153 91.8745 43.2017C91.8556 43.2504 91.8241 43.2926 91.7835 43.3235C91.7429 43.3544 91.6948 43.3729 91.6448 43.3767C91.5947 43.3806 91.5446 43.3698 91.5001 43.3454L89.8532 42.4386C89.8145 42.4173 89.7715 42.4062 89.7279 42.4062C89.6842 42.4062 89.6412 42.4173 89.6026 42.4386L87.9557 43.3454C87.9112 43.3698 87.8611 43.3806 87.811 43.3767C87.7609 43.3729 87.7129 43.3544 87.6723 43.3235C87.6317 43.2926 87.6002 43.2504 87.5812 43.2017C87.5623 43.153 87.5567 43.0997 87.5652 43.0479L87.8793 41.1273C87.8868 41.0823 87.8837 41.0362 87.8702 40.9928C87.8568 40.9494 87.8333 40.9101 87.802 40.8783L86.4701 39.5176C86.4342 39.4809 86.4089 39.4343 86.3969 39.3833C86.385 39.3322 86.3868 39.2787 86.4024 39.2287C86.4179 39.1787 86.4464 39.1343 86.4848 39.1004C86.5231 39.0665 86.5698 39.0444 86.6194 39.0368L88.4603 38.7573C88.5035 38.7508 88.5446 38.7333 88.5799 38.7063C88.6152 38.6794 88.6437 38.6438 88.6628 38.6027L89.4867 36.8555C89.5086 36.8082 89.5427 36.7682 89.5852 36.7401C89.6277 36.7121 89.6769 36.6971 89.7271 36.6968C89.7773 36.6965 89.8266 36.711 89.8694 36.7386C89.9122 36.7661 89.9467 36.8057 89.969 36.8528Z" fill="white"/>
    <path d="M6.47734 66.9102L7.30123 68.6574C7.32039 68.6985 7.34886 68.7341 7.38416 68.761C7.41947 68.788 7.46053 68.8055 7.50377 68.812L9.34464 69.0915C9.3943 69.0991 9.44093 69.1211 9.47928 69.1551C9.51763 69.189 9.54617 69.2334 9.5617 69.2834C9.57722 69.3334 9.5791 69.3869 9.56714 69.438C9.55517 69.489 9.52983 69.5355 9.49397 69.5723L8.16202 70.9357C8.13072 70.9675 8.10732 71.0067 8.09385 71.0501C8.08039 71.0935 8.07727 71.1397 8.08478 71.1847L8.39889 73.1053C8.40732 73.1571 8.40175 73.2104 8.38283 73.2591C8.3639 73.3078 8.33236 73.35 8.29177 73.3809C8.25117 73.4118 8.20313 73.4302 8.15306 73.4341C8.10299 73.438 8.05289 73.4271 8.0084 73.4028L6.36148 72.4959C6.32283 72.4747 6.27984 72.4636 6.23618 72.4636C6.19253 72.4636 6.14953 72.4747 6.11088 72.4959L4.46396 73.4028C4.41947 73.4271 4.36937 73.438 4.3193 73.4341C4.26924 73.4302 4.2212 73.4118 4.1806 73.3809C4.14001 73.35 4.10846 73.3078 4.08954 73.2591C4.07061 73.2104 4.06505 73.1571 4.07348 73.1053L4.38758 71.1847C4.39509 71.1397 4.39198 71.0935 4.37852 71.0501C4.36505 71.0067 4.34165 70.9675 4.31035 70.9357L2.97839 69.575C2.94253 69.5382 2.9172 69.4917 2.90523 69.4406C2.89327 69.3896 2.89515 69.3361 2.91067 69.2861C2.9262 69.2361 2.95474 69.1917 2.99309 69.1577C3.03144 69.1238 3.07806 69.1018 3.12772 69.0942L4.9686 68.8147C5.01184 68.8081 5.0529 68.7907 5.0882 68.7637C5.12351 68.7368 5.15198 68.7012 5.17113 68.6601L5.99503 66.9129C6.01691 66.8656 6.05103 66.8256 6.09352 66.7975C6.136 66.7695 6.18515 66.7544 6.23538 66.7542C6.28561 66.7539 6.33491 66.7683 6.37768 66.7959C6.42045 66.8235 6.45498 66.8631 6.47734 66.9102Z" fill="white"/>
    <path fill-rule="evenodd" clip-rule="evenodd" d="M38.8239 0.310547C36.9794 0.310547 35.4842 1.8058 35.4842 3.6503C35.4842 5.49479 36.9794 6.99005 38.8239 6.99005H56.3962C58.2407 6.99005 59.736 5.49479 59.736 3.6503C59.736 1.8058 58.2407 0.310547 56.3962 0.310547H38.8239ZM23.097 71.3629L44.403 93.2526C45.5748 94.4555 47.1622 95.131 48.8171 95.131C50.472 95.131 52.0594 94.4555 53.2312 93.2526L74.5492 71.3464C75.7185 70.1451 76.3776 68.5157 76.382 66.8152V19.677C76.382 17.9716 75.7239 16.336 74.5524 15.1301C73.3808 13.9243 71.7919 13.2468 70.1351 13.2468H27.5111C25.8543 13.2468 24.2654 13.9243 23.0938 15.1301C21.9223 16.336 21.2641 17.9716 21.2641 19.677V66.8317C21.2686 68.5322 21.9277 70.1616 23.097 71.3629ZM69.7025 66.7493L57.8207 78.9592L48.817 88.2112L39.8256 78.9758L27.9436 66.7658V19.9263H69.7025V66.7493ZM24.337 87.3306C25.6413 86.0263 27.7559 86.0263 29.0601 87.3306L46.4678 104.738C47.772 106.042 49.8866 106.042 51.1909 104.738L68.5985 87.3306C69.9027 86.0263 72.0174 86.0263 73.3216 87.3306C74.6259 88.6348 74.6259 90.7494 73.3216 92.0537L55.914 109.461C52.0012 113.374 45.6574 113.374 41.7446 109.461L24.337 92.0537C23.0328 90.7494 23.0328 88.6348 24.337 87.3306ZM6.23578 42.1314C4.39129 42.1314 2.89603 40.6361 2.89603 38.7916L2.89603 21.2194C2.89603 19.3749 4.39128 17.8796 6.23578 17.8796C8.08027 17.8796 9.57553 19.3749 9.57553 21.2194L9.57553 38.7916C9.57553 40.6361 8.08027 42.1314 6.23578 42.1314ZM86.389 77.6457C86.389 79.4902 87.8842 80.9854 89.7287 80.9854C91.5732 80.9854 93.0685 79.4902 93.0685 77.6457V60.0734C93.0685 58.2289 91.5732 56.7337 89.7287 56.7337C87.8842 56.7337 86.389 58.2289 86.389 60.0734V77.6457Z" fill="url(#paint0_linear_319_260)"/>
    <defs>
        <linearGradient id="paint0_linear_319_260" x1="101.068" y1="54.4207" x2="4.10223" y2="58.9092" gradientUnits="userSpaceOnUse">
            <stop stop-color="#00DEFC"/>
            <stop offset="1" stop-color="#BADAFF"/>
        </linearGradient>
    </defs>
</svg>
