<svg width="71" height="83" viewBox="0 0 71 83" fill="none" xmlns="http://www.w3.org/2000/svg">
    <path d="M36.5569 22.4123L39.1449 27.5776C39.205 27.6991 39.2945 27.8043 39.4054 27.884C39.5163 27.9636 39.6452 28.0153 39.7811 28.0346L45.5635 28.8609C45.7195 28.8835 45.866 28.9486 45.9864 29.0489C46.1069 29.1491 46.1965 29.2805 46.2453 29.4283C46.2941 29.5761 46.3 29.7343 46.2624 29.8852C46.2248 30.0361 46.1452 30.1737 46.0326 30.2824L41.8487 34.3131C41.7504 34.407 41.6769 34.5231 41.6346 34.6514C41.5923 34.7797 41.5825 34.9163 41.6061 35.0491L42.5928 40.7272C42.6193 40.8804 42.6018 41.0379 42.5423 41.1819C42.4829 41.3258 42.3838 41.4505 42.2563 41.542C42.1288 41.6334 41.9779 41.6879 41.8206 41.6994C41.6633 41.7108 41.5059 41.6787 41.3662 41.6067L36.193 38.9257C36.0716 38.8629 35.9365 38.8301 35.7994 38.8301C35.6623 38.8301 35.5272 38.8629 35.4058 38.9257L30.2326 41.6067C30.0929 41.6787 29.9355 41.7108 29.7782 41.6994C29.621 41.6879 29.4701 41.6334 29.3425 41.542C29.215 41.4505 29.1159 41.3258 29.0565 41.1819C28.997 41.0379 28.9796 40.8804 29.006 40.7272L29.9927 35.0491C30.0163 34.9163 30.0065 34.7797 29.9642 34.6514C29.9219 34.5231 29.8484 34.407 29.7501 34.3131L25.5662 30.2904C25.4536 30.1817 25.374 30.0441 25.3364 29.8932C25.2988 29.7423 25.3048 29.584 25.3535 29.4363C25.4023 29.2885 25.4919 29.1571 25.6124 29.0568C25.7329 28.9566 25.8793 28.8915 26.0353 28.8689L31.8177 28.0425C31.9536 28.0233 32.0826 27.9716 32.1934 27.8919C32.3043 27.8123 32.3938 27.7071 32.4539 27.5855L35.0419 22.4203C35.1106 22.2803 35.2178 22.1621 35.3513 22.0791C35.4847 21.9962 35.6391 21.9518 35.7969 21.9509C35.9547 21.9501 36.1095 21.9929 36.2439 22.0745C36.3782 22.156 36.4867 22.273 36.5569 22.4123Z" fill="#3A3A53"></path>
    <path d="M66.3402 16.03L67.4058 18.2898C67.4306 18.343 67.4674 18.389 67.5131 18.4238C67.5588 18.4587 67.6119 18.4813 67.6678 18.4897L70.0488 18.8512C70.113 18.8611 70.1734 18.8896 70.223 18.9335C70.2726 18.9773 70.3095 19.0348 70.3296 19.0995C70.3496 19.1641 70.3521 19.2334 70.3366 19.2994C70.3211 19.3654 70.2883 19.4256 70.242 19.4732L68.5192 21.2366C68.4787 21.2777 68.4484 21.3285 68.431 21.3846C68.4136 21.4407 68.4096 21.5005 68.4193 21.5586L68.8256 24.0428C68.8365 24.1098 68.8293 24.1787 68.8048 24.2417C68.7803 24.3046 68.7395 24.3592 68.687 24.3992C68.6345 24.4392 68.5724 24.4631 68.5076 24.4681C68.4429 24.4731 68.378 24.459 68.3205 24.4275L66.1904 23.2546C66.1404 23.2271 66.0848 23.2128 66.0283 23.2128C65.9718 23.2128 65.9162 23.2271 65.8662 23.2546L63.7361 24.4275C63.6785 24.459 63.6137 24.4731 63.549 24.4681C63.4842 24.4631 63.4221 24.4392 63.3696 24.3992C63.3171 24.3592 63.2763 24.3046 63.2518 24.2417C63.2273 24.1787 63.2201 24.1098 63.231 24.0428L63.6373 21.5586C63.647 21.5005 63.643 21.4407 63.6256 21.3846C63.6082 21.3285 63.5779 21.2777 63.5374 21.2366L61.8146 19.4766C61.7683 19.4291 61.7355 19.3689 61.72 19.3029C61.7045 19.2368 61.707 19.1676 61.727 19.103C61.7471 19.0383 61.784 18.9808 61.8336 18.937C61.8832 18.8931 61.9436 18.8646 62.0078 18.8547L64.3888 18.4932C64.4447 18.4848 64.4978 18.4622 64.5435 18.4273C64.5892 18.3925 64.626 18.3464 64.6508 18.2933L65.7164 16.0335C65.7447 15.9722 65.7888 15.9205 65.8438 15.8842C65.8987 15.8479 65.9623 15.8285 66.0273 15.8281C66.0922 15.8278 66.156 15.8465 66.2113 15.8822C66.2666 15.9178 66.3113 15.9691 66.3402 16.03Z" fill="#3A3A53"></path>
    <path d="M4.63123 38.2454L5.69686 40.5052C5.72164 40.5584 5.75847 40.6044 5.80413 40.6393C5.84979 40.6741 5.90289 40.6968 5.95882 40.7052L8.33983 41.0667C8.40406 41.0766 8.46437 41.1051 8.51397 41.1489C8.56357 41.1928 8.60049 41.2503 8.62057 41.3149C8.64065 41.3796 8.64308 41.4488 8.62761 41.5148C8.61213 41.5809 8.57936 41.641 8.53297 41.6886L6.81022 43.452C6.76973 43.4931 6.73946 43.5439 6.72205 43.6C6.70463 43.6562 6.7006 43.7159 6.71031 43.774L7.11659 46.2582C7.12749 46.3252 7.12029 46.3941 7.09581 46.4571C7.07133 46.5201 7.03054 46.5747 6.97803 46.6147C6.92552 46.6547 6.86338 46.6785 6.79863 46.6835C6.73387 46.6885 6.66906 46.6745 6.61152 46.643L4.48138 45.4701C4.43139 45.4426 4.37578 45.4282 4.31932 45.4282C4.26286 45.4282 4.20724 45.4426 4.15725 45.4701L2.02711 46.643C1.96956 46.6745 1.90476 46.6885 1.84 46.6835C1.77525 46.6785 1.71311 46.6547 1.66061 46.6147C1.6081 46.5747 1.5673 46.5201 1.54282 46.4571C1.51834 46.3941 1.51115 46.3252 1.52205 46.2582L1.92832 43.774C1.93803 43.7159 1.934 43.6562 1.91659 43.6C1.89917 43.5439 1.8689 43.4931 1.82842 43.452L0.105654 41.6921C0.0592727 41.6445 0.0265018 41.5843 0.0110262 41.5183C-0.00444942 41.4523 -0.00201239 41.3831 0.0180655 41.3184C0.0381433 41.2538 0.0750636 41.1963 0.124664 41.1524C0.174265 41.1086 0.234572 41.0801 0.298797 41.0702L2.67981 40.7087C2.73573 40.7002 2.78885 40.6776 2.83451 40.6428C2.88017 40.6079 2.91699 40.5619 2.94177 40.5087L4.0074 38.2489C4.0357 38.1877 4.07984 38.136 4.13479 38.0997C4.18974 38.0634 4.25331 38.0439 4.31828 38.0436C4.38325 38.0432 4.44701 38.0619 4.50233 38.0976C4.55765 38.1333 4.60231 38.1845 4.63123 38.2454Z" fill="#3A3A53"></path>
    <path d="M66.2074 27.0079L66.8163 28.2992C66.8305 28.3296 66.8515 28.3559 66.8776 28.3758C66.9037 28.3958 66.934 28.4087 66.966 28.4135L68.3266 28.6201C68.3633 28.6257 68.3977 28.642 68.4261 28.6671C68.4544 28.6921 68.4755 28.725 68.487 28.7619C68.4985 28.7989 68.4999 28.8384 68.491 28.8762C68.4822 28.9139 68.4635 28.9483 68.437 28.9755L67.4525 29.9831C67.4294 30.0066 67.4121 30.0356 67.4021 30.0677C67.3922 30.0998 67.3899 30.1339 67.3954 30.1671L67.6276 31.5867C67.6338 31.625 67.6297 31.6643 67.6157 31.7003C67.6017 31.7363 67.5784 31.7675 67.5484 31.7903C67.5184 31.8132 67.4829 31.8268 67.4459 31.8297C67.4089 31.8325 67.3719 31.8245 67.339 31.8065L66.1218 31.1363C66.0932 31.1206 66.0614 31.1124 66.0291 31.1124C65.9969 31.1124 65.9651 31.1206 65.9365 31.1363L64.7193 31.8065C64.6864 31.8245 64.6494 31.8325 64.6124 31.8297C64.5754 31.8268 64.5399 31.8132 64.5099 31.7903C64.4799 31.7675 64.4566 31.7363 64.4426 31.7003C64.4286 31.6643 64.4245 31.625 64.4307 31.5867L64.6629 30.1671C64.6684 30.1339 64.6661 30.0998 64.6562 30.0677C64.6462 30.0356 64.6289 30.0066 64.6058 29.9831L63.6213 28.9774C63.5948 28.9503 63.5761 28.9159 63.5673 28.8781C63.5584 28.8404 63.5598 28.8009 63.5713 28.7639C63.5828 28.727 63.6039 28.6941 63.6322 28.6691C63.6605 28.644 63.695 28.6277 63.7317 28.6221L65.0923 28.4155C65.1242 28.4107 65.1546 28.3977 65.1807 28.3778C65.2068 28.3579 65.2278 28.3316 65.242 28.3012L65.8509 27.0099C65.8671 26.9749 65.8923 26.9454 65.9237 26.9246C65.9551 26.9039 65.9914 26.8928 66.0286 26.8926C66.0657 26.8924 66.1021 26.9031 66.1337 26.9235C66.1653 26.9438 66.1909 26.9731 66.2074 27.0079Z" fill="#3A3A53"></path>
    <path d="M4.4984 49.2233L5.10733 50.5146C5.12149 50.545 5.14253 50.5713 5.16862 50.5912C5.19472 50.6111 5.22506 50.624 5.25702 50.6288L6.6176 50.8354C6.6543 50.8411 6.68876 50.8573 6.71711 50.8824C6.74545 50.9075 6.76655 50.9403 6.77802 50.9773C6.78949 51.0142 6.79089 51.0538 6.78204 51.0915C6.7732 51.1292 6.75447 51.1636 6.72797 51.1908L5.74353 52.1985C5.7204 52.2219 5.7031 52.251 5.69315 52.283C5.6832 52.3151 5.6809 52.3492 5.68645 52.3825L5.9186 53.802C5.92483 53.8403 5.92072 53.8797 5.90673 53.9156C5.89274 53.9516 5.86943 53.9828 5.83943 54.0057C5.80942 54.0285 5.77391 54.0422 5.73691 54.045C5.69991 54.0479 5.66287 54.0399 5.62999 54.0219L4.41277 53.3516C4.3842 53.3359 4.35243 53.3277 4.32016 53.3277C4.2879 53.3277 4.25612 53.3359 4.22755 53.3516L3.01033 54.0219C2.97745 54.0399 2.94041 54.0479 2.90341 54.045C2.86641 54.0422 2.8309 54.0285 2.8009 54.0057C2.77089 53.9828 2.74758 53.9516 2.73359 53.9156C2.7196 53.8797 2.71549 53.8403 2.72172 53.802L2.95388 52.3825C2.95942 52.3492 2.95713 52.3151 2.94717 52.283C2.93722 52.251 2.91992 52.2219 2.89679 52.1985L1.91235 51.1928C1.88585 51.1656 1.86712 51.1312 1.85828 51.0935C1.84944 51.0558 1.85083 51.0162 1.8623 50.9792C1.87378 50.9423 1.89487 50.9095 1.92322 50.8844C1.95156 50.8593 1.98602 50.8431 2.02272 50.8374L3.3833 50.6308C3.41526 50.626 3.44561 50.6131 3.4717 50.5932C3.49779 50.5732 3.51883 50.5469 3.53299 50.5166L4.14192 49.2252C4.1581 49.1902 4.18332 49.1607 4.21472 49.14C4.24612 49.1192 4.28245 49.1081 4.31957 49.1079C4.35669 49.1077 4.39313 49.1184 4.42474 49.1388C4.45635 49.1592 4.48187 49.1884 4.4984 49.2233Z" fill="#3A3A53"></path>
    <path fill-rule="evenodd" clip-rule="evenodd" d="M28.4055 0C27.0423 0 25.9372 1.10513 25.9372 2.46838C25.9372 3.83163 27.0423 4.93677 28.4055 4.93677H41.3931C42.7563 4.93677 43.8615 3.83163 43.8615 2.46838C43.8615 1.10513 42.7563 0 41.3931 0H28.4055ZM16.7819 52.5142L32.529 68.6928C33.3951 69.5818 34.5683 70.0811 35.7914 70.0811C37.0145 70.0811 38.1878 69.5818 39.0538 68.6928L54.8098 52.502C55.674 51.6142 56.1612 50.4099 56.1644 49.1531V14.3136C56.1644 13.0531 55.678 11.8443 54.8121 10.953C53.9463 10.0618 52.7719 9.56107 51.5474 9.56107H20.0443C18.8198 9.56107 17.6454 10.0618 16.7796 10.953C15.9137 11.8443 15.4272 13.0531 15.4272 14.3136V49.1652C15.4305 50.4221 15.9176 51.6263 16.7819 52.5142ZM51.2277 49.1044L42.4459 58.1286L35.7913 64.9666L29.1459 58.1409L20.364 49.1165V14.4978H51.2277V49.1044ZM17.6984 64.3158C18.6623 63.3518 20.2252 63.3518 21.1892 64.3158L34.055 77.1816C35.019 78.1456 36.5819 78.1456 37.5458 77.1816L50.4117 64.3158C51.3756 63.3518 52.9385 63.3518 53.9025 64.3158C54.8665 65.2797 54.8665 66.8426 53.9025 67.8066L41.0367 80.6724C38.1448 83.5643 33.4561 83.5643 30.5642 80.6724L17.6984 67.8066C16.7344 66.8426 16.7344 65.2797 17.6984 64.3158Z" fill="#3A3A53"></path>
    <path fill-rule="evenodd" clip-rule="evenodd" d="M4.31995 30.9093C2.9567 30.9093 1.85156 29.8042 1.85156 28.4409L1.85156 15.4534C1.85156 14.0901 2.95669 12.985 4.31994 12.985C5.6832 12.985 6.78833 14.0901 6.78833 15.4534L6.78833 28.4409C6.78833 29.8042 5.6832 30.9093 4.31995 30.9093Z" fill="#3A3A53"></path>
    <path fill-rule="evenodd" clip-rule="evenodd" d="M66.0294 59.626C64.6662 59.626 63.561 58.5208 63.561 57.1576L63.561 44.1701C63.561 42.8068 64.6662 41.7017 66.0294 41.7017C67.3927 41.7017 68.4978 42.8068 68.4978 44.1701L68.4978 57.1576C68.4978 58.5208 67.3927 59.626 66.0294 59.626Z" fill="#3A3A53"></path>
</svg>
