<svg width="88" height="47" viewBox="0 0 88 47" fill="none" xmlns="http://www.w3.org/2000/svg">
<g clip-path="url(#clip0_2_3235)">
<path d="M25.1481 1.59806V1.76619H23.2858C22.1643 1.76619 21.403 1.73929 21.3759 1.69894C21.3215 1.61152 -2.81422 1.65859 -4.15321 1.74602C-5.23391 1.82 -5.45821 1.89397 -5.73688 2.25713C-5.94078 2.52613 -5.93399 3.07087 -5.73008 3.35333C-5.4718 3.70976 -5.22032 3.78374 -4.25516 3.78374H-3.39875V25.0957V46.4077L-3.06571 46.2867C-2.88219 46.2127 -1.93063 45.6814 -0.945081 45.103C0.0404658 44.5247 1.32508 43.7715 1.90281 43.4285C2.48054 43.0922 3.52726 42.4735 4.22734 42.0633C4.92742 41.6463 5.60031 41.2495 5.72265 41.1823C5.845 41.115 6.63344 40.6577 7.46945 40.1668C8.8832 39.3329 9.00555 39.2723 9.18226 39.3396C9.35219 39.4068 10.528 40.0861 15.1227 42.7896C19.2688 45.2241 21.2127 46.3606 21.3011 46.3943C21.3962 46.4346 21.4098 44.4305 21.4234 25.1294L21.4438 3.81736L23.2994 3.79719L25.1481 3.78374V24.9679C25.1481 36.6159 25.1549 46.1522 25.1685 46.1522C25.2909 46.1522 26.0181 45.8025 26.5483 45.4931C26.9153 45.2712 27.6834 44.8273 28.2407 44.5045C28.8048 44.1817 29.4777 43.7849 29.736 43.6302C30.0011 43.4756 30.5924 43.1258 31.0614 42.8568C31.5304 42.5878 32.278 42.144 32.7266 41.8817C33.1752 41.6194 33.9093 41.189 34.3579 40.9267C34.8065 40.6644 35.7105 40.1399 36.363 39.7565C37.0155 39.3799 37.6 39.0706 37.6544 39.0706C37.7155 39.0773 38.2525 39.3665 38.8506 39.7162C41.1684 41.0747 46.334 44.0943 47.9992 45.0627C48.9576 45.6276 49.7868 46.1051 49.848 46.1253C49.9499 46.1656 49.9567 44.2557 49.9703 24.9948L49.9907 3.81736L52.0162 3.79719L54.0348 3.78374V24.9679C54.0348 36.6159 54.0484 46.1522 54.062 46.1522C54.2455 46.1522 55.1767 45.6209 63.3805 40.8191C66.2896 39.1177 66.4663 39.0168 66.5411 39.0571C66.5615 39.0639 69.3074 40.6644 72.6447 42.6147C75.982 44.565 78.7415 46.1387 78.7755 46.1185C78.823 46.0916 78.8434 38.7343 78.8434 24.9276V3.78374H79.5775C80.2028 3.78374 80.3388 3.76356 80.5698 3.62906C81.2563 3.24572 81.2359 2.34455 80.5427 1.94105C80.3659 1.83344 80.1484 1.79982 79.5435 1.77964C78.7891 1.75274 78.7755 1.74602 78.7755 1.59134V1.42994H66.4052H54.0348V1.59806V1.76619H51.9958H49.9567V1.59806V1.42994H37.5524H25.1481V1.59806Z" fill="url(#paint0_linear_2_3235)"/>
</g>
<defs>
<linearGradient id="paint0_linear_2_3235" x1="37.6044" y1="109.024" x2="37.6044" y2="-58.916" gradientUnits="userSpaceOnUse">
<stop offset="0.05" stop-color="#00DEFC"/>
<stop offset="0.95" stop-color="#BAFFD1"/>
</linearGradient>
<clipPath id="clip0_2_3235">
<rect width="87" height="46" fill="white" transform="translate(0.667969 0.0759277)"/>
</clipPath>
</defs>
</svg>
