<svg width="54" height="88" viewBox="0 0 54 88" fill="none" xmlns="http://www.w3.org/2000/svg">
<path d="M49.7613 37.4563H6.36807C5.19589 37.5846 3.50525 38.0337 2.19781 39.4664C1.13834 40.6212 0.80021 41.9043 0.6875 42.8453V47.4003C0.6875 49.2394 2.26544 50.7577 4.22659 50.7577C6.16519 50.7577 7.76568 49.2607 7.76568 47.4003V44.1711H14.4381V83.9044C14.4381 85.7435 16.016 87.2618 17.9772 87.2618C19.9158 87.2618 21.5163 85.7649 21.5163 83.9044V44.1497H33.4184V81.6376C33.5086 82.7496 33.9369 84.4818 35.5599 85.829C36.7772 86.8341 38.1297 87.1549 39.1215 87.2618H43.9229C45.8616 87.2618 47.462 85.7649 47.462 83.9044C47.462 82.0653 45.8841 80.5469 43.9229 80.5469H40.4966V44.1497H49.7838C51.7225 44.1497 53.3229 42.6528 53.3229 40.7923C53.3004 38.9532 51.7225 37.4563 49.7613 37.4563Z" fill="url(#paint0_linear_2_3234)"/>
<path d="M32.5279 18.8468C32.1772 19.5886 31.3509 20.1089 30.3861 20.1089C29.1048 20.1089 28.0681 19.1891 28.0681 18.0546C28.0681 16.92 29.1067 16.0003 30.3861 16.0003C30.7993 16.0003 31.186 16.0959 31.5214 16.2621L25.932 1.93071C26.6238 1.90218 27.2891 1.86022 27.9392 1.88707C28.2709 1.89547 28.631 1.91057 28.921 2.07337C29.2167 2.23113 29.3835 2.52652 29.4005 2.82023C29.4062 2.89408 29.4062 2.96793 29.4005 3.04178C29.3986 3.0787 29.3929 3.11562 29.3892 3.15255L29.3797 3.27507C29.374 3.44794 29.3873 3.61577 29.4346 3.78864C29.4801 3.95983 29.5616 4.1327 29.6867 4.28711C29.8099 4.44152 29.9862 4.56404 30.1757 4.6446C30.5624 4.80068 30.9699 4.80404 31.3395 4.74865C31.711 4.68991 32.0597 4.57411 32.3744 4.40459L32.3573 4.36767C32.001 4.41466 31.6503 4.44319 31.3111 4.44152C30.9756 4.4348 30.6439 4.39452 30.3861 4.272C30.1264 4.1562 29.9407 3.95647 29.8384 3.6913C29.7853 3.56038 29.7587 3.41269 29.736 3.27171L29.7227 3.1559C29.7171 3.11394 29.7114 3.07199 29.7019 3.03171C29.6867 2.94779 29.6659 2.86555 29.6374 2.78331C29.4233 2.11365 28.7106 1.70078 27.9771 1.56651C27.6037 1.50777 27.2303 1.53294 26.8702 1.59001C26.5347 1.64539 26.2068 1.73267 25.9036 1.86861L25.8391 1.70581L23.5078 8.19598C23.8679 7.93415 24.3304 7.77807 24.8327 7.77807C25.9907 7.77807 26.9309 8.60885 26.9309 9.63432C26.9309 10.6598 25.9926 11.4922 24.8327 11.4922C23.866 11.4922 23.0567 10.9132 22.8122 10.1278L18.7675 21.366C19.192 20.9195 19.8289 20.6359 20.5397 20.6359C21.8209 20.6359 22.8596 21.5556 22.8596 22.6902C22.8596 23.8247 21.8209 24.7445 20.5397 24.7445C19.3228 24.7445 18.3278 23.9154 18.2292 22.8614L16.2751 28.2925L18.4055 28.0189L19.4574 26.1325L20.5093 28.0189L22.8596 28.321L21.1594 29.7896L21.5613 31.864L19.4574 30.8855L17.3554 31.864L17.7554 29.7896L16.2144 28.4603L12.9771 37.4579H39.7815L32.5279 18.8468ZM29.2489 23.7693C29.8554 23.7693 30.3482 24.2057 30.3482 24.7411C30.3482 25.2799 29.8554 25.7145 29.2489 25.7145C28.6424 25.7145 28.1515 25.2782 28.1515 24.7411C28.1515 24.2057 28.6424 23.7693 29.2489 23.7693ZM27.0711 12.6335C27.4521 12.6335 27.7629 12.9071 27.7629 13.2461C27.7629 13.5851 27.454 13.8587 27.0711 13.8587C26.6882 13.8587 26.3793 13.5851 26.3793 13.2461C26.3793 12.9071 26.6882 12.6335 27.0711 12.6335ZM24.8327 13.6623C25.5624 13.6623 26.1537 14.186 26.1537 14.8322C26.1537 15.4783 25.5605 16.002 24.8327 16.002C24.1049 16.002 23.5116 15.4766 23.5116 14.8322C23.5116 14.1877 24.1049 13.6623 24.8327 13.6623ZM24.3456 17.7961L24.8327 16.9217L25.3198 17.7961L26.4115 17.9354L25.623 18.6185L25.8088 19.5802L24.8327 19.1254L23.8566 19.5802L24.0423 18.6185L23.2538 17.9354L24.3456 17.7961ZM24.3456 22.9604L24.8327 22.0843L25.3198 22.9604L26.4115 23.1014L25.623 23.7828L25.8088 24.7445L24.8327 24.2896L23.8566 24.7445L24.0423 23.7828L23.2538 23.1014L24.3456 22.9604ZM24.8327 35.6403C23.4509 35.6403 22.3327 34.6484 22.3327 33.4249C22.3327 32.203 23.4528 31.2111 24.8327 31.2111C26.2125 31.2111 27.3327 32.2047 27.3327 33.4249C27.3346 34.6484 26.2125 35.6403 24.8327 35.6403ZM28.5097 31.4058L27.5355 31.8606L27.7193 30.899L26.9309 30.2175L28.0207 30.0782L28.5097 29.2021L28.9987 30.0782L30.0904 30.2175L29.302 30.899L29.4877 31.8606L28.5097 31.4058ZM31.3205 36.4677C30.5548 36.4677 29.9369 35.9172 29.9369 35.2408C29.9369 34.5645 30.5567 34.0156 31.3205 34.0156C32.0844 34.0156 32.7042 34.5645 32.7042 35.2408C32.7042 35.9172 32.0863 36.4677 31.3205 36.4677ZM33.142 31.2111C31.7603 31.2111 30.6401 30.2192 30.6401 28.9957C30.6401 27.7739 31.7603 26.782 33.142 26.782C34.5218 26.782 35.6439 27.7739 35.6439 28.9957C35.6439 30.2192 34.5237 31.2111 33.142 31.2111ZM27.8084 1.0865C28.1515 1.10832 28.4832 1.21574 28.7675 1.38357C29.0594 1.5514 29.2868 1.77462 29.5275 2.02134C29.7644 2.26302 29.9919 2.51142 30.2212 2.76317C30.46 3.00989 30.6875 3.26332 31.0192 3.47647C31.1026 3.53017 31.1973 3.58052 31.3111 3.61577C31.4248 3.65101 31.5783 3.66948 31.7167 3.61913C31.8531 3.57045 31.9403 3.48822 32.0067 3.40933C32.073 3.33045 32.1147 3.24989 32.1526 3.16933C32.3004 2.84709 32.3516 2.52317 32.3895 2.19757L32.3459 2.18918C32.1943 2.48456 32.0521 2.78667 31.8759 3.04513C31.7868 3.16765 31.6731 3.28346 31.5916 3.29185C31.5556 3.29688 31.5196 3.29185 31.4627 3.27003C31.4077 3.24653 31.3471 3.20793 31.2883 3.16429C31.0438 2.97968 30.7993 2.73632 30.551 2.50638L29.7891 1.80819C29.5389 1.57826 29.2565 1.33322 28.921 1.16706C28.5874 0.994194 28.2026 0.891815 27.8179 0.890137C27.4312 0.890137 27.0597 0.980767 26.7262 1.12511C26.3926 1.26944 26.0893 1.46077 25.8277 1.69239L25.8581 1.71924C26.4077 1.31476 27.1147 1.03615 27.8084 1.0865Z" fill="url(#paint1_linear_2_3234)"/>
<defs>
<linearGradient id="paint0_linear_2_3234" x1="26.3826" y1="-50.0185" x2="26.3826" y2="86.5203" gradientUnits="userSpaceOnUse">
<stop offset="0.05" stop-color="#00DEFC"/>
<stop offset="0.95" stop-color="#BAFFD1"/>
</linearGradient>
<linearGradient id="paint1_linear_2_3234" x1="26.3826" y1="-50.0185" x2="26.3826" y2="86.5203" gradientUnits="userSpaceOnUse">
<stop offset="0.05" stop-color="#00DEFC"/>
<stop offset="0.95" stop-color="#BAFFD1"/>
</linearGradient>
</defs>
</svg>
