<svg width="73" height="73" viewBox="0 0 73 73" fill="none" xmlns="http://www.w3.org/2000/svg">
<g clip-path="url(#clip0_2_3238)">
<path d="M35.0002 13.1288C38.6565 11.88 44.1043 10.8788 51.1988 10.8788C65.1742 10.8788 72.7988 14.7699 72.7988 16.7696C72.7988 18.7693 65.1742 22.6603 51.1988 22.6603C49.4973 22.6603 47.8942 22.6013 46.3838 22.4958C43.5281 18.3812 39.5877 15.1388 35.0002 13.1288ZM50.8332 42.2902C50.613 43.6159 50.2933 44.9232 49.877 46.201C50.3143 46.2094 50.7531 46.215 51.1932 46.215C59.8402 46.215 67.9585 44.7132 72.7932 42.2564V38.7197C67.3567 40.9824 59.5857 42.2944 51.1932 42.2944L50.8332 42.2902ZM48.2738 50.0935C47.5974 51.4266 46.8114 52.7013 45.924 53.9044C47.5918 54.0141 49.3496 54.076 51.1974 54.076C61.6149 54.076 69.3043 52.1789 72.7974 50.1483V46.5736C67.3609 48.8363 59.5899 50.1483 51.1974 50.1483C50.214 50.1483 49.2395 50.13 48.2738 50.0935ZM50.9738 34.4377C51.1214 35.5779 51.1965 36.7263 51.1988 37.876C51.1988 38.0405 51.189 38.2036 51.1862 38.3668H51.1988C59.8459 38.3668 67.9642 36.8649 72.7988 34.4082V30.8644C67.3623 33.1271 59.5913 34.4391 51.1988 34.4391L50.9738 34.4377ZM48.7027 26.5374C49.2957 27.8181 49.7866 29.1436 50.1709 30.5016C50.5126 30.5016 50.8543 30.5128 51.1988 30.5128C59.8459 30.5128 67.9642 29.011 72.7988 26.5543V22.2511C68.0303 25.11 59.5801 26.5852 51.1988 26.5852C50.3663 26.5852 49.5324 26.5669 48.7027 26.5374ZM47.5988 37.876C47.5988 42.5041 46.2265 47.0282 43.6552 50.8763C41.084 54.7244 37.4294 57.7237 33.1536 59.4948C28.8778 61.2658 24.1729 61.7292 19.6337 60.8263C15.0946 59.9235 10.9251 57.6948 7.65254 54.4223C4.37999 51.1497 2.15136 46.9802 1.24846 42.4411C0.345569 37.9019 0.808967 33.197 2.58006 28.9212C4.35115 24.6454 7.35039 20.9908 11.1985 18.4196C15.0466 15.8484 19.5708 14.476 24.1988 14.476C30.4049 14.476 36.3568 16.9413 40.7451 21.3297C45.1335 25.718 47.5988 31.6699 47.5988 37.876ZM31.2779 41.2313C31.382 38.9813 30.2556 37.6144 29.0757 36.9057C28.6364 36.6341 28.1585 36.4307 27.6582 36.3024C26.6776 36.0539 25.6781 35.8874 24.6699 35.8046C22.652 35.595 21.5509 35.228 21.5509 34.2577C21.5509 33.1327 22.337 32.7375 24.1988 32.7375C25.6402 32.7375 26.3223 33.2353 26.8454 34.2577C27.2392 34.9918 27.5795 35.1014 28.2882 34.7822L30.0981 33.9666C30.9109 33.6263 31.0951 33.2325 30.7013 32.4985C29.8098 30.5846 28.3107 29.4582 26.1929 29.0911V28.0153C26.1929 27.3122 25.9567 27.0718 25.2226 27.0718H23.2299C22.5268 27.0718 22.2596 27.308 22.2596 28.0153V29.0911C19.0098 29.6185 17.252 31.5057 17.252 34.2591C17.252 35.9621 17.934 37.2994 18.7468 38.0068C19.2191 38.4213 19.7721 38.7335 20.371 38.9236C21.7084 39.4482 22.4692 39.5255 23.9373 39.7097C26.0073 39.9193 27.031 40.2596 27.031 41.3086C27.031 42.4336 26.0354 42.9877 24.0427 42.9877C22.5479 42.9877 21.579 42.4632 21.1585 41.3888C20.8182 40.6294 20.4554 40.4705 19.6904 40.7588L17.9073 41.3888C17.2004 41.6503 16.966 42.1219 17.2042 42.8035C18.0156 44.9536 19.6932 46.2375 22.2667 46.6313V47.7057C22.2667 48.4397 22.5282 48.676 23.237 48.676H25.2296C25.9637 48.676 26.1999 48.4397 26.1999 47.7057V46.5807C29.4427 45.976 31.2779 44.0353 31.2779 41.2313Z" fill="url(#paint0_linear_2_3238)"/>
</g>
<defs>
<linearGradient id="paint0_linear_2_3238" x1="36.8077" y1="-59.2828" x2="36.8077" y2="128.893" gradientUnits="userSpaceOnUse">
<stop offset="0.05" stop-color="#00DEFC"/>
<stop offset="0.95" stop-color="#BAFFD1"/>
</linearGradient>
<clipPath id="clip0_2_3238">
<rect width="72" height="72" fill="white" transform="translate(0.798828 0.0759277)"/>
</clipPath>
</defs>
</svg>
