<svg width="58" height="55" viewBox="0 0 58 55" fill="none" xmlns="http://www.w3.org/2000/svg">
<path d="M9.71614 0.0600586C14.5698 0.0600586 18.5026 3.8056 18.5026 8.42811C18.5026 13.0506 14.5698 16.7962 9.71614 16.7962C4.8625 16.7962 0.929688 13.0506 0.929688 8.42811C0.929688 3.8056 4.8625 0.0600586 9.71614 0.0600586Z" fill="url(#paint0_linear_2_464)"/>
<path d="M9.7162 37.7805C14.5698 37.7805 18.5027 41.5261 18.5027 46.1486C18.5027 50.7711 14.5698 54.5166 9.7162 54.5166C4.86257 54.5166 0.929749 50.7711 0.929749 46.1486C0.929749 41.5261 4.86257 37.7805 9.7162 37.7805Z" fill="url(#paint1_linear_2_464)"/>
<path d="M48.2735 37.7805C53.1271 37.7805 57.0599 41.5261 57.0599 46.1486C57.0599 50.7711 53.1271 54.5166 48.2735 54.5166C43.4198 54.5166 39.487 50.7711 39.487 46.1486C39.487 41.5261 43.4198 37.7805 48.2735 37.7805Z" fill="url(#paint2_linear_2_464)"/>
<path d="M48.2735 0.0600586C53.1271 0.0600586 57.0599 3.8056 57.0599 8.42811C57.0599 13.0506 53.1271 16.7962 48.2735 16.7962C43.4198 16.7962 39.487 13.0506 39.487 8.42811C39.487 3.8056 43.4198 0.0600586 48.2735 0.0600586Z" fill="url(#paint3_linear_2_464)"/>
<defs>
<linearGradient id="paint0_linear_2_464" x1="9.7183" y1="-23.2395" x2="9.7183" y2="39.2507" gradientUnits="userSpaceOnUse">
<stop offset="0.05" stop-color="#00DEFC"/>
<stop offset="0.95" stop-color="#BAFFD1"/>
</linearGradient>
<linearGradient id="paint1_linear_2_464" x1="9.71836" y1="14.481" x2="9.71836" y2="76.9712" gradientUnits="userSpaceOnUse">
<stop offset="0.05" stop-color="#00DEFC"/>
<stop offset="0.95" stop-color="#BAFFD1"/>
</linearGradient>
<linearGradient id="paint2_linear_2_464" x1="48.2756" y1="14.481" x2="48.2756" y2="76.9712" gradientUnits="userSpaceOnUse">
<stop offset="0.05" stop-color="#00DEFC"/>
<stop offset="0.95" stop-color="#BAFFD1"/>
</linearGradient>
<linearGradient id="paint3_linear_2_464" x1="48.2756" y1="-23.2395" x2="48.2756" y2="39.2507" gradientUnits="userSpaceOnUse">
<stop offset="0.05" stop-color="#00DEFC"/>
<stop offset="0.95" stop-color="#BAFFD1"/>
</linearGradient>
</defs>
</svg>
