<svg width="1512" height="3341" viewBox="0 0 1512 3341" fill="none" xmlns="http://www.w3.org/2000/svg">
<path fill-rule="evenodd" clip-rule="evenodd" d="M87.9085 1305.99C170.185 1353.5 196.399 1462.06 146.472 1548.53C96.546 1635.01 -10.576 1666.58 -92.8529 1619.08C-175.13 1571.58 -201.343 1463.02 -151.417 1376.54C-101.49 1290.07 5.63157 1258.49 87.9085 1305.99ZM-55.1454 1897.74C-5.2191 1811.27 -31.4322 1702.71 -113.709 1655.21C-195.986 1607.7 -303.108 1639.28 -353.034 1725.76C-402.961 1812.23 -376.748 1920.79 -294.471 1968.29C-212.194 2015.8 -105.072 1984.22 -55.1454 1897.74ZM-322.282 2016.47C-240.005 2063.97 -213.792 2172.53 -263.718 2259C-313.645 2345.48 -420.767 2377.06 -503.044 2329.55C-585.321 2282.05 -611.534 2173.49 -561.607 2087.02C-511.681 2000.54 -404.559 1968.96 -322.282 2016.47ZM-95.7257 2444.3C-66.922 2394.41 -82.045 2331.78 -129.512 2304.37C-176.98 2276.97 -238.781 2295.19 -267.585 2345.07C-296.388 2394.96 -281.265 2457.59 -233.798 2485C-186.33 2512.41 -124.529 2494.19 -95.7257 2444.3ZM566.95 2037.48L665.42 1866.88C719.815 1772.63 699.727 1659.24 620.669 1613.61C541.611 1567.98 433.373 1607.31 378.978 1701.55L280.508 1872.16L423.729 1954.82L566.95 2037.48ZM566.944 2037.49L370.006 2378.7L370.006 2378.7L271.537 2549.3C217.143 2643.54 108.962 2682.91 29.8468 2637.24C-49.2684 2591.58 -69.2991 2478.22 -14.9046 2383.98L83.5635 2213.38L83.5628 2213.37L280.502 1872.16L566.944 2037.49ZM873.39 2803.12C950.199 2670.08 904.743 2500.11 771.834 2423.37C638.925 2346.64 468.994 2392.26 392.184 2525.3C315.375 2658.33 360.831 2828.31 493.74 2905.05C626.649 2981.78 796.58 2936.16 873.39 2803.12ZM1298.87 2727.65C1431.78 2804.39 1477.23 2974.36 1400.42 3107.4C1323.61 3240.44 1153.68 3286.06 1020.77 3209.33C887.866 3132.59 842.41 2962.62 919.219 2829.58C996.029 2696.54 1165.96 2650.92 1298.87 2727.65ZM1713.28 2565.52C1790.09 2432.48 1744.63 2262.51 1611.72 2185.77C1478.82 2109.04 1308.88 2154.66 1232.07 2287.7C1155.26 2420.74 1200.72 2590.71 1333.63 2667.45C1466.54 2744.18 1636.47 2698.56 1713.28 2565.52Z" fill="url(#paint0_linear_81_3)"/>
<path fill-rule="evenodd" clip-rule="evenodd" d="M-503.552 1019.35C-421.275 971.848 -314.153 1003.43 -264.227 1089.9C-214.301 1176.38 -240.514 1284.94 -322.791 1332.44C-405.068 1379.94 -512.19 1348.36 -562.116 1261.89C-612.042 1175.41 -585.829 1066.85 -503.552 1019.35ZM-62.6087 1439.11C-112.535 1352.64 -219.657 1321.06 -301.934 1368.56C-384.211 1416.07 -410.424 1524.63 -360.498 1611.1C-310.571 1697.58 -203.449 1729.15 -121.172 1681.65C-38.8955 1634.15 -12.6824 1525.59 -62.6087 1439.11ZM-93.3599 1729.82C-11.0829 1682.32 96.039 1713.9 145.965 1800.37C195.892 1886.85 169.679 1995.41 87.4016 2042.91C5.12468 2090.41 -101.997 2058.84 -151.924 1972.36C-201.85 1885.89 -175.637 1777.33 -93.3599 1729.82ZM252.359 1706.83C299.827 1679.43 361.628 1697.65 390.432 1747.54C419.235 1797.42 404.112 1860.06 356.645 1887.46C309.177 1914.87 247.376 1896.65 218.573 1846.76C189.769 1796.87 204.892 1734.24 252.359 1706.83ZM369.457 970.234L270.943 799.654C216.524 705.425 108.277 666.124 29.2322 711.776C-49.8126 757.427 -69.8701 870.83 -15.4509 965.058L83.0631 1135.64L226.26 1052.94L369.457 970.234ZM369.457 970.241L566.484 1311.4L566.484 1311.4L664.998 1481.98C719.417 1576.21 699.416 1689.57 620.314 1735.26C541.212 1780.94 433.022 1741.61 378.604 1647.38L280.091 1476.8L280.091 1476.81L83.0629 1135.65L369.457 970.241ZM806.088 985.743C938.997 909.008 1108.93 954.63 1185.74 1087.67C1262.55 1220.71 1217.09 1390.68 1084.18 1467.42C951.274 1544.15 781.343 1498.53 704.533 1365.49C627.723 1232.45 673.179 1062.48 806.088 985.743ZM1712.77 783.384C1635.96 650.345 1466.03 604.724 1333.12 681.459C1200.21 758.194 1154.76 928.169 1231.57 1061.21C1308.38 1194.25 1478.31 1239.87 1611.22 1163.13C1744.13 1086.4 1789.58 916.422 1712.77 783.384Z" fill="url(#paint1_linear_81_3)"/>
<defs>
<linearGradient id="paint0_linear_81_3" x1="1611.72" y1="2185.77" x2="-336.547" y2="2676.94" gradientUnits="userSpaceOnUse">
<stop stop-color="#212130"/>
<stop offset="1" stop-color="#1C1C28" stop-opacity="0"/>
</linearGradient>
<linearGradient id="paint1_linear_81_3" x1="1020.27" y1="139.577" x2="471.493" y2="2072.41" gradientUnits="userSpaceOnUse">
<stop stop-color="#212130"/>
<stop offset="1" stop-color="#1C1C28" stop-opacity="0"/>
</linearGradient>
</defs>
</svg>
