<svg width="96" height="113" viewBox="0 0 96 113" fill="none" xmlns="http://www.w3.org/2000/svg">
    <path fill-rule="evenodd" clip-rule="evenodd" d="M38.8239 0.310547C36.9794 0.310547 35.4842 1.8058 35.4842 3.6503C35.4842 5.49479 36.9794 6.99005 38.8239 6.99005H56.3962C58.2407 6.99005 59.736 5.49479 59.736 3.6503C59.736 1.8058 58.2407 0.310547 56.3962 0.310547H38.8239ZM23.097 71.3629L44.403 93.2526C45.5748 94.4555 47.1622 95.131 48.8171 95.131C50.472 95.131 52.0594 94.4555 53.2312 93.2526L74.5492 71.3464C75.7185 70.1451 76.3776 68.5157 76.382 66.8152V19.677C76.382 17.9716 75.7239 16.336 74.5524 15.1301C73.3808 13.9243 71.7919 13.2468 70.1351 13.2468H27.5111C25.8543 13.2468 24.2654 13.9243 23.0938 15.1301C21.9223 16.336 21.2641 17.9716 21.2641 19.677V66.8317C21.2686 68.5322 21.9277 70.1616 23.097 71.3629ZM69.7025 66.7493L57.8207 78.9592L48.817 88.2112L39.8256 78.9758L27.9436 66.7658V19.9263H69.7025V66.7493ZM24.337 87.3306C25.6413 86.0263 27.7559 86.0263 29.0601 87.3306L46.4678 104.738C47.772 106.042 49.8866 106.042 51.1909 104.738L68.5985 87.3306C69.9027 86.0263 72.0174 86.0263 73.3216 87.3306C74.6259 88.6348 74.6259 90.7494 73.3216 92.0537L55.914 109.461C52.0012 113.374 45.6574 113.374 41.7446 109.461L24.337 92.0537C23.0328 90.7494 23.0328 88.6348 24.337 87.3306ZM6.23578 42.1314C4.39129 42.1314 2.89603 40.6361 2.89603 38.7916L2.89603 21.2194C2.89603 19.3749 4.39128 17.8796 6.23578 17.8796C8.08027 17.8796 9.57553 19.3749 9.57553 21.2194L9.57553 38.7916C9.57553 40.6361 8.08027 42.1314 6.23578 42.1314ZM86.389 77.6457C86.389 79.4902 87.8842 80.9854 89.7287 80.9854C91.5732 80.9854 93.0685 79.4902 93.0685 77.6457V60.0734C93.0685 58.2289 91.5732 56.7337 89.7287 56.7337C87.8842 56.7337 86.389 58.2289 86.389 60.0734V77.6457Z" fill="url(#paint0_linear_319_260)"/>
    <defs>
        <linearGradient id="paint0_linear_319_260" x1="101.068" y1="54.4207" x2="4.10223" y2="58.9092" gradientUnits="userSpaceOnUse">
            <stop stop-color="#00DEFC"/>
            <stop offset="1" stop-color="#BADAFF"/>
        </linearGradient>
    </defs>
</svg>
