<svg width="34" height="51" viewBox="0 0 34 51" fill="none" xmlns="http://www.w3.org/2000/svg">
    <path fill-rule="evenodd" clip-rule="evenodd" d="M32.4057 35.7728C33.1059 35.0534 33.5006 34.0776 33.5033 33.0593V4.83067C33.5033 3.80941 33.1091 2.82997 32.4076 2.10783C31.706 1.38568 30.7545 0.97998 29.7623 0.97998H4.23706C3.24489 0.97998 2.29337 1.38568 1.5918 2.10783C0.890234 2.82997 0.496094 3.80941 0.496094 4.83067V33.0691C0.498743 34.0875 0.893439 35.0632 1.5937 35.7826L14.3527 48.8912C15.0545 49.6116 16.0051 50.0161 16.9961 50.0161C17.9871 50.0161 18.9377 49.6116 19.6395 48.8912L32.4057 35.7728ZM16.996 45.8722L22.3878 40.3317L29.5033 33.0198V4.97998H4.49609V33.0297L11.6109 40.3409L16.996 45.8722Z" fill="url(#paint0_linear_834_60)"/>
    <defs>
        <linearGradient id="paint0_linear_834_60" x1="36.4313" y1="24.6526" x2="0.914851" y2="26.0282" gradientUnits="userSpaceOnUse">
            <stop stop-color="#00DEFC"/>
            <stop offset="1" stop-color="#BADAFF"/>
        </linearGradient>
    </defs>
</svg>
