<svg width="34" height="69" viewBox="0 0 34 69" fill="none" xmlns="http://www.w3.org/2000/svg">
    <g clip-path="url(#clip0_834_66)">
        <path d="M17.617 19.0538L19.7139 23.2389C19.7626 23.3374 19.8351 23.4226 19.925 23.4872C20.0148 23.5517 20.1193 23.5936 20.2294 23.6092L24.9146 24.2787C25.041 24.2971 25.1596 24.3498 25.2572 24.431C25.3548 24.5122 25.4275 24.6187 25.467 24.7385C25.5065 24.8582 25.5113 24.9864 25.4809 25.1087C25.4504 25.231 25.3859 25.3424 25.2946 25.4305L21.9047 28.6964C21.825 28.7724 21.7655 28.8665 21.7312 28.9705C21.6969 29.0744 21.689 29.1851 21.7081 29.2927L22.5075 33.8934C22.529 34.0175 22.5148 34.1451 22.4667 34.2617C22.4185 34.3784 22.3382 34.4794 22.2349 34.5535C22.1316 34.6276 22.0093 34.6718 21.8819 34.681C21.7545 34.6903 21.6269 34.6643 21.5137 34.606L17.3221 32.4337C17.2238 32.3828 17.1143 32.3562 17.0032 32.3562C16.8921 32.3562 16.7827 32.3828 16.6843 32.4337L12.4928 34.606C12.3795 34.6643 12.252 34.6903 12.1246 34.681C11.9972 34.6718 11.8749 34.6276 11.7716 34.5535C11.6683 34.4794 11.588 34.3784 11.5398 34.2617C11.4916 34.1451 11.4775 34.0175 11.4989 33.8934L12.2984 29.2927C12.3175 29.1851 12.3096 29.0744 12.2753 28.9705C12.241 28.8665 12.1815 28.7724 12.1018 28.6964L8.71184 25.437C8.62057 25.3489 8.55609 25.2374 8.52563 25.1151C8.49518 24.9929 8.49998 24.8646 8.53949 24.7449C8.57899 24.6252 8.65164 24.5187 8.74925 24.4375C8.84685 24.3563 8.96551 24.3035 9.09189 24.2852L13.7771 23.6156C13.8872 23.6001 13.9917 23.5582 14.0815 23.4936C14.1714 23.4291 14.2438 23.3438 14.2926 23.2454L16.3895 19.0602C16.4452 18.9468 16.532 18.851 16.6401 18.7838C16.7483 18.7166 16.8734 18.6806 17.0012 18.6799C17.129 18.6793 17.2545 18.7139 17.3634 18.78C17.4722 18.8461 17.5601 18.9409 17.617 19.0538Z" fill="white"/>
    </g>
    <path fill-rule="evenodd" clip-rule="evenodd" d="M11.0117 0.894043C9.90715 0.894043 9.01172 1.78947 9.01172 2.89404C9.01172 3.99861 9.90715 4.89404 11.0117 4.89404H21.5348C22.6394 4.89404 23.5348 3.99861 23.5348 2.89404C23.5348 1.78947 22.6394 0.894043 21.5348 0.894043H11.0117ZM1.5937 43.4435L14.3527 56.5521C15.0545 57.2725 16.0051 57.677 16.9961 57.677C17.9871 57.677 18.9377 57.2725 19.6395 56.5521L32.4057 43.4336C33.1059 42.7143 33.5006 41.7385 33.5033 40.7202V12.4916C33.5033 11.4703 33.1091 10.4909 32.4076 9.76871C31.706 9.04657 30.7545 8.64087 29.7623 8.64087H4.23706C3.24489 8.64087 2.29337 9.04657 1.5918 9.76871C0.890234 10.4909 0.496094 11.4703 0.496094 12.4916V40.73C0.498743 41.7484 0.893439 42.7241 1.5937 43.4435ZM29.5033 40.6807L22.3879 47.9926L16.996 53.5331L11.6116 48.0025L4.49609 40.6906V12.6409H29.5033V40.6807ZM2.33627 53.0057C3.11732 52.2247 4.38365 52.2247 5.1647 53.0057L15.5892 63.4302C16.3702 64.2113 17.6366 64.2113 18.4176 63.4302L28.8421 53.0057C29.6232 52.2247 30.8895 52.2247 31.6705 53.0057C32.4516 53.7868 32.4516 55.0531 31.6705 55.8341L21.2461 66.2586C18.9029 68.6018 15.1039 68.6018 12.7608 66.2586L2.33627 55.8341C1.55523 55.0531 1.55523 53.7868 2.33627 53.0057Z" fill="url(#paint0_linear_834_66)"/>
    <defs>
        <linearGradient id="paint0_linear_834_66" x1="36.4313" y1="33.2977" x2="0.890028" y2="34.3034" gradientUnits="userSpaceOnUse">
            <stop stop-color="#00DEFC"/>
            <stop offset="1" stop-color="#BADAFF"/>
        </linearGradient>
        <clipPath id="clip0_834_66">
            <rect width="17" height="16" fill="white" transform="translate(8.50391 18.677)"/>
        </clipPath>
    </defs>
</svg>
