<svg width="41" height="83" viewBox="0 0 41 83" fill="none" xmlns="http://www.w3.org/2000/svg">
    <path d="M21.1292 22.4124L23.7171 27.5777C23.7773 27.6992 23.8667 27.8044 23.9776 27.8841C24.0885 27.9637 24.2175 28.0155 24.3533 28.0347L30.1358 28.861C30.2918 28.8837 30.4382 28.9488 30.5587 29.049C30.6791 29.1492 30.7688 29.2807 30.8176 29.4284C30.8663 29.5762 30.8723 29.7344 30.8347 29.8854C30.7971 30.0363 30.7175 30.1738 30.6048 30.2825L26.421 34.3133C26.3227 34.4071 26.2492 34.5232 26.2069 34.6515C26.1646 34.7798 26.1548 34.9164 26.1784 35.0493L27.165 40.7273C27.1915 40.8806 27.174 41.038 27.1146 41.182C27.0551 41.3259 26.9561 41.4507 26.8285 41.5421C26.701 41.6335 26.5501 41.688 26.3929 41.6995C26.2356 41.7109 26.0782 41.6788 25.9384 41.6068L20.7652 38.9259C20.6439 38.863 20.5088 38.8302 20.3717 38.8302C20.2346 38.8302 20.0995 38.863 19.9781 38.9259L14.8049 41.6068C14.6651 41.6788 14.5077 41.7109 14.3505 41.6995C14.1932 41.688 14.0423 41.6335 13.9148 41.5421C13.7873 41.4507 13.6882 41.3259 13.6288 41.182C13.5693 41.038 13.5518 40.8806 13.5783 40.7273L14.565 35.0493C14.5885 34.9164 14.5788 34.7798 14.5365 34.6515C14.4942 34.5232 14.4207 34.4071 14.3223 34.3133L10.1385 30.2905C10.0259 30.1818 9.94627 30.0442 9.90868 29.8933C9.8711 29.7424 9.87702 29.5842 9.92578 29.4364C9.97454 29.2886 10.0642 29.1572 10.1847 29.057C10.3051 28.9567 10.4516 28.8916 10.6076 28.869L16.39 28.0427C16.5258 28.0234 16.6548 27.9717 16.7657 27.8921C16.8766 27.8124 16.966 27.7072 17.0262 27.5857L19.6142 22.4204C19.6829 22.2804 19.7901 22.1622 19.9235 22.0793C20.057 21.9963 20.2114 21.9519 20.3692 21.9511C20.5269 21.9502 20.6818 21.993 20.8161 22.0746C20.9505 22.1561 21.0589 22.2732 21.1292 22.4124Z" fill="#3A3A53"></path>
    <path fill-rule="evenodd" clip-rule="evenodd" d="M12.9783 0C11.615 0 10.5099 1.10513 10.5099 2.46838C10.5099 3.83163 11.615 4.93677 12.9783 4.93677H25.9658C27.3291 4.93677 28.4342 3.83163 28.4342 2.46838C28.4342 1.10513 27.3291 0 25.9658 0H12.9783ZM1.35466 52.5142L17.1018 68.6928C17.9678 69.5818 19.141 70.0811 20.3642 70.0811C21.5873 70.0811 22.7605 69.5818 23.6266 68.6928L39.3825 52.502C40.2468 51.6142 40.7339 50.4099 40.7372 49.1531V14.3136C40.7372 13.0531 40.2508 11.8443 39.3849 10.953C38.519 10.0618 37.3447 9.56107 36.1201 9.56107H4.61706C3.39254 9.56107 2.21818 10.0618 1.35231 10.953C0.486444 11.8443 0 13.0531 0 14.3136V49.1652C0.00326993 50.4221 0.490401 51.6263 1.35466 52.5142ZM35.8004 49.1044L27.0186 58.1286L20.3641 64.9666L13.7186 58.1409L4.93677 49.1165V14.4978H35.8004V49.1044ZM2.27114 64.3158C3.2351 63.3518 4.79799 63.3518 5.76196 64.3158L18.6278 77.1816C19.5917 78.1456 21.1546 78.1456 22.1186 77.1816L34.9844 64.3158C35.9484 63.3518 37.5113 63.3518 38.4752 64.3158C39.4392 65.2797 39.4392 66.8426 38.4752 67.8066L25.6094 80.6724C22.7175 83.5643 18.0289 83.5643 15.137 80.6724L2.27114 67.8066C1.30717 66.8426 1.30717 65.2797 2.27114 64.3158Z" fill="#3A3A53"></path>
</svg>
