<svg width="270" height="270" viewBox="0 0 270 270" fill="none" xmlns="http://www.w3.org/2000/svg">
<mask id="mask0_2_1871" style="mask-type:alpha" maskUnits="userSpaceOnUse" x="15" y="14" width="241" height="241">
<path d="M87.9112 18.5458C87.9112 19.3935 87.9112 22.1809 87.9112 22.1809C87.9112 22.1809 85.4364 22.1809 84.2761 22.1809C83.3702 22.1809 80.6409 22.1809 80.6409 22.1809C80.6409 22.1809 80.6409 19.648 80.6409 18.5458C80.6409 16.5377 82.268 14.9106 84.2761 14.9106C86.2841 14.9106 87.9112 16.5377 87.9112 18.5458Z" fill="white"/>
<path d="M98.8166 14.9106C100.825 14.9106 102.452 16.5377 102.452 18.5458C102.452 20.5538 100.825 22.1809 98.8166 22.1809C96.8085 22.1809 95.1815 20.5538 95.1815 18.5458C95.1815 16.5377 96.8085 14.9106 98.8166 14.9106Z" fill="white"/>
<path d="M142.438 14.9106C143.286 14.9106 146.073 14.9106 146.073 14.9106C146.073 14.9106 146.073 17.3854 146.073 18.5458C146.073 19.4517 146.073 22.1809 146.073 22.1809C146.073 22.1809 143.54 22.1809 142.438 22.1809C140.43 22.1809 138.803 20.5524 138.803 18.5458C138.803 16.5392 140.43 14.9106 142.438 14.9106Z" fill="white"/>
<path d="M153.344 14.9106H146.073V22.1809H153.344V14.9106Z" fill="white"/>
<path d="M156.979 22.1809C156.131 22.1809 153.344 22.1809 153.344 22.1809C153.344 22.1809 153.344 19.7061 153.344 18.5458C153.344 17.6399 153.344 14.9106 153.344 14.9106C153.344 14.9106 155.878 14.9106 156.979 14.9106C158.987 14.9106 160.614 16.5377 160.614 18.5458C160.614 20.5538 158.987 22.1809 156.979 22.1809Z" fill="white"/>
<path d="M167.884 22.1809H175.154V14.9106C171.14 14.9106 167.884 18.1663 167.884 22.1809Z" fill="white"/>
<path d="M178.79 22.1809C177.942 22.1809 175.154 22.1809 175.154 22.1809C175.154 22.1809 175.154 19.7061 175.154 18.5458C175.154 17.6399 175.154 14.9106 175.154 14.9106C175.154 14.9106 177.689 14.9106 178.79 14.9106C180.798 14.9106 182.425 16.5377 182.425 18.5458C182.425 20.5538 180.798 22.1809 178.79 22.1809Z" fill="white"/>
<path d="M196.965 18.5458C196.965 19.3935 196.965 22.1809 196.965 22.1809C196.965 22.1809 194.49 22.1809 193.33 22.1809C192.424 22.1809 189.695 22.1809 189.695 22.1809C189.695 22.1809 189.695 19.648 189.695 18.5458C189.695 16.5377 191.322 14.9106 193.33 14.9106C195.338 14.9106 196.965 16.5377 196.965 18.5458Z" fill="white"/>
<path d="M87.9112 22.1809H80.6409V29.4512H87.9112V22.1809Z" fill="white"/>
<path d="M87.9112 22.1809V29.4512H95.1815C95.1815 25.4365 91.9259 22.1809 87.9112 22.1809Z" fill="white"/>
<path d="M113.357 22.1809C114.205 22.1809 116.992 22.1809 116.992 22.1809C116.992 22.1809 116.992 24.6557 116.992 25.816C116.992 26.7219 116.992 29.4512 116.992 29.4512C116.992 29.4512 114.459 29.4512 113.357 29.4512C111.349 29.4512 109.722 27.8226 109.722 25.816C109.722 23.8094 111.349 22.1809 113.357 22.1809Z" fill="white"/>
<path d="M124.263 22.1809H116.992V29.4512H124.263V22.1809Z" fill="white"/>
<path d="M124.263 22.1809V29.4512H131.533C131.533 25.4365 128.277 22.1809 124.263 22.1809Z" fill="white"/>
<path d="M164.249 22.1809C165.097 22.1809 167.884 22.1809 167.884 22.1809C167.884 22.1809 167.884 24.6557 167.884 25.816C167.884 26.7219 167.884 29.4512 167.884 29.4512C167.884 29.4512 165.351 29.4512 164.249 29.4512C162.241 29.4512 160.614 27.8226 160.614 25.816C160.614 23.8094 162.241 22.1809 164.249 22.1809Z" fill="white"/>
<path d="M175.154 22.1809H167.884V29.4512H175.154V22.1809Z" fill="white"/>
<path d="M196.965 22.1809H189.695V29.4512H196.965V22.1809Z" fill="white"/>
<path d="M73.3707 36.7214H80.6409V29.4512C76.6263 29.4512 73.3707 32.7068 73.3707 36.7214Z" fill="white"/>
<path d="M87.9112 29.4512H80.6409V36.7214H87.9112V29.4512Z" fill="white"/>
<path d="M95.1815 29.4512H87.9112V36.7214H95.1815V29.4512Z" fill="white"/>
<path d="M98.8166 36.7214C97.9689 36.7214 95.1815 36.7214 95.1815 36.7214C95.1815 36.7214 95.1815 34.2466 95.1815 33.0863C95.1815 32.1804 95.1815 29.4512 95.1815 29.4512C95.1815 29.4512 97.7159 29.4512 98.8166 29.4512C100.825 29.4512 102.452 31.0783 102.452 33.0863C102.452 35.0944 100.825 36.7214 98.8166 36.7214Z" fill="white"/>
<path d="M124.263 33.0863C124.263 32.2386 124.263 29.4512 124.263 29.4512C124.263 29.4512 126.737 29.4512 127.898 29.4512C128.804 29.4512 131.533 29.4512 131.533 29.4512C131.533 29.4512 131.533 31.9856 131.533 33.0863C131.533 35.0944 129.906 36.7214 127.898 36.7214C125.89 36.7214 124.263 35.0944 124.263 33.0863Z" fill="white"/>
<path d="M146.073 36.7214H153.344V29.4512C149.329 29.4512 146.073 32.7068 146.073 36.7214Z" fill="white"/>
<path d="M153.344 29.4512V36.7214H160.614C160.614 32.7068 157.358 29.4512 153.344 29.4512Z" fill="white"/>
<path d="M175.154 29.4512H167.884V36.7214H175.154V29.4512Z" fill="white"/>
<path d="M182.425 36.7214H189.695V29.4512C185.68 29.4512 182.425 32.7068 182.425 36.7214Z" fill="white"/>
<path d="M196.965 29.4512H189.695V36.7214H196.965V29.4512Z" fill="white"/>
<path d="M80.6409 43.9917V36.7214H73.3707C73.3707 40.7361 76.6263 43.9917 80.6409 43.9917Z" fill="white"/>
<path d="M87.9112 36.7214H80.6409V43.9917C84.6556 43.9917 87.9112 40.7361 87.9112 36.7214Z" fill="white"/>
<path d="M109.722 43.9917H116.992V36.7214C112.978 36.7214 109.722 39.9771 109.722 43.9917Z" fill="white"/>
<path d="M116.992 36.7214V43.9917H124.263C124.263 39.9771 121.007 36.7214 116.992 36.7214Z" fill="white"/>
<path d="M131.533 43.9917H138.803V36.7214C134.788 36.7214 131.533 39.9771 131.533 43.9917Z" fill="white"/>
<path d="M146.073 36.7214H138.803V43.9917H146.073V36.7214Z" fill="white"/>
<path d="M153.344 36.7214H146.073V43.9917H153.344V36.7214Z" fill="white"/>
<path d="M160.614 36.7214H153.344V43.9917H160.614V36.7214Z" fill="white"/>
<path d="M167.884 36.7214H160.614V43.9917H167.884V36.7214Z" fill="white"/>
<path d="M175.154 36.7214H167.884V43.9917H175.154V36.7214Z" fill="white"/>
<path d="M189.695 36.7214H182.425V43.9917H189.695V36.7214Z" fill="white"/>
<path d="M196.965 36.7214H189.695V43.9917C193.71 43.9917 196.965 40.7361 196.965 36.7214Z" fill="white"/>
<path d="M106.087 43.9918C106.935 43.9918 109.722 43.9918 109.722 43.9918C109.722 43.9918 109.722 46.4666 109.722 47.6269C109.722 48.5328 109.722 51.262 109.722 51.262C109.722 51.262 107.189 51.262 106.087 51.262C104.079 51.262 102.452 49.6335 102.452 47.6269C102.452 45.6203 104.079 43.9918 106.087 43.9918Z" fill="white"/>
<path d="M116.992 43.9918H109.722V51.262H116.992V43.9918Z" fill="white"/>
<path d="M124.263 43.9918H116.992V51.262H124.263V43.9918Z" fill="white"/>
<path d="M138.803 43.9918H131.533V51.262H138.803V43.9918Z" fill="white"/>
<path d="M146.073 47.6269C146.073 46.7792 146.073 43.9918 146.073 43.9918C146.073 43.9918 148.548 43.9918 149.708 43.9918C150.614 43.9918 153.344 43.9918 153.344 43.9918C153.344 43.9918 153.344 46.5262 153.344 47.6269C153.344 49.6349 151.717 51.262 149.708 51.262C147.7 51.262 146.073 49.6349 146.073 47.6269Z" fill="white"/>
<path d="M167.884 43.9918H160.614V51.262H167.884V43.9918Z" fill="white"/>
<path d="M175.154 43.9918H167.884V51.262C171.899 51.262 175.154 48.0064 175.154 43.9918Z" fill="white"/>
<path d="M182.425 47.6269C182.425 46.7792 182.425 43.9918 182.425 43.9918C182.425 43.9918 184.9 43.9918 186.06 43.9918C186.966 43.9918 189.695 43.9918 189.695 43.9918C189.695 43.9918 189.695 46.5262 189.695 47.6269C189.695 49.6349 188.068 51.262 186.06 51.262C184.052 51.262 182.425 49.6349 182.425 47.6269Z" fill="white"/>
<path d="M98.8166 51.262C100.825 51.262 102.452 52.8891 102.452 54.8972C102.452 56.9052 100.825 58.5323 98.8166 58.5323C96.8085 58.5323 95.1815 56.9052 95.1815 54.8972C95.1815 52.8891 96.8085 51.262 98.8166 51.262Z" fill="white"/>
<path d="M116.992 58.5323V51.262H109.722C109.722 55.2767 112.978 58.5323 116.992 58.5323Z" fill="white"/>
<path d="M124.263 51.262H116.992V58.5323H124.263V51.262Z" fill="white"/>
<path d="M138.803 51.262H131.533V58.5323H138.803V51.262Z" fill="white"/>
<path d="M167.884 51.262H160.614V58.5323H167.884V51.262Z" fill="white"/>
<path d="M196.965 54.8972C196.965 55.7449 196.965 58.5323 196.965 58.5323C196.965 58.5323 194.49 58.5323 193.33 58.5323C192.424 58.5323 189.695 58.5323 189.695 58.5323C189.695 58.5323 189.695 55.9993 189.695 54.8972C189.695 52.8891 191.322 51.262 193.33 51.262C195.338 51.262 196.965 52.8891 196.965 54.8972Z" fill="white"/>
<path d="M77.0058 58.5323C79.0139 58.5323 80.6409 60.1594 80.6409 62.1674C80.6409 64.1755 79.0139 65.8026 77.0058 65.8026C74.9978 65.8026 73.3707 64.1755 73.3707 62.1674C73.3707 60.1594 74.9978 58.5323 77.0058 58.5323Z" fill="white"/>
<path d="M95.1815 62.1674C95.1815 63.0151 95.1815 65.8026 95.1815 65.8026C95.1815 65.8026 92.7067 65.8026 91.5463 65.8026C90.6405 65.8026 87.9112 65.8026 87.9112 65.8026C87.9112 65.8026 87.9112 63.2696 87.9112 62.1674C87.9112 60.1594 89.5383 58.5323 91.5463 58.5323C93.5544 58.5323 95.1815 60.1594 95.1815 62.1674Z" fill="white"/>
<path d="M106.087 58.5323C108.095 58.5323 109.722 60.1594 109.722 62.1674C109.722 64.1755 108.095 65.8026 106.087 65.8026C104.079 65.8026 102.452 64.1755 102.452 62.1674C102.452 60.1594 104.079 58.5323 106.087 58.5323Z" fill="white"/>
<path d="M116.992 62.1674C116.992 61.3197 116.992 58.5323 116.992 58.5323C116.992 58.5323 119.467 58.5323 120.627 58.5323C121.533 58.5323 124.263 58.5323 124.263 58.5323C124.263 58.5323 124.263 61.0667 124.263 62.1674C124.263 64.1755 122.635 65.8026 120.627 65.8026C118.619 65.8026 116.992 64.1755 116.992 62.1674Z" fill="white"/>
<path d="M138.803 58.5323H131.533V65.8026H138.803V58.5323Z" fill="white"/>
<path d="M149.708 58.5323C151.717 58.5323 153.344 60.1594 153.344 62.1674C153.344 64.1755 151.717 65.8026 149.708 65.8026C147.7 65.8026 146.073 64.1755 146.073 62.1674C146.073 60.1594 147.7 58.5323 149.708 58.5323Z" fill="white"/>
<path d="M160.614 62.1674C160.614 61.3197 160.614 58.5323 160.614 58.5323C160.614 58.5323 163.089 58.5323 164.249 58.5323C165.155 58.5323 167.884 58.5323 167.884 58.5323C167.884 58.5323 167.884 61.0667 167.884 62.1674C167.884 64.1755 166.257 65.8026 164.249 65.8026C162.241 65.8026 160.614 64.1755 160.614 62.1674Z" fill="white"/>
<path d="M182.425 62.1674C182.425 63.0151 182.425 65.8026 182.425 65.8026C182.425 65.8026 179.95 65.8026 178.79 65.8026C177.884 65.8026 175.154 65.8026 175.154 65.8026C175.154 65.8026 175.154 63.2696 175.154 62.1674C175.154 60.1594 176.782 58.5323 178.79 58.5323C180.798 58.5323 182.425 60.1594 182.425 62.1674Z" fill="white"/>
<path d="M189.695 62.1674C189.695 61.3197 189.695 58.5323 189.695 58.5323C189.695 58.5323 192.17 58.5323 193.33 58.5323C194.236 58.5323 196.965 58.5323 196.965 58.5323C196.965 58.5323 196.965 61.0667 196.965 62.1674C196.965 64.1755 195.338 65.8026 193.33 65.8026C191.322 65.8026 189.695 64.1755 189.695 62.1674Z" fill="white"/>
<path d="M87.9112 69.4377C87.9112 68.59 87.9112 65.8026 87.9112 65.8026C87.9112 65.8026 90.386 65.8026 91.5463 65.8026C92.4522 65.8026 95.1815 65.8026 95.1815 65.8026C95.1815 65.8026 95.1815 68.337 95.1815 69.4377C95.1815 71.4457 93.5544 73.0728 91.5463 73.0728C89.5383 73.0728 87.9112 71.4457 87.9112 69.4377Z" fill="white"/>
<path d="M124.263 73.0728H131.533V65.8026C127.518 65.8026 124.263 69.0582 124.263 73.0728Z" fill="white"/>
<path d="M138.803 65.8026H131.533V73.0728H138.803V65.8026Z" fill="white"/>
<path d="M182.425 73.0728V65.8026H175.154C175.154 69.8172 178.41 73.0728 182.425 73.0728Z" fill="white"/>
<path d="M182.425 65.8026V73.0728H189.695C189.695 69.0582 186.439 65.8026 182.425 65.8026Z" fill="white"/>
<path d="M40.6545 73.0728C41.5022 73.0728 44.2896 73.0728 44.2896 73.0728C44.2896 73.0728 44.2896 75.5476 44.2896 76.708C44.2896 77.6138 44.2896 80.3431 44.2896 80.3431C44.2896 80.3431 41.7566 80.3431 40.6545 80.3431C38.6464 80.3431 37.0193 78.7146 37.0193 76.708C37.0193 74.7014 38.6464 73.0728 40.6545 73.0728Z" fill="white"/>
<path d="M44.2896 73.0728V80.3431H51.5598C51.5598 76.3284 48.3042 73.0728 44.2896 73.0728Z" fill="white"/>
<path d="M62.4653 73.0728C63.313 73.0728 66.1004 73.0728 66.1004 73.0728C66.1004 73.0728 66.1004 75.5476 66.1004 76.708C66.1004 77.6138 66.1004 80.3431 66.1004 80.3431C66.1004 80.3431 63.5674 80.3431 62.4653 80.3431C60.4572 80.3431 58.8301 78.7146 58.8301 76.708C58.8301 74.7014 60.4572 73.0728 62.4653 73.0728Z" fill="white"/>
<path d="M69.7355 80.3431C68.8878 80.3431 66.1004 80.3431 66.1004 80.3431C66.1004 80.3431 66.1004 77.8683 66.1004 76.708C66.1004 75.8021 66.1004 73.0728 66.1004 73.0728C66.1004 73.0728 68.6348 73.0728 69.7355 73.0728C71.7436 73.0728 73.3707 74.6999 73.3707 76.708C73.3707 78.716 71.7436 80.3431 69.7355 80.3431Z" fill="white"/>
<path d="M98.8166 73.0728C99.6643 73.0728 102.452 73.0728 102.452 73.0728C102.452 73.0728 102.452 75.5476 102.452 76.708C102.452 77.6138 102.452 80.3431 102.452 80.3431C102.452 80.3431 99.9188 80.3431 98.8166 80.3431C96.8085 80.3431 95.1815 78.7146 95.1815 76.708C95.1815 74.7014 96.8085 73.0728 98.8166 73.0728Z" fill="white"/>
<path d="M109.722 73.0728H102.452V80.3431H109.722V73.0728Z" fill="white"/>
<path d="M116.992 73.0728H109.722V80.3431H116.992V73.0728Z" fill="white"/>
<path d="M124.263 73.0728H116.992V80.3431H124.263V73.0728Z" fill="white"/>
<path d="M131.533 73.0728H124.263V80.3431H131.533V73.0728Z" fill="white"/>
<path d="M138.803 73.0728H131.533V80.3431H138.803V73.0728Z" fill="white"/>
<path d="M153.344 76.708C153.344 77.5557 153.344 80.3431 153.344 80.3431C153.344 80.3431 150.869 80.3431 149.708 80.3431C148.803 80.3431 146.073 80.3431 146.073 80.3431C146.073 80.3431 146.073 77.8101 146.073 76.708C146.073 74.6999 147.7 73.0728 149.708 73.0728C151.717 73.0728 153.344 74.6999 153.344 76.708Z" fill="white"/>
<path d="M164.249 73.0728C166.257 73.0728 167.884 74.6999 167.884 76.708C167.884 78.716 166.257 80.3431 164.249 80.3431C162.241 80.3431 160.614 78.716 160.614 76.708C160.614 74.6999 162.241 73.0728 164.249 73.0728Z" fill="white"/>
<path d="M189.695 73.0728H182.425V80.3431H189.695V73.0728Z" fill="white"/>
<path d="M193.33 80.3431C192.482 80.3431 189.695 80.3431 189.695 80.3431C189.695 80.3431 189.695 77.8683 189.695 76.708C189.695 75.8021 189.695 73.0728 189.695 73.0728C189.695 73.0728 192.229 73.0728 193.33 73.0728C195.338 73.0728 196.965 74.6999 196.965 76.708C196.965 78.716 195.338 80.3431 193.33 80.3431Z" fill="white"/>
<path d="M226.046 80.3431H233.317V73.0728C229.302 73.0728 226.046 76.3284 226.046 80.3431Z" fill="white"/>
<path d="M233.317 73.0728V80.3431H240.587C240.587 76.3284 237.331 73.0728 233.317 73.0728Z" fill="white"/>
<path d="M26.1139 80.3431C28.1219 80.3431 29.749 81.9702 29.749 83.9782C29.749 85.9863 28.1219 87.6134 26.1139 87.6134C24.1058 87.6134 22.4788 85.9863 22.4788 83.9782C22.4788 81.9702 24.1058 80.3431 26.1139 80.3431Z" fill="white"/>
<path d="M51.5598 80.3431H44.2896V87.6134H51.5598V80.3431Z" fill="white"/>
<path d="M55.195 87.6134C54.3473 87.6134 51.5598 87.6134 51.5598 87.6134C51.5598 87.6134 51.5598 85.1386 51.5598 83.9782C51.5598 83.0723 51.5598 80.3431 51.5598 80.3431C51.5598 80.3431 54.0943 80.3431 55.195 80.3431C57.203 80.3431 58.8301 81.9702 58.8301 83.9782C58.8301 85.9863 57.203 87.6134 55.195 87.6134Z" fill="white"/>
<path d="M77.0058 80.3431C79.0139 80.3431 80.6409 81.9702 80.6409 83.9782C80.6409 85.9863 79.0139 87.6134 77.0058 87.6134C74.9978 87.6134 73.3707 85.9863 73.3707 83.9782C73.3707 81.9702 74.9978 80.3431 77.0058 80.3431Z" fill="white"/>
<path d="M109.722 80.3431H102.452V87.6134H109.722V80.3431Z" fill="white"/>
<path d="M116.992 80.3431H109.722V87.6134H116.992V80.3431Z" fill="white"/>
<path d="M124.263 80.3431H116.992V87.6134C121.007 87.6134 124.263 84.3577 124.263 80.3431Z" fill="white"/>
<path d="M131.533 83.9782C131.533 83.1305 131.533 80.3431 131.533 80.3431C131.533 80.3431 134.008 80.3431 135.168 80.3431C136.074 80.3431 138.803 80.3431 138.803 80.3431C138.803 80.3431 138.803 82.8775 138.803 83.9782C138.803 85.9863 137.176 87.6134 135.168 87.6134C133.16 87.6134 131.533 85.9863 131.533 83.9782Z" fill="white"/>
<path d="M153.344 80.3431H146.073V87.6134H153.344V80.3431Z" fill="white"/>
<path d="M189.695 80.3431H182.425V87.6134H189.695V80.3431Z" fill="white"/>
<path d="M204.236 83.9782C204.236 84.8259 204.236 87.6134 204.236 87.6134C204.236 87.6134 201.761 87.6134 200.6 87.6134C199.695 87.6134 196.965 87.6134 196.965 87.6134C196.965 87.6134 196.965 85.0804 196.965 83.9782C196.965 81.9702 198.592 80.3431 200.6 80.3431C202.608 80.3431 204.236 81.9702 204.236 83.9782Z" fill="white"/>
<path d="M211.506 87.6134H218.776V80.3431C214.761 80.3431 211.506 83.5987 211.506 87.6134Z" fill="white"/>
<path d="M226.046 80.3431H218.776V87.6134H226.046V80.3431Z" fill="white"/>
<path d="M233.317 80.3431H226.046V87.6134H233.317V80.3431Z" fill="white"/>
<path d="M240.587 80.3431H233.317V87.6134H240.587V80.3431Z" fill="white"/>
<path d="M240.587 80.3431V87.6134H247.857C247.857 83.5987 244.601 80.3431 240.587 80.3431Z" fill="white"/>
<path d="M18.8436 87.6133C20.8517 87.6133 22.4788 89.2404 22.4788 91.2485C22.4788 93.2565 20.8517 94.8836 18.8436 94.8836C16.8356 94.8836 15.2085 93.2565 15.2085 91.2485C15.2085 89.2404 16.8356 87.6133 18.8436 87.6133Z" fill="white"/>
<path d="M51.5598 87.6133H44.2896V94.8836H51.5598V87.6133Z" fill="white"/>
<path d="M62.4653 87.6133C64.4733 87.6133 66.1004 89.2404 66.1004 91.2485C66.1004 93.2565 64.4733 94.8836 62.4653 94.8836C60.4572 94.8836 58.8301 93.2565 58.8301 91.2485C58.8301 89.2404 60.4572 87.6133 62.4653 87.6133Z" fill="white"/>
<path d="M98.8166 87.6133C99.6643 87.6133 102.452 87.6133 102.452 87.6133C102.452 87.6133 102.452 90.0881 102.452 91.2485C102.452 92.1543 102.452 94.8836 102.452 94.8836C102.452 94.8836 99.9188 94.8836 98.8166 94.8836C96.8085 94.8836 95.1815 93.2551 95.1815 91.2485C95.1815 89.2419 96.8085 87.6133 98.8166 87.6133Z" fill="white"/>
<path d="M109.722 87.6133H102.452V94.8836C106.466 94.8836 109.722 91.628 109.722 87.6133Z" fill="white"/>
<path d="M127.898 87.6133C129.906 87.6133 131.533 89.2404 131.533 91.2485C131.533 93.2565 129.906 94.8836 127.898 94.8836C125.89 94.8836 124.263 93.2565 124.263 91.2485C124.263 89.2404 125.89 87.6133 127.898 87.6133Z" fill="white"/>
<path d="M146.073 91.2485C146.073 90.4008 146.073 87.6133 146.073 87.6133C146.073 87.6133 148.548 87.6133 149.708 87.6133C150.614 87.6133 153.344 87.6133 153.344 87.6133C153.344 87.6133 153.344 90.1478 153.344 91.2485C153.344 93.2565 151.717 94.8836 149.708 94.8836C147.7 94.8836 146.073 93.2565 146.073 91.2485Z" fill="white"/>
<path d="M171.519 87.6133C173.527 87.6133 175.154 89.2404 175.154 91.2485C175.154 93.2565 173.527 94.8836 171.519 94.8836C169.511 94.8836 167.884 93.2565 167.884 91.2485C167.884 89.2404 169.511 87.6133 171.519 87.6133Z" fill="white"/>
<path d="M182.425 91.2485C182.425 90.4008 182.425 87.6133 182.425 87.6133C182.425 87.6133 184.9 87.6133 186.06 87.6133C186.966 87.6133 189.695 87.6133 189.695 87.6133C189.695 87.6133 189.695 90.1478 189.695 91.2485C189.695 93.2565 188.068 94.8836 186.06 94.8836C184.052 94.8836 182.425 93.2565 182.425 91.2485Z" fill="white"/>
<path d="M196.965 91.2485C196.965 90.4008 196.965 87.6133 196.965 87.6133C196.965 87.6133 199.44 87.6133 200.6 87.6133C201.506 87.6133 204.236 87.6133 204.236 87.6133C204.236 87.6133 204.236 90.1478 204.236 91.2485C204.236 93.2565 202.608 94.8836 200.6 94.8836C198.592 94.8836 196.965 93.2565 196.965 91.2485Z" fill="white"/>
<path d="M218.776 87.6133H211.506V94.8836H218.776V87.6133Z" fill="white"/>
<path d="M240.587 87.6133H233.317V94.8836H240.587V87.6133Z" fill="white"/>
<path d="M247.857 87.6133H240.587V94.8836H247.857V87.6133Z" fill="white"/>
<path d="M247.857 87.6133V94.8836H255.127C255.127 90.869 251.872 87.6133 247.857 87.6133Z" fill="white"/>
<path d="M26.1139 94.8836C26.9616 94.8836 29.749 94.8836 29.749 94.8836C29.749 94.8836 29.749 97.3584 29.749 98.5187C29.749 99.4246 29.749 102.154 29.749 102.154C29.749 102.154 27.2161 102.154 26.1139 102.154C24.1058 102.154 22.4788 100.525 22.4788 98.5187C22.4788 96.5121 24.1058 94.8836 26.1139 94.8836Z" fill="white"/>
<path d="M33.3842 102.154C32.5364 102.154 29.749 102.154 29.749 102.154C29.749 102.154 29.749 99.6791 29.749 98.5187C29.749 97.6129 29.749 94.8836 29.749 94.8836C29.749 94.8836 32.2834 94.8836 33.3842 94.8836C35.3922 94.8836 37.0193 96.5107 37.0193 98.5187C37.0193 100.527 35.3922 102.154 33.3842 102.154Z" fill="white"/>
<path d="M51.5598 94.8836H44.2896V102.154H51.5598V94.8836Z" fill="white"/>
<path d="M84.2761 94.8836C85.1238 94.8836 87.9112 94.8836 87.9112 94.8836C87.9112 94.8836 87.9112 97.3584 87.9112 98.5187C87.9112 99.4246 87.9112 102.154 87.9112 102.154C87.9112 102.154 85.3782 102.154 84.2761 102.154C82.268 102.154 80.6409 100.525 80.6409 98.5187C80.6409 96.5121 82.268 94.8836 84.2761 94.8836Z" fill="white"/>
<path d="M91.5463 102.154C90.6986 102.154 87.9112 102.154 87.9112 102.154C87.9112 102.154 87.9112 99.6791 87.9112 98.5187C87.9112 97.6129 87.9112 94.8836 87.9112 94.8836C87.9112 94.8836 90.4456 94.8836 91.5463 94.8836C93.5544 94.8836 95.1815 96.5107 95.1815 98.5187C95.1815 100.527 93.5544 102.154 91.5463 102.154Z" fill="white"/>
<path d="M196.965 98.5187C196.965 99.3665 196.965 102.154 196.965 102.154C196.965 102.154 194.49 102.154 193.33 102.154C192.424 102.154 189.695 102.154 189.695 102.154C189.695 102.154 189.695 99.6209 189.695 98.5187C189.695 96.5107 191.322 94.8836 193.33 94.8836C195.338 94.8836 196.965 96.5107 196.965 98.5187Z" fill="white"/>
<path d="M204.236 102.154H211.506V94.8836C207.491 94.8836 204.236 98.1392 204.236 102.154Z" fill="white"/>
<path d="M218.776 94.8836H211.506V102.154H218.776V94.8836Z" fill="white"/>
<path d="M226.046 94.8836H218.776V102.154H226.046V94.8836Z" fill="white"/>
<path d="M233.317 94.8836H226.046V102.154H233.317V94.8836Z" fill="white"/>
<path d="M240.587 94.8836H233.317V102.154H240.587V94.8836Z" fill="white"/>
<path d="M247.857 94.8836H240.587V102.154H247.857V94.8836Z" fill="white"/>
<path d="M255.127 94.8836H247.857V102.154H255.127V94.8836Z" fill="white"/>
<path d="M37.0193 109.424H44.2896V102.154C40.275 102.154 37.0193 105.409 37.0193 109.424Z" fill="white"/>
<path d="M51.5598 102.154H44.2896V109.424C48.3042 109.424 51.5598 106.169 51.5598 102.154Z" fill="white"/>
<path d="M62.4653 102.154C63.313 102.154 66.1004 102.154 66.1004 102.154C66.1004 102.154 66.1004 104.629 66.1004 105.789C66.1004 106.695 66.1004 109.424 66.1004 109.424C66.1004 109.424 63.5674 109.424 62.4653 109.424C60.4572 109.424 58.8301 107.796 58.8301 105.789C58.8301 103.782 60.4572 102.154 62.4653 102.154Z" fill="white"/>
<path d="M73.3707 102.154H66.1004V109.424H73.3707V102.154Z" fill="white"/>
<path d="M77.0058 109.424C76.1581 109.424 73.3707 109.424 73.3707 109.424C73.3707 109.424 73.3707 106.949 73.3707 105.789C73.3707 104.883 73.3707 102.154 73.3707 102.154C73.3707 102.154 75.9051 102.154 77.0058 102.154C79.0139 102.154 80.6409 103.781 80.6409 105.789C80.6409 107.797 79.0139 109.424 77.0058 109.424Z" fill="white"/>
<path d="M182.425 105.789C182.425 106.637 182.425 109.424 182.425 109.424C182.425 109.424 179.95 109.424 178.79 109.424C177.884 109.424 175.154 109.424 175.154 109.424C175.154 109.424 175.154 106.891 175.154 105.789C175.154 103.781 176.782 102.154 178.79 102.154C180.798 102.154 182.425 103.781 182.425 105.789Z" fill="white"/>
<path d="M189.695 105.789C189.695 104.941 189.695 102.154 189.695 102.154C189.695 102.154 192.17 102.154 193.33 102.154C194.236 102.154 196.965 102.154 196.965 102.154C196.965 102.154 196.965 104.688 196.965 105.789C196.965 107.797 195.338 109.424 193.33 109.424C191.322 109.424 189.695 107.797 189.695 105.789Z" fill="white"/>
<path d="M211.506 109.424V102.154H204.236C204.236 106.169 207.491 109.424 211.506 109.424Z" fill="white"/>
<path d="M218.776 102.154H211.506V109.424H218.776V102.154Z" fill="white"/>
<path d="M226.046 102.154H218.776V109.424H226.046V102.154Z" fill="white"/>
<path d="M233.317 102.154H226.046V109.424C230.061 109.424 233.317 106.169 233.317 102.154Z" fill="white"/>
<path d="M247.857 105.789C247.857 104.941 247.857 102.154 247.857 102.154C247.857 102.154 250.332 102.154 251.492 102.154C252.398 102.154 255.127 102.154 255.127 102.154C255.127 102.154 255.127 104.688 255.127 105.789C255.127 107.797 253.5 109.424 251.492 109.424C249.484 109.424 247.857 107.797 247.857 105.789Z" fill="white"/>
<path d="M18.8436 109.424C19.6913 109.424 22.4788 109.424 22.4788 109.424C22.4788 109.424 22.4788 111.899 22.4788 113.059C22.4788 113.965 22.4788 116.694 22.4788 116.694C22.4788 116.694 19.9458 116.694 18.8436 116.694C16.8356 116.694 15.2085 115.066 15.2085 113.059C15.2085 111.053 16.8356 109.424 18.8436 109.424Z" fill="white"/>
<path d="M22.4788 109.424V116.694H29.749C29.749 112.68 26.4934 109.424 22.4788 109.424Z" fill="white"/>
<path d="M44.2896 109.424H37.0193V116.694H44.2896V109.424Z" fill="white"/>
<path d="M182.425 116.694V109.424H175.154C175.154 113.439 178.41 116.694 182.425 116.694Z" fill="white"/>
<path d="M186.06 116.694C185.212 116.694 182.425 116.694 182.425 116.694C182.425 116.694 182.425 114.22 182.425 113.059C182.425 112.153 182.425 109.424 182.425 109.424C182.425 109.424 184.959 109.424 186.06 109.424C188.068 109.424 189.695 111.051 189.695 113.059C189.695 115.067 188.068 116.694 186.06 116.694Z" fill="white"/>
<path d="M236.952 109.424C237.799 109.424 240.587 109.424 240.587 109.424C240.587 109.424 240.587 111.899 240.587 113.059C240.587 113.965 240.587 116.694 240.587 116.694C240.587 116.694 238.054 116.694 236.952 116.694C234.944 116.694 233.317 115.066 233.317 113.059C233.317 111.053 234.944 109.424 236.952 109.424Z" fill="white"/>
<path d="M244.222 116.694C243.374 116.694 240.587 116.694 240.587 116.694C240.587 116.694 240.587 114.22 240.587 113.059C240.587 112.153 240.587 109.424 240.587 109.424C240.587 109.424 243.121 109.424 244.222 109.424C246.23 109.424 247.857 111.051 247.857 113.059C247.857 115.067 246.23 116.694 244.222 116.694Z" fill="white"/>
<path d="M29.749 116.694H22.4788V123.965H29.749V116.694Z" fill="white"/>
<path d="M37.0193 116.694H29.749V123.965H37.0193V116.694Z" fill="white"/>
<path d="M44.2896 116.694H37.0193V123.965H44.2896V116.694Z" fill="white"/>
<path d="M47.9247 123.965C47.077 123.965 44.2896 123.965 44.2896 123.965C44.2896 123.965 44.2896 121.49 44.2896 120.33C44.2896 119.424 44.2896 116.694 44.2896 116.694C44.2896 116.694 46.824 116.694 47.9247 116.694C49.9328 116.694 51.5598 118.322 51.5598 120.33C51.5598 122.338 49.9328 123.965 47.9247 123.965Z" fill="white"/>
<path d="M62.4653 116.694C63.313 116.694 66.1004 116.694 66.1004 116.694C66.1004 116.694 66.1004 119.169 66.1004 120.33C66.1004 121.235 66.1004 123.965 66.1004 123.965C66.1004 123.965 63.5674 123.965 62.4653 123.965C60.4572 123.965 58.8301 122.336 58.8301 120.33C58.8301 118.323 60.4572 116.694 62.4653 116.694Z" fill="white"/>
<path d="M69.7355 123.965C68.8878 123.965 66.1004 123.965 66.1004 123.965C66.1004 123.965 66.1004 121.49 66.1004 120.33C66.1004 119.424 66.1004 116.694 66.1004 116.694C66.1004 116.694 68.6348 116.694 69.7355 116.694C71.7436 116.694 73.3707 118.322 73.3707 120.33C73.3707 122.338 71.7436 123.965 69.7355 123.965Z" fill="white"/>
<path d="M196.965 120.33C196.965 121.177 196.965 123.965 196.965 123.965C196.965 123.965 194.49 123.965 193.33 123.965C192.424 123.965 189.695 123.965 189.695 123.965C189.695 123.965 189.695 121.432 189.695 120.33C189.695 118.322 191.322 116.694 193.33 116.694C195.338 116.694 196.965 118.322 196.965 120.33Z" fill="white"/>
<path d="M207.871 116.694C209.879 116.694 211.506 118.322 211.506 120.33C211.506 122.338 209.879 123.965 207.871 123.965C205.863 123.965 204.236 122.338 204.236 120.33C204.236 118.322 205.863 116.694 207.871 116.694Z" fill="white"/>
<path d="M222.411 116.694C223.259 116.694 226.046 116.694 226.046 116.694C226.046 116.694 226.046 119.169 226.046 120.33C226.046 121.235 226.046 123.965 226.046 123.965C226.046 123.965 223.513 123.965 222.411 123.965C220.403 123.965 218.776 122.336 218.776 120.33C218.776 118.323 220.403 116.694 222.411 116.694Z" fill="white"/>
<path d="M226.046 116.694V123.965H233.317C233.317 119.95 230.061 116.694 226.046 116.694Z" fill="white"/>
<path d="M29.749 123.965H22.4788V131.235H29.749V123.965Z" fill="white"/>
<path d="M37.0193 123.965H29.749V131.235H37.0193V123.965Z" fill="white"/>
<path d="M44.2896 123.965H37.0193V131.235C41.034 131.235 44.2896 127.979 44.2896 123.965Z" fill="white"/>
<path d="M55.195 123.965C57.203 123.965 58.8301 125.592 58.8301 127.6C58.8301 129.608 57.203 131.235 55.195 131.235C53.1869 131.235 51.5598 129.608 51.5598 127.6C51.5598 125.592 53.1869 123.965 55.195 123.965Z" fill="white"/>
<path d="M182.425 131.235H189.695V123.965C185.68 123.965 182.425 127.22 182.425 131.235Z" fill="white"/>
<path d="M196.965 123.965H189.695V131.235H196.965V123.965Z" fill="white"/>
<path d="M196.965 123.965V131.235H204.236C204.236 127.22 200.98 123.965 196.965 123.965Z" fill="white"/>
<path d="M218.776 127.6C218.776 128.448 218.776 131.235 218.776 131.235C218.776 131.235 216.301 131.235 215.141 131.235C214.235 131.235 211.506 131.235 211.506 131.235C211.506 131.235 211.506 128.702 211.506 127.6C211.506 125.592 213.133 123.965 215.141 123.965C217.149 123.965 218.776 125.592 218.776 127.6Z" fill="white"/>
<path d="M233.317 123.965H226.046V131.235H233.317V123.965Z" fill="white"/>
<path d="M240.587 123.965H233.317V131.235H240.587V123.965Z" fill="white"/>
<path d="M247.857 123.965H240.587V131.235H247.857V123.965Z" fill="white"/>
<path d="M251.492 131.235C250.645 131.235 247.857 131.235 247.857 131.235C247.857 131.235 247.857 128.76 247.857 127.6C247.857 126.694 247.857 123.965 247.857 123.965C247.857 123.965 250.392 123.965 251.492 123.965C253.5 123.965 255.127 125.592 255.127 127.6C255.127 129.608 253.5 131.235 251.492 131.235Z" fill="white"/>
<path d="M15.2085 138.505H22.4788V131.235C18.4641 131.235 15.2085 134.491 15.2085 138.505Z" fill="white"/>
<path d="M29.749 131.235H22.4788V138.505C26.4934 138.505 29.749 135.25 29.749 131.235Z" fill="white"/>
<path d="M47.9247 131.235C49.9328 131.235 51.5598 132.862 51.5598 134.87C51.5598 136.878 49.9328 138.505 47.9247 138.505C45.9167 138.505 44.2896 136.878 44.2896 134.87C44.2896 132.862 45.9167 131.235 47.9247 131.235Z" fill="white"/>
<path d="M62.4653 131.235C63.313 131.235 66.1004 131.235 66.1004 131.235C66.1004 131.235 66.1004 133.71 66.1004 134.87C66.1004 135.776 66.1004 138.505 66.1004 138.505C66.1004 138.505 63.5674 138.505 62.4653 138.505C60.4572 138.505 58.8301 136.877 58.8301 134.87C58.8301 132.864 60.4572 131.235 62.4653 131.235Z" fill="white"/>
<path d="M69.7355 138.505C68.8878 138.505 66.1004 138.505 66.1004 138.505C66.1004 138.505 66.1004 136.03 66.1004 134.87C66.1004 133.964 66.1004 131.235 66.1004 131.235C66.1004 131.235 68.6348 131.235 69.7355 131.235C71.7436 131.235 73.3707 132.862 73.3707 134.87C73.3707 136.878 71.7436 138.505 69.7355 138.505Z" fill="white"/>
<path d="M80.6409 138.505H87.9112V131.235C83.8966 131.235 80.6409 134.491 80.6409 138.505Z" fill="white"/>
<path d="M91.5463 138.505C90.6986 138.505 87.9112 138.505 87.9112 138.505C87.9112 138.505 87.9112 136.03 87.9112 134.87C87.9112 133.964 87.9112 131.235 87.9112 131.235C87.9112 131.235 90.4456 131.235 91.5463 131.235C93.5544 131.235 95.1815 132.862 95.1815 134.87C95.1815 136.878 93.5544 138.505 91.5463 138.505Z" fill="white"/>
<path d="M182.425 134.87C182.425 134.022 182.425 131.235 182.425 131.235C182.425 131.235 184.9 131.235 186.06 131.235C186.966 131.235 189.695 131.235 189.695 131.235C189.695 131.235 189.695 133.769 189.695 134.87C189.695 136.878 188.068 138.505 186.06 138.505C184.052 138.505 182.425 136.878 182.425 134.87Z" fill="white"/>
<path d="M204.236 138.505V131.235H196.965C196.965 135.25 200.221 138.505 204.236 138.505Z" fill="white"/>
<path d="M211.506 131.235H204.236V138.505H211.506V131.235Z" fill="white"/>
<path d="M218.776 131.235H211.506V138.505H218.776V131.235Z" fill="white"/>
<path d="M226.046 131.235H218.776V138.505H226.046V131.235Z" fill="white"/>
<path d="M233.317 131.235H226.046V138.505H233.317V131.235Z" fill="white"/>
<path d="M240.587 134.87C240.587 134.022 240.587 131.235 240.587 131.235C240.587 131.235 243.062 131.235 244.222 131.235C245.128 131.235 247.857 131.235 247.857 131.235C247.857 131.235 247.857 133.769 247.857 134.87C247.857 136.878 246.23 138.505 244.222 138.505C242.214 138.505 240.587 136.878 240.587 134.87Z" fill="white"/>
<path d="M15.2085 142.14C15.2085 141.293 15.2085 138.505 15.2085 138.505C15.2085 138.505 17.6833 138.505 18.8436 138.505C19.7495 138.505 22.4788 138.505 22.4788 138.505C22.4788 138.505 22.4788 141.04 22.4788 142.14C22.4788 144.148 20.8517 145.776 18.8436 145.776C16.8356 145.776 15.2085 144.148 15.2085 142.14Z" fill="white"/>
<path d="M44.2896 142.14C44.2896 142.988 44.2896 145.776 44.2896 145.776C44.2896 145.776 41.8148 145.776 40.6545 145.776C39.7486 145.776 37.0193 145.776 37.0193 145.776C37.0193 145.776 37.0193 143.243 37.0193 142.14C37.0193 140.132 38.6464 138.505 40.6545 138.505C42.6625 138.505 44.2896 140.132 44.2896 142.14Z" fill="white"/>
<path d="M58.8301 142.14C58.8301 142.988 58.8301 145.776 58.8301 145.776C58.8301 145.776 56.3553 145.776 55.195 145.776C54.2891 145.776 51.5598 145.776 51.5598 145.776C51.5598 145.776 51.5598 143.243 51.5598 142.14C51.5598 140.132 53.1869 138.505 55.195 138.505C57.203 138.505 58.8301 140.132 58.8301 142.14Z" fill="white"/>
<path d="M77.0058 138.505C77.8535 138.505 80.6409 138.505 80.6409 138.505C80.6409 138.505 80.6409 140.98 80.6409 142.14C80.6409 143.046 80.6409 145.776 80.6409 145.776C80.6409 145.776 78.108 145.776 77.0058 145.776C74.9978 145.776 73.3707 144.147 73.3707 142.14C73.3707 140.134 74.9978 138.505 77.0058 138.505Z" fill="white"/>
<path d="M87.9112 138.505H80.6409V145.776H87.9112V138.505Z" fill="white"/>
<path d="M178.79 138.505C180.798 138.505 182.425 140.132 182.425 142.14C182.425 144.148 180.798 145.776 178.79 145.776C176.782 145.776 175.154 144.148 175.154 142.14C175.154 140.132 176.782 138.505 178.79 138.505Z" fill="white"/>
<path d="M193.33 138.505C195.338 138.505 196.965 140.132 196.965 142.14C196.965 144.148 195.338 145.776 193.33 145.776C191.322 145.776 189.695 144.148 189.695 142.14C189.695 140.132 191.322 138.505 193.33 138.505Z" fill="white"/>
<path d="M211.506 145.776V138.505H204.236C204.236 142.52 207.491 145.776 211.506 145.776Z" fill="white"/>
<path d="M218.776 138.505H211.506V145.776H218.776V138.505Z" fill="white"/>
<path d="M226.046 138.505H218.776V145.776H226.046V138.505Z" fill="white"/>
<path d="M233.317 138.505H226.046V145.776H233.317V138.505Z" fill="white"/>
<path d="M255.127 142.14C255.127 142.988 255.127 145.776 255.127 145.776C255.127 145.776 252.653 145.776 251.492 145.776C250.586 145.776 247.857 145.776 247.857 145.776C247.857 145.776 247.857 143.243 247.857 142.14C247.857 140.132 249.484 138.505 251.492 138.505C253.5 138.505 255.127 140.132 255.127 142.14Z" fill="white"/>
<path d="M29.749 149.411C29.749 150.258 29.749 153.046 29.749 153.046C29.749 153.046 27.2742 153.046 26.1139 153.046C25.208 153.046 22.4788 153.046 22.4788 153.046C22.4788 153.046 22.4788 150.513 22.4788 149.411C22.4788 147.403 24.1058 145.776 26.1139 145.776C28.1219 145.776 29.749 147.403 29.749 149.411Z" fill="white"/>
<path d="M44.2896 145.776H37.0193V153.046H44.2896V145.776Z" fill="white"/>
<path d="M51.5598 145.776H44.2896V153.046H51.5598V145.776Z" fill="white"/>
<path d="M58.8301 145.776H51.5598V153.046H58.8301V145.776Z" fill="white"/>
<path d="M66.1004 145.776H58.8301V153.046H66.1004V145.776Z" fill="white"/>
<path d="M66.1004 145.776V153.046H73.3707C73.3707 149.031 70.115 145.776 66.1004 145.776Z" fill="white"/>
<path d="M87.9112 145.776H80.6409V153.046H87.9112V145.776Z" fill="white"/>
<path d="M189.695 149.411C189.695 150.258 189.695 153.046 189.695 153.046C189.695 153.046 187.22 153.046 186.06 153.046C185.154 153.046 182.425 153.046 182.425 153.046C182.425 153.046 182.425 150.513 182.425 149.411C182.425 147.403 184.052 145.776 186.06 145.776C188.068 145.776 189.695 147.403 189.695 149.411Z" fill="white"/>
<path d="M226.046 145.776H218.776V153.046H226.046V145.776Z" fill="white"/>
<path d="M233.317 145.776H226.046V153.046H233.317V145.776Z" fill="white"/>
<path d="M233.317 145.776V153.046H240.587C240.587 149.031 237.331 145.776 233.317 145.776Z" fill="white"/>
<path d="M247.857 149.411C247.857 148.563 247.857 145.776 247.857 145.776C247.857 145.776 250.332 145.776 251.492 145.776C252.398 145.776 255.127 145.776 255.127 145.776C255.127 145.776 255.127 148.31 255.127 149.411C255.127 151.419 253.5 153.046 251.492 153.046C249.484 153.046 247.857 151.419 247.857 149.411Z" fill="white"/>
<path d="M18.8436 153.046C19.6913 153.046 22.4788 153.046 22.4788 153.046C22.4788 153.046 22.4788 155.521 22.4788 156.681C22.4788 157.587 22.4788 160.316 22.4788 160.316C22.4788 160.316 19.9458 160.316 18.8436 160.316C16.8356 160.316 15.2085 158.688 15.2085 156.681C15.2085 154.674 16.8356 153.046 18.8436 153.046Z" fill="white"/>
<path d="M29.749 153.046H22.4788V160.316H29.749V153.046Z" fill="white"/>
<path d="M44.2896 153.046H37.0193V160.316H44.2896V153.046Z" fill="white"/>
<path d="M51.5598 156.681C51.5598 155.833 51.5598 153.046 51.5598 153.046C51.5598 153.046 54.0346 153.046 55.195 153.046C56.1009 153.046 58.8301 153.046 58.8301 153.046C58.8301 153.046 58.8301 155.58 58.8301 156.681C58.8301 158.689 57.203 160.316 55.195 160.316C53.1869 160.316 51.5598 158.689 51.5598 156.681Z" fill="white"/>
<path d="M73.3707 153.046H66.1004V160.316H73.3707V153.046Z" fill="white"/>
<path d="M87.9112 153.046H80.6409V160.316H87.9112V153.046Z" fill="white"/>
<path d="M178.79 153.046C179.637 153.046 182.425 153.046 182.425 153.046C182.425 153.046 182.425 155.521 182.425 156.681C182.425 157.587 182.425 160.316 182.425 160.316C182.425 160.316 179.892 160.316 178.79 160.316C176.782 160.316 175.154 158.688 175.154 156.681C175.154 154.674 176.782 153.046 178.79 153.046Z" fill="white"/>
<path d="M189.695 153.046H182.425V160.316H189.695V153.046Z" fill="white"/>
<path d="M196.965 153.046H189.695V160.316H196.965V153.046Z" fill="white"/>
<path d="M200.6 160.316C199.753 160.316 196.965 160.316 196.965 160.316C196.965 160.316 196.965 157.841 196.965 156.681C196.965 155.775 196.965 153.046 196.965 153.046C196.965 153.046 199.5 153.046 200.6 153.046C202.608 153.046 204.236 154.673 204.236 156.681C204.236 158.689 202.608 160.316 200.6 160.316Z" fill="white"/>
<path d="M211.506 160.316H218.776V153.046C214.761 153.046 211.506 156.301 211.506 160.316Z" fill="white"/>
<path d="M226.046 153.046H218.776V160.316H226.046V153.046Z" fill="white"/>
<path d="M233.317 153.046H226.046V160.316H233.317V153.046Z" fill="white"/>
<path d="M240.587 153.046H233.317V160.316H240.587V153.046Z" fill="white"/>
<path d="M244.222 160.316C243.374 160.316 240.587 160.316 240.587 160.316C240.587 160.316 240.587 157.841 240.587 156.681C240.587 155.775 240.587 153.046 240.587 153.046C240.587 153.046 243.121 153.046 244.222 153.046C246.23 153.046 247.857 154.673 247.857 156.681C247.857 158.689 246.23 160.316 244.222 160.316Z" fill="white"/>
<path d="M29.749 160.316H22.4788V167.586H29.749V160.316Z" fill="white"/>
<path d="M37.0193 163.951C37.0193 163.103 37.0193 160.316 37.0193 160.316C37.0193 160.316 39.4941 160.316 40.6545 160.316C41.5603 160.316 44.2896 160.316 44.2896 160.316C44.2896 160.316 44.2896 162.85 44.2896 163.951C44.2896 165.959 42.6625 167.586 40.6545 167.586C38.6464 167.586 37.0193 165.959 37.0193 163.951Z" fill="white"/>
<path d="M62.4653 160.316C63.313 160.316 66.1004 160.316 66.1004 160.316C66.1004 160.316 66.1004 162.791 66.1004 163.951C66.1004 164.857 66.1004 167.586 66.1004 167.586C66.1004 167.586 63.5674 167.586 62.4653 167.586C60.4572 167.586 58.8301 165.958 58.8301 163.951C58.8301 161.945 60.4572 160.316 62.4653 160.316Z" fill="white"/>
<path d="M73.3707 160.316H66.1004V167.586H73.3707V160.316Z" fill="white"/>
<path d="M87.9112 167.586V160.316H80.6409C80.6409 164.331 83.8966 167.586 87.9112 167.586Z" fill="white"/>
<path d="M91.5463 167.586C90.6986 167.586 87.9112 167.586 87.9112 167.586C87.9112 167.586 87.9112 165.112 87.9112 163.951C87.9112 163.045 87.9112 160.316 87.9112 160.316C87.9112 160.316 90.4456 160.316 91.5463 160.316C93.5544 160.316 95.1815 161.943 95.1815 163.951C95.1815 165.959 93.5544 167.586 91.5463 167.586Z" fill="white"/>
<path d="M204.236 167.586H211.506V160.316C207.491 160.316 204.236 163.572 204.236 167.586Z" fill="white"/>
<path d="M218.776 160.316H211.506V167.586C215.52 167.586 218.776 164.331 218.776 160.316Z" fill="white"/>
<path d="M233.317 160.316H226.046V167.586H233.317V160.316Z" fill="white"/>
<path d="M251.492 160.316C253.5 160.316 255.127 161.943 255.127 163.951C255.127 165.959 253.5 167.586 251.492 167.586C249.484 167.586 247.857 165.959 247.857 163.951C247.857 161.943 249.484 160.316 251.492 160.316Z" fill="white"/>
<path d="M15.2085 174.857H22.4788V167.586C18.4641 167.586 15.2085 170.842 15.2085 174.857Z" fill="white"/>
<path d="M29.749 167.586H22.4788V174.857C26.4934 174.857 29.749 171.601 29.749 167.586Z" fill="white"/>
<path d="M51.5598 171.221C51.5598 172.069 51.5598 174.857 51.5598 174.857C51.5598 174.857 49.085 174.857 47.9247 174.857C47.0188 174.857 44.2896 174.857 44.2896 174.857C44.2896 174.857 44.2896 172.324 44.2896 171.221C44.2896 169.213 45.9167 167.586 47.9247 167.586C49.9328 167.586 51.5598 169.213 51.5598 171.221Z" fill="white"/>
<path d="M73.3707 167.586H66.1004V174.857H73.3707V167.586Z" fill="white"/>
<path d="M178.79 167.586C180.798 167.586 182.425 169.213 182.425 171.221C182.425 173.23 180.798 174.857 178.79 174.857C176.782 174.857 175.154 173.23 175.154 171.221C175.154 169.213 176.782 167.586 178.79 167.586Z" fill="white"/>
<path d="M193.33 167.586C195.338 167.586 196.965 169.213 196.965 171.221C196.965 173.23 195.338 174.857 193.33 174.857C191.322 174.857 189.695 173.23 189.695 171.221C189.695 169.213 191.322 167.586 193.33 167.586Z" fill="white"/>
<path d="M211.506 167.586H204.236V174.857H211.506V167.586Z" fill="white"/>
<path d="M218.776 174.857H226.046V167.586C222.032 167.586 218.776 170.842 218.776 174.857Z" fill="white"/>
<path d="M233.317 167.586H226.046V174.857H233.317V167.586Z" fill="white"/>
<path d="M236.952 174.857C236.104 174.857 233.317 174.857 233.317 174.857C233.317 174.857 233.317 172.382 233.317 171.221C233.317 170.316 233.317 167.586 233.317 167.586C233.317 167.586 235.851 167.586 236.952 167.586C238.96 167.586 240.587 169.213 240.587 171.221C240.587 173.23 238.96 174.857 236.952 174.857Z" fill="white"/>
<path d="M22.4788 174.857H15.2085V182.127H22.4788V174.857Z" fill="white"/>
<path d="M37.0193 182.127H44.2896V174.857C40.275 174.857 37.0193 178.112 37.0193 182.127Z" fill="white"/>
<path d="M51.5598 174.857H44.2896V182.127H51.5598V174.857Z" fill="white"/>
<path d="M58.8301 174.857H51.5598V182.127H58.8301V174.857Z" fill="white"/>
<path d="M66.1004 174.857H58.8301V182.127H66.1004V174.857Z" fill="white"/>
<path d="M73.3707 174.857H66.1004V182.127C70.115 182.127 73.3707 178.871 73.3707 174.857Z" fill="white"/>
<path d="M80.6409 182.127H87.9112V174.857C83.8966 174.857 80.6409 178.112 80.6409 182.127Z" fill="white"/>
<path d="M95.1815 174.857H87.9112V182.127H95.1815V174.857Z" fill="white"/>
<path d="M102.452 174.857H95.1815V182.127H102.452V174.857Z" fill="white"/>
<path d="M106.087 182.127C105.239 182.127 102.452 182.127 102.452 182.127C102.452 182.127 102.452 179.652 102.452 178.492C102.452 177.586 102.452 174.857 102.452 174.857C102.452 174.857 104.986 174.857 106.087 174.857C108.095 174.857 109.722 176.484 109.722 178.492C109.722 180.5 108.095 182.127 106.087 182.127Z" fill="white"/>
<path d="M120.627 174.857C121.475 174.857 124.263 174.857 124.263 174.857C124.263 174.857 124.263 177.331 124.263 178.492C124.263 179.398 124.263 182.127 124.263 182.127C124.263 182.127 121.73 182.127 120.627 182.127C118.619 182.127 116.992 180.498 116.992 178.492C116.992 176.485 118.619 174.857 120.627 174.857Z" fill="white"/>
<path d="M124.263 174.857V182.127H131.533C131.533 178.112 128.277 174.857 124.263 174.857Z" fill="white"/>
<path d="M138.803 182.127H146.073V174.857C142.059 174.857 138.803 178.112 138.803 182.127Z" fill="white"/>
<path d="M153.344 174.857H146.073V182.127H153.344V174.857Z" fill="white"/>
<path d="M153.344 174.857V182.127H160.614C160.614 178.112 157.358 174.857 153.344 174.857Z" fill="white"/>
<path d="M171.519 174.857C173.527 174.857 175.154 176.484 175.154 178.492C175.154 180.5 173.527 182.127 171.519 182.127C169.511 182.127 167.884 180.5 167.884 178.492C167.884 176.484 169.511 174.857 171.519 174.857Z" fill="white"/>
<path d="M189.695 178.492C189.695 179.339 189.695 182.127 189.695 182.127C189.695 182.127 187.22 182.127 186.06 182.127C185.154 182.127 182.425 182.127 182.425 182.127C182.425 182.127 182.425 179.594 182.425 178.492C182.425 176.484 184.052 174.857 186.06 174.857C188.068 174.857 189.695 176.484 189.695 178.492Z" fill="white"/>
<path d="M204.236 178.492C204.236 177.644 204.236 174.857 204.236 174.857C204.236 174.857 206.71 174.857 207.871 174.857C208.777 174.857 211.506 174.857 211.506 174.857C211.506 174.857 211.506 177.391 211.506 178.492C211.506 180.5 209.879 182.127 207.871 182.127C205.863 182.127 204.236 180.5 204.236 178.492Z" fill="white"/>
<path d="M226.046 174.857H218.776V182.127H226.046V174.857Z" fill="white"/>
<path d="M244.222 174.857C245.07 174.857 247.857 174.857 247.857 174.857C247.857 174.857 247.857 177.331 247.857 178.492C247.857 179.398 247.857 182.127 247.857 182.127C247.857 182.127 245.324 182.127 244.222 182.127C242.214 182.127 240.587 180.498 240.587 178.492C240.587 176.485 242.214 174.857 244.222 174.857Z" fill="white"/>
<path d="M251.492 182.127C250.645 182.127 247.857 182.127 247.857 182.127C247.857 182.127 247.857 179.652 247.857 178.492C247.857 177.586 247.857 174.857 247.857 174.857C247.857 174.857 250.392 174.857 251.492 174.857C253.5 174.857 255.127 176.484 255.127 178.492C255.127 180.5 253.5 182.127 251.492 182.127Z" fill="white"/>
<path d="M22.4788 182.127H15.2085V189.397H22.4788V182.127Z" fill="white"/>
<path d="M29.749 189.397H37.0193V182.127C33.0046 182.127 29.749 185.382 29.749 189.397Z" fill="white"/>
<path d="M44.2896 182.127H37.0193V189.397H44.2896V182.127Z" fill="white"/>
<path d="M80.6409 185.762C80.6409 184.914 80.6409 182.127 80.6409 182.127C80.6409 182.127 83.1157 182.127 84.2761 182.127C85.182 182.127 87.9112 182.127 87.9112 182.127C87.9112 182.127 87.9112 184.661 87.9112 185.762C87.9112 187.77 86.2841 189.397 84.2761 189.397C82.268 189.397 80.6409 187.77 80.6409 185.762Z" fill="white"/>
<path d="M95.1815 185.762C95.1815 184.914 95.1815 182.127 95.1815 182.127C95.1815 182.127 97.6563 182.127 98.8166 182.127C99.7225 182.127 102.452 182.127 102.452 182.127C102.452 182.127 102.452 184.661 102.452 185.762C102.452 187.77 100.825 189.397 98.8166 189.397C96.8085 189.397 95.1815 187.77 95.1815 185.762Z" fill="white"/>
<path d="M131.533 182.127H124.263V189.397H131.533V182.127Z" fill="white"/>
<path d="M138.803 182.127H131.533V189.397H138.803V182.127Z" fill="white"/>
<path d="M146.073 182.127H138.803V189.397C142.818 189.397 146.073 186.141 146.073 182.127Z" fill="white"/>
<path d="M160.614 189.397V182.127H153.344C153.344 186.141 156.599 189.397 160.614 189.397Z" fill="white"/>
<path d="M164.249 189.397C163.401 189.397 160.614 189.397 160.614 189.397C160.614 189.397 160.614 186.922 160.614 185.762C160.614 184.856 160.614 182.127 160.614 182.127C160.614 182.127 163.148 182.127 164.249 182.127C166.257 182.127 167.884 183.754 167.884 185.762C167.884 187.77 166.257 189.397 164.249 189.397Z" fill="white"/>
<path d="M189.695 182.127H182.425V189.397H189.695V182.127Z" fill="white"/>
<path d="M189.695 182.127V189.397H196.965C196.965 185.382 193.71 182.127 189.695 182.127Z" fill="white"/>
<path d="M211.506 189.397H218.776V182.127C214.761 182.127 211.506 185.382 211.506 189.397Z" fill="white"/>
<path d="M226.046 182.127H218.776V189.397H226.046V182.127Z" fill="white"/>
<path d="M236.952 182.127C238.96 182.127 240.587 183.754 240.587 185.762C240.587 187.77 238.96 189.397 236.952 189.397C234.944 189.397 233.317 187.77 233.317 185.762C233.317 183.754 234.944 182.127 236.952 182.127Z" fill="white"/>
<path d="M22.4788 196.667V189.397H15.2085C15.2085 193.412 18.4641 196.667 22.4788 196.667Z" fill="white"/>
<path d="M29.749 189.397H22.4788V196.667H29.749V189.397Z" fill="white"/>
<path d="M37.0193 189.397H29.749V196.667H37.0193V189.397Z" fill="white"/>
<path d="M44.2896 189.397H37.0193V196.667H44.2896V189.397Z" fill="white"/>
<path d="M47.9247 196.667C47.077 196.667 44.2896 196.667 44.2896 196.667C44.2896 196.667 44.2896 194.193 44.2896 193.032C44.2896 192.126 44.2896 189.397 44.2896 189.397C44.2896 189.397 46.824 189.397 47.9247 189.397C49.9328 189.397 51.5598 191.024 51.5598 193.032C51.5598 195.04 49.9328 196.667 47.9247 196.667Z" fill="white"/>
<path d="M62.4653 189.397C63.313 189.397 66.1004 189.397 66.1004 189.397C66.1004 189.397 66.1004 191.872 66.1004 193.032C66.1004 193.938 66.1004 196.667 66.1004 196.667C66.1004 196.667 63.5674 196.667 62.4653 196.667C60.4572 196.667 58.8301 195.039 58.8301 193.032C58.8301 191.026 60.4572 189.397 62.4653 189.397Z" fill="white"/>
<path d="M69.7355 196.667C68.8878 196.667 66.1004 196.667 66.1004 196.667C66.1004 196.667 66.1004 194.193 66.1004 193.032C66.1004 192.126 66.1004 189.397 66.1004 189.397C66.1004 189.397 68.6348 189.397 69.7355 189.397C71.7436 189.397 73.3707 191.024 73.3707 193.032C73.3707 195.04 71.7436 196.667 69.7355 196.667Z" fill="white"/>
<path d="M106.087 189.397C108.095 189.397 109.722 191.024 109.722 193.032C109.722 195.04 108.095 196.667 106.087 196.667C104.079 196.667 102.452 195.04 102.452 193.032C102.452 191.024 104.079 189.397 106.087 189.397Z" fill="white"/>
<path d="M116.992 196.667H124.263V189.397C120.248 189.397 116.992 192.653 116.992 196.667Z" fill="white"/>
<path d="M131.533 189.397H124.263V196.667H131.533V189.397Z" fill="white"/>
<path d="M178.79 189.397C179.637 189.397 182.425 189.397 182.425 189.397C182.425 189.397 182.425 191.872 182.425 193.032C182.425 193.938 182.425 196.667 182.425 196.667C182.425 196.667 179.892 196.667 178.79 196.667C176.782 196.667 175.154 195.039 175.154 193.032C175.154 191.026 176.782 189.397 178.79 189.397Z" fill="white"/>
<path d="M189.695 189.397H182.425V196.667H189.695V189.397Z" fill="white"/>
<path d="M196.965 189.397H189.695V196.667H196.965V189.397Z" fill="white"/>
<path d="M204.236 189.397H196.965V196.667H204.236V189.397Z" fill="white"/>
<path d="M211.506 189.397H204.236V196.667H211.506V189.397Z" fill="white"/>
<path d="M218.776 189.397H211.506V196.667H218.776V189.397Z" fill="white"/>
<path d="M226.046 189.397H218.776V196.667H226.046V189.397Z" fill="white"/>
<path d="M251.492 189.397C253.5 189.397 255.127 191.024 255.127 193.032C255.127 195.04 253.5 196.667 251.492 196.667C249.484 196.667 247.857 195.04 247.857 193.032C247.857 191.024 249.484 189.397 251.492 189.397Z" fill="white"/>
<path d="M80.6409 200.303C80.6409 201.15 80.6409 203.938 80.6409 203.938C80.6409 203.938 78.1661 203.938 77.0058 203.938C76.0999 203.938 73.3707 203.938 73.3707 203.938C73.3707 203.938 73.3707 201.405 73.3707 200.303C73.3707 198.295 74.9978 196.667 77.0058 196.667C79.0139 196.667 80.6409 198.295 80.6409 200.303Z" fill="white"/>
<path d="M98.8166 196.667C100.825 196.667 102.452 198.295 102.452 200.303C102.452 202.311 100.825 203.938 98.8166 203.938C96.8085 203.938 95.1815 202.311 95.1815 200.303C95.1815 198.295 96.8085 196.667 98.8166 196.667Z" fill="white"/>
<path d="M109.722 203.938H116.992V196.667C112.978 196.667 109.722 199.923 109.722 203.938Z" fill="white"/>
<path d="M124.263 196.667H116.992V203.938H124.263V196.667Z" fill="white"/>
<path d="M131.533 196.667H124.263V203.938H131.533V196.667Z" fill="white"/>
<path d="M131.533 196.667V203.938H138.803C138.803 199.923 135.547 196.667 131.533 196.667Z" fill="white"/>
<path d="M156.979 196.667C157.826 196.667 160.614 196.667 160.614 196.667C160.614 196.667 160.614 199.142 160.614 200.303C160.614 201.208 160.614 203.938 160.614 203.938C160.614 203.938 158.081 203.938 156.979 203.938C154.971 203.938 153.344 202.309 153.344 200.303C153.344 198.296 154.971 196.667 156.979 196.667Z" fill="white"/>
<path d="M167.884 196.667H160.614V203.938H167.884V196.667Z" fill="white"/>
<path d="M171.519 203.938C170.672 203.938 167.884 203.938 167.884 203.938C167.884 203.938 167.884 201.463 167.884 200.303C167.884 199.397 167.884 196.667 167.884 196.667C167.884 196.667 170.419 196.667 171.519 196.667C173.527 196.667 175.154 198.295 175.154 200.303C175.154 202.311 173.527 203.938 171.519 203.938Z" fill="white"/>
<path d="M196.965 196.667H189.695V203.938H196.965V196.667Z" fill="white"/>
<path d="M226.046 196.667H218.776V203.938H226.046V196.667Z" fill="white"/>
<path d="M226.046 196.667V203.938H233.317C233.317 199.923 230.061 196.667 226.046 196.667Z" fill="white"/>
<path d="M80.6409 211.208V203.938H73.3707C73.3707 207.952 76.6263 211.208 80.6409 211.208Z" fill="white"/>
<path d="M84.2761 211.208C83.4284 211.208 80.6409 211.208 80.6409 211.208C80.6409 211.208 80.6409 208.733 80.6409 207.573C80.6409 206.667 80.6409 203.938 80.6409 203.938C80.6409 203.938 83.1754 203.938 84.2761 203.938C86.2841 203.938 87.9112 205.565 87.9112 207.573C87.9112 209.581 86.2841 211.208 84.2761 211.208Z" fill="white"/>
<path d="M116.992 203.938H109.722V211.208H116.992V203.938Z" fill="white"/>
<path d="M131.533 203.938H124.263V211.208H131.533V203.938Z" fill="white"/>
<path d="M138.803 203.938H131.533V211.208H138.803V203.938Z" fill="white"/>
<path d="M142.438 211.208C141.591 211.208 138.803 211.208 138.803 211.208C138.803 211.208 138.803 208.733 138.803 207.573C138.803 206.667 138.803 203.938 138.803 203.938C138.803 203.938 141.338 203.938 142.438 203.938C144.446 203.938 146.073 205.565 146.073 207.573C146.073 209.581 144.446 211.208 142.438 211.208Z" fill="white"/>
<path d="M160.614 207.573C160.614 206.725 160.614 203.938 160.614 203.938C160.614 203.938 163.089 203.938 164.249 203.938C165.155 203.938 167.884 203.938 167.884 203.938C167.884 203.938 167.884 206.472 167.884 207.573C167.884 209.581 166.257 211.208 164.249 211.208C162.241 211.208 160.614 209.581 160.614 207.573Z" fill="white"/>
<path d="M182.425 211.208H189.695V203.938C185.68 203.938 182.425 207.193 182.425 211.208Z" fill="white"/>
<path d="M196.965 203.938H189.695V211.208H196.965V203.938Z" fill="white"/>
<path d="M207.871 203.938C209.879 203.938 211.506 205.565 211.506 207.573C211.506 209.581 209.879 211.208 207.871 211.208C205.863 211.208 204.236 209.581 204.236 207.573C204.236 205.565 205.863 203.938 207.871 203.938Z" fill="white"/>
<path d="M226.046 203.938H218.776V211.208H226.046V203.938Z" fill="white"/>
<path d="M233.317 203.938H226.046V211.208H233.317V203.938Z" fill="white"/>
<path d="M233.317 203.938V211.208H240.587C240.587 207.193 237.331 203.938 233.317 203.938Z" fill="white"/>
<path d="M91.5463 211.208C93.5544 211.208 95.1815 212.835 95.1815 214.843C95.1815 216.851 93.5544 218.478 91.5463 218.478C89.5383 218.478 87.9112 216.851 87.9112 214.843C87.9112 212.835 89.5383 211.208 91.5463 211.208Z" fill="white"/>
<path d="M116.992 211.208H109.722V218.478H116.992V211.208Z" fill="white"/>
<path d="M131.533 218.478V211.208H124.263C124.263 215.223 127.518 218.478 131.533 218.478Z" fill="white"/>
<path d="M138.803 211.208H131.533V218.478C135.547 218.478 138.803 215.223 138.803 211.208Z" fill="white"/>
<path d="M167.884 218.478H175.154V211.208C171.14 211.208 167.884 214.464 167.884 218.478Z" fill="white"/>
<path d="M182.425 211.208H175.154V218.478H182.425V211.208Z" fill="white"/>
<path d="M189.695 211.208H182.425V218.478H189.695V211.208Z" fill="white"/>
<path d="M196.965 211.208H189.695V218.478H196.965V211.208Z" fill="white"/>
<path d="M226.046 211.208H218.776V218.478H226.046V211.208Z" fill="white"/>
<path d="M233.317 211.208H226.046V218.478H233.317V211.208Z" fill="white"/>
<path d="M240.587 211.208H233.317V218.478H240.587V211.208Z" fill="white"/>
<path d="M240.587 211.208V218.478H247.857C247.857 214.464 244.601 211.208 240.587 211.208Z" fill="white"/>
<path d="M73.3707 225.748H80.6409V218.478C76.6263 218.478 73.3707 221.734 73.3707 225.748Z" fill="white"/>
<path d="M80.6409 218.478V225.748H87.9112C87.9112 221.734 84.6556 218.478 80.6409 218.478Z" fill="white"/>
<path d="M102.452 225.748H109.722V218.478C105.707 218.478 102.452 221.734 102.452 225.748Z" fill="white"/>
<path d="M116.992 218.478H109.722V225.748H116.992V218.478Z" fill="white"/>
<path d="M116.992 218.478V225.748H124.263C124.263 221.734 121.007 218.478 116.992 218.478Z" fill="white"/>
<path d="M160.614 225.748H167.884V218.478C163.87 218.478 160.614 221.734 160.614 225.748Z" fill="white"/>
<path d="M175.154 218.478H167.884V225.748H175.154V218.478Z" fill="white"/>
<path d="M182.425 218.478H175.154V225.748H182.425V218.478Z" fill="white"/>
<path d="M189.695 218.478H182.425V225.748H189.695V218.478Z" fill="white"/>
<path d="M196.965 218.478H189.695V225.748H196.965V218.478Z" fill="white"/>
<path d="M204.236 218.478H196.965V225.748H204.236V218.478Z" fill="white"/>
<path d="M211.506 218.478H204.236V225.748H211.506V218.478Z" fill="white"/>
<path d="M218.776 218.478H211.506V225.748H218.776V218.478Z" fill="white"/>
<path d="M226.046 218.478H218.776V225.748H226.046V218.478Z" fill="white"/>
<path d="M233.317 218.478H226.046V225.748C230.061 225.748 233.317 222.493 233.317 218.478Z" fill="white"/>
<path d="M247.857 218.478H240.587V225.748H247.857V218.478Z" fill="white"/>
<path d="M80.6409 233.019V225.748H73.3707C73.3707 229.763 76.6263 233.019 80.6409 233.019Z" fill="white"/>
<path d="M87.9112 225.748H80.6409V233.019H87.9112V225.748Z" fill="white"/>
<path d="M95.1815 233.019H102.452V225.748C98.4371 225.748 95.1815 229.004 95.1815 233.019Z" fill="white"/>
<path d="M109.722 225.748H102.452V233.019H109.722V225.748Z" fill="white"/>
<path d="M116.992 225.748H109.722V233.019H116.992V225.748Z" fill="white"/>
<path d="M124.263 225.748H116.992V233.019H124.263V225.748Z" fill="white"/>
<path d="M131.533 225.748H124.263V233.019H131.533V225.748Z" fill="white"/>
<path d="M135.168 233.019C134.32 233.019 131.533 233.019 131.533 233.019C131.533 233.019 131.533 230.544 131.533 229.384C131.533 228.478 131.533 225.748 131.533 225.748C131.533 225.748 134.067 225.748 135.168 225.748C137.176 225.748 138.803 227.376 138.803 229.384C138.803 231.392 137.176 233.019 135.168 233.019Z" fill="white"/>
<path d="M153.344 229.384C153.344 230.231 153.344 233.019 153.344 233.019C153.344 233.019 150.869 233.019 149.708 233.019C148.803 233.019 146.073 233.019 146.073 233.019C146.073 233.019 146.073 230.486 146.073 229.384C146.073 227.376 147.7 225.748 149.708 225.748C151.717 225.748 153.344 227.376 153.344 229.384Z" fill="white"/>
<path d="M167.884 233.019V225.748H160.614C160.614 229.763 163.87 233.019 167.884 233.019Z" fill="white"/>
<path d="M175.154 225.748H167.884V233.019H175.154V225.748Z" fill="white"/>
<path d="M182.425 225.748H175.154V233.019H182.425V225.748Z" fill="white"/>
<path d="M189.695 225.748H182.425V233.019C186.439 233.019 189.695 229.763 189.695 225.748Z" fill="white"/>
<path d="M196.965 229.384C196.965 228.536 196.965 225.748 196.965 225.748C196.965 225.748 199.44 225.748 200.6 225.748C201.506 225.748 204.236 225.748 204.236 225.748C204.236 225.748 204.236 228.283 204.236 229.384C204.236 231.392 202.608 233.019 200.6 233.019C198.592 233.019 196.965 231.392 196.965 229.384Z" fill="white"/>
<path d="M211.506 229.384C211.506 228.536 211.506 225.748 211.506 225.748C211.506 225.748 213.981 225.748 215.141 225.748C216.047 225.748 218.776 225.748 218.776 225.748C218.776 225.748 218.776 228.283 218.776 229.384C218.776 231.392 217.149 233.019 215.141 233.019C213.133 233.019 211.506 231.392 211.506 229.384Z" fill="white"/>
<path d="M247.857 225.748H240.587V233.019H247.857V225.748Z" fill="white"/>
<path d="M80.6409 236.654C80.6409 235.806 80.6409 233.019 80.6409 233.019C80.6409 233.019 83.1157 233.019 84.2761 233.019C85.182 233.019 87.9112 233.019 87.9112 233.019C87.9112 233.019 87.9112 235.553 87.9112 236.654C87.9112 238.662 86.2841 240.289 84.2761 240.289C82.268 240.289 80.6409 238.662 80.6409 236.654Z" fill="white"/>
<path d="M102.452 240.289V233.019H95.1815C95.1815 237.033 98.4371 240.289 102.452 240.289Z" fill="white"/>
<path d="M109.722 233.019H102.452V240.289H109.722V233.019Z" fill="white"/>
<path d="M124.263 233.019H116.992V240.289H124.263V233.019Z" fill="white"/>
<path d="M131.533 233.019H124.263V240.289C128.277 240.289 131.533 237.033 131.533 233.019Z" fill="white"/>
<path d="M142.438 233.019C143.286 233.019 146.073 233.019 146.073 233.019C146.073 233.019 146.073 235.494 146.073 236.654C146.073 237.56 146.073 240.289 146.073 240.289C146.073 240.289 143.54 240.289 142.438 240.289C140.43 240.289 138.803 238.66 138.803 236.654C138.803 234.647 140.43 233.019 142.438 233.019Z" fill="white"/>
<path d="M153.344 233.019H146.073V240.289C150.088 240.289 153.344 237.033 153.344 233.019Z" fill="white"/>
<path d="M175.154 236.654C175.154 235.806 175.154 233.019 175.154 233.019C175.154 233.019 177.629 233.019 178.79 233.019C179.695 233.019 182.425 233.019 182.425 233.019C182.425 233.019 182.425 235.553 182.425 236.654C182.425 238.662 180.798 240.289 178.79 240.289C176.782 240.289 175.154 238.662 175.154 236.654Z" fill="white"/>
<path d="M222.411 233.019C224.419 233.019 226.046 234.646 226.046 236.654C226.046 238.662 224.419 240.289 222.411 240.289C220.403 240.289 218.776 238.662 218.776 236.654C218.776 234.646 220.403 233.019 222.411 233.019Z" fill="white"/>
<path d="M247.857 233.019H240.587V240.289H247.857V233.019Z" fill="white"/>
<path d="M247.857 233.019V240.289H255.127C255.127 236.274 251.872 233.019 247.857 233.019Z" fill="white"/>
<path d="M109.722 240.289H102.452V247.559H109.722V240.289Z" fill="white"/>
<path d="M116.992 240.289H109.722V247.559H116.992V240.289Z" fill="white"/>
<path d="M124.263 240.289H116.992V247.559C121.007 247.559 124.263 244.304 124.263 240.289Z" fill="white"/>
<path d="M135.168 240.289C137.176 240.289 138.803 241.916 138.803 243.924C138.803 245.932 137.176 247.559 135.168 247.559C133.16 247.559 131.533 245.932 131.533 243.924C131.533 241.916 133.16 240.289 135.168 240.289Z" fill="white"/>
<path d="M156.979 240.289C157.826 240.289 160.614 240.289 160.614 240.289C160.614 240.289 160.614 242.764 160.614 243.924C160.614 244.83 160.614 247.559 160.614 247.559C160.614 247.559 158.081 247.559 156.979 247.559C154.971 247.559 153.344 245.931 153.344 243.924C153.344 241.918 154.971 240.289 156.979 240.289Z" fill="white"/>
<path d="M167.884 240.289H160.614V247.559H167.884V240.289Z" fill="white"/>
<path d="M167.884 240.289V247.559H175.154C175.154 243.545 171.899 240.289 167.884 240.289Z" fill="white"/>
<path d="M189.695 243.924C189.695 244.772 189.695 247.559 189.695 247.559C189.695 247.559 187.22 247.559 186.06 247.559C185.154 247.559 182.425 247.559 182.425 247.559C182.425 247.559 182.425 245.026 182.425 243.924C182.425 241.916 184.052 240.289 186.06 240.289C188.068 240.289 189.695 241.916 189.695 243.924Z" fill="white"/>
<path d="M200.6 240.289C201.448 240.289 204.236 240.289 204.236 240.289C204.236 240.289 204.236 242.764 204.236 243.924C204.236 244.83 204.236 247.559 204.236 247.559C204.236 247.559 201.703 247.559 200.6 247.559C198.592 247.559 196.965 245.931 196.965 243.924C196.965 241.918 198.592 240.289 200.6 240.289Z" fill="white"/>
<path d="M207.871 247.559C207.023 247.559 204.236 247.559 204.236 247.559C204.236 247.559 204.236 245.084 204.236 243.924C204.236 243.018 204.236 240.289 204.236 240.289C204.236 240.289 206.77 240.289 207.871 240.289C209.879 240.289 211.506 241.916 211.506 243.924C211.506 245.932 209.879 247.559 207.871 247.559Z" fill="white"/>
<path d="M229.681 240.289C230.529 240.289 233.317 240.289 233.317 240.289C233.317 240.289 233.317 242.764 233.317 243.924C233.317 244.83 233.317 247.559 233.317 247.559C233.317 247.559 230.784 247.559 229.681 247.559C227.673 247.559 226.046 245.931 226.046 243.924C226.046 241.918 227.673 240.289 229.681 240.289Z" fill="white"/>
<path d="M240.587 240.289H233.317V247.559H240.587V240.289Z" fill="white"/>
<path d="M247.857 240.289H240.587V247.559H247.857V240.289Z" fill="white"/>
<path d="M255.127 240.289H247.857V247.559C251.872 247.559 255.127 244.304 255.127 240.289Z" fill="white"/>
<path d="M84.2761 247.559C85.1238 247.559 87.9112 247.559 87.9112 247.559C87.9112 247.559 87.9112 250.034 87.9112 251.194C87.9112 252.1 87.9112 254.83 87.9112 254.83C87.9112 254.83 85.3782 254.83 84.2761 254.83C82.268 254.83 80.6409 253.201 80.6409 251.194C80.6409 249.188 82.268 247.559 84.2761 247.559Z" fill="white"/>
<path d="M95.1815 247.559H87.9112V254.83H95.1815V247.559Z" fill="white"/>
<path d="M102.452 247.559H95.1815V254.83H102.452V247.559Z" fill="white"/>
<path d="M109.722 247.559H102.452V254.83H109.722V247.559Z" fill="white"/>
<path d="M116.992 247.559H109.722V254.83C113.737 254.83 116.992 251.574 116.992 247.559Z" fill="white"/>
<path d="M149.708 247.559C151.717 247.559 153.344 249.186 153.344 251.194C153.344 253.202 151.717 254.83 149.708 254.83C147.7 254.83 146.073 253.202 146.073 251.194C146.073 249.186 147.7 247.559 149.708 247.559Z" fill="white"/>
<path d="M167.884 254.83V247.559H160.614C160.614 251.574 163.87 254.83 167.884 254.83Z" fill="white"/>
<path d="M175.154 247.559H167.884V254.83C171.899 254.83 175.154 251.574 175.154 247.559Z" fill="white"/>
<path d="M189.695 254.83V247.559H182.425C182.425 251.574 185.68 254.83 189.695 254.83Z" fill="white"/>
<path d="M193.33 254.83C192.482 254.83 189.695 254.83 189.695 254.83C189.695 254.83 189.695 252.355 189.695 251.194C189.695 250.289 189.695 247.559 189.695 247.559C189.695 247.559 192.229 247.559 193.33 247.559C195.338 247.559 196.965 249.186 196.965 251.194C196.965 253.202 195.338 254.83 193.33 254.83Z" fill="white"/>
<path d="M222.411 247.559C224.419 247.559 226.046 249.186 226.046 251.194C226.046 253.202 224.419 254.83 222.411 254.83C220.403 254.83 218.776 253.202 218.776 251.194C218.776 249.186 220.403 247.559 222.411 247.559Z" fill="white"/>
<path d="M48.7099 14.9252H32.5771C24.6889 14.9252 18.022 20.1161 15.9355 27.241C15.7319 27.9535 15.5283 28.7169 15.4266 29.4803C15.2739 30.3454 15.223 31.2106 15.223 32.0757V48.6156C15.223 58.0815 23.0095 65.8171 32.5771 65.8171H40.6689H48.7608C58.3284 65.8171 66.1149 58.1324 66.1149 48.6156V32.0757C66.1149 22.6098 58.3284 14.9252 48.7099 14.9252ZM58.4811 48.6156C58.4811 53.8575 54.1044 58.1833 48.7608 58.1833H40.6689H32.5771C27.1826 58.1833 22.8568 53.9084 22.8568 48.6156V32.0757C22.8568 30.4472 23.2639 28.8695 24.0273 27.5464C24.7398 26.2232 25.7576 25.1035 26.979 24.2893C28.5567 23.2205 30.4906 22.559 32.5771 22.559H48.7099C54.1044 22.559 58.4302 26.8339 58.4302 32.1266V48.6156H58.4811Z" fill="white"/>
<path d="M237.737 14.9252H221.604C213.716 14.9252 207.049 20.1161 204.963 27.241C204.759 27.9535 204.555 28.7169 204.454 29.4803C204.301 30.3454 204.25 31.2106 204.25 32.0757V48.6156C204.25 58.0815 212.037 65.8171 221.604 65.8171H229.696H237.788C247.356 65.8171 255.142 58.1324 255.142 48.6156V32.0757C255.142 22.6098 247.356 14.9252 237.737 14.9252ZM247.508 48.6156C247.508 53.8575 243.131 58.1833 237.788 58.1833H229.696H221.604C216.21 58.1833 211.884 53.9084 211.884 48.6156V32.0757C211.884 30.4472 212.291 28.8695 213.054 27.5464C213.767 26.2232 214.785 25.1035 216.006 24.2893C217.584 23.2205 219.518 22.559 221.604 22.559H237.737C243.131 22.559 247.457 26.8339 247.457 32.1266V48.6156H247.508Z" fill="white"/>
<path d="M48.7099 203.952H32.5771C24.6889 203.952 18.022 209.143 15.9355 216.268C15.7319 216.981 15.5283 217.744 15.4266 218.507C15.2739 219.373 15.223 220.238 15.223 221.103V237.643C15.223 247.109 23.0095 254.844 32.5771 254.844H40.6689H48.7608C58.3284 254.844 66.1149 247.159 66.1149 237.643V221.103C66.1149 211.637 58.3284 203.952 48.7099 203.952ZM58.4811 237.643C58.4811 242.885 54.1044 247.21 48.7608 247.21H40.6689H32.5771C27.1826 247.21 22.8568 242.935 22.8568 237.643V221.103C22.8568 219.474 23.2639 217.897 24.0273 216.573C24.7398 215.25 25.7576 214.131 26.979 213.316C28.5567 212.248 30.4906 211.586 32.5771 211.586H48.7099C54.1044 211.586 58.4302 215.861 58.4302 221.154V237.643H58.4811Z" fill="white"/>
<path d="M35.7107 51.2693C32.4172 51.2693 29.7345 48.652 29.7345 45.424V35.3038C29.7345 34.3005 29.9962 33.3408 30.4543 32.512C30.8905 31.705 31.523 31.0288 32.2864 30.5054C33.246 29.8292 34.4456 29.4366 35.7107 29.4366H45.591C48.8844 29.4366 51.5671 32.0539 51.5671 35.2819V45.4022C51.5671 48.6302 48.8844 51.2475 45.591 51.2475H40.6399L35.7107 51.2693Z" fill="white"/>
<path d="M224.738 51.2693C221.444 51.2693 218.762 48.652 218.762 45.424V35.3038C218.762 34.3005 219.023 33.3408 219.481 32.512C219.918 31.705 220.55 31.0288 221.313 30.5054C222.273 29.8292 223.473 29.4366 224.738 29.4366H234.618C237.911 29.4366 240.594 32.0539 240.594 35.2819V45.4022C240.594 48.6302 237.911 51.2475 234.618 51.2475H229.667L224.738 51.2693Z" fill="white"/>
<path d="M35.7107 240.296C32.4172 240.296 29.7345 237.679 29.7345 234.451V224.331C29.7345 223.327 29.9962 222.368 30.4543 221.539C30.8905 220.732 31.523 220.056 32.2864 219.532C33.246 218.856 34.4456 218.464 35.7107 218.464H45.591C48.8844 218.464 51.5671 221.081 51.5671 224.309V234.429C51.5671 237.657 48.8844 240.274 45.591 240.274H40.6399L35.7107 240.296Z" fill="white"/>
</mask>
<g mask="url(#mask0_2_1871)">
<path d="M255.127 14.9106H15.2085V254.83H255.127V14.9106Z" fill="url(#paint0_linear_2_1871)"/>
</g>
<path d="M158.855 110.315H145.534H125.787H113.709C112.489 110.456 110.73 110.949 109.37 112.52C108.268 113.786 107.916 115.193 107.799 116.225V117.656V121.221C107.799 123.238 109.441 124.903 111.481 124.903C113.498 124.903 115.163 123.261 115.163 121.221V117.679H122.105V161.254C122.105 163.271 123.747 164.936 125.787 164.936C127.804 164.936 129.469 163.295 129.469 161.254V117.656H141.852V157.572V158.768C141.946 159.988 142.391 161.887 144.08 163.365C145.346 164.467 146.753 164.819 147.785 164.936H149.216H152.781C154.798 164.936 156.463 163.295 156.463 161.254C156.463 159.237 154.821 157.572 152.781 157.572H149.216V117.656H158.878C160.895 117.656 162.56 116.014 162.56 113.974C162.537 111.957 160.895 110.315 158.855 110.315Z" fill="url(#paint1_linear_2_1871)"/>
<defs>
<linearGradient id="paint0_linear_2_1871" x1="135.154" y1="14.9041" x2="135.154" y2="254.823" gradientUnits="userSpaceOnUse">
<stop offset="0.05" stop-color="#12D6D6"/>
<stop offset="0.95" stop-color="#2E3192"/>
</linearGradient>
<linearGradient id="paint1_linear_2_1871" x1="135.186" y1="34.2738" x2="135.186" y2="238.22" gradientUnits="userSpaceOnUse">
<stop offset="0.05" stop-color="#12D6D6"/>
<stop offset="0.95" stop-color="#2E3192"/>
</linearGradient>
</defs>
</svg>
