<svg width="41" height="41" viewBox="0 0 41 41" fill="none" xmlns="http://www.w3.org/2000/svg">
<path d="M37.825 0.765564H28.0934H13.6673H4.84368C3.95276 0.868669 2.66777 1.22954 1.67405 2.38088C0.868788 3.30882 0.611789 4.33987 0.526123 5.09597V6.14421V8.75619C0.526123 10.234 1.72545 11.4541 3.21603 11.4541C4.68948 11.4541 5.90594 10.2512 5.90594 8.75619V6.16139H10.9773V38.0895C10.9773 39.5674 12.1767 40.7875 13.6673 40.7875C15.1407 40.7875 16.3572 39.5846 16.3572 38.0895V6.14421H25.4035V35.3916V36.268C25.472 37.1616 25.7975 38.5535 27.0311 39.6361C27.9563 40.4438 28.9843 40.7015 29.7382 40.7875H30.7833H33.3875C34.861 40.7875 36.0774 39.5846 36.0774 38.0895C36.0774 36.6117 34.8781 35.3916 33.3875 35.3916H30.7833V6.14421H37.8421C39.3156 6.14421 40.532 4.94131 40.532 3.44629C40.5149 1.96846 39.3156 0.765564 37.825 0.765564Z" fill="url(#paint0_linear_52_2667)"/>
<defs>
<linearGradient id="paint0_linear_52_2667" x1="20.534" y1="-54.9518" x2="20.534" y2="94.4842" gradientUnits="userSpaceOnUse">
<stop offset="0.05" stop-color="#00DEFC"/>
<stop offset="0.95" stop-color="#BAFFD1"/>
</linearGradient>
</defs>
</svg>
