<svg width="406" height="407" viewBox="0 0 406 407" fill="none" xmlns="http://www.w3.org/2000/svg">
<path d="M239.779 160.277H218.779H187.65H168.61C166.688 160.499 163.915 161.278 161.771 163.762C160.033 165.765 159.478 167.989 159.293 169.621V171.883V177.519C159.293 180.708 161.881 183.341 165.098 183.341C168.277 183.341 170.902 180.745 170.902 177.519V171.92H181.846V240.816C181.846 244.005 184.434 246.638 187.65 246.638C190.83 246.638 193.454 244.042 193.454 240.816V171.883H212.975V234.994V236.886C213.123 238.814 213.825 241.817 216.487 244.153C218.484 245.896 220.702 246.452 222.329 246.638H224.584H230.203C233.383 246.638 236.008 244.042 236.008 240.816C236.008 237.627 233.42 234.994 230.203 234.994H224.584V171.883H239.816C242.995 171.883 245.62 169.287 245.62 166.061C245.583 162.872 242.995 160.277 239.779 160.277Z" fill="white"/>
<path d="M214.959 0.271851C216.391 0.271851 221.099 0.271851 221.099 0.271851C221.099 0.271851 221.099 4.46336 221.099 6.4286C221.099 7.96286 221.099 12.5853 221.099 12.5853C221.099 12.5853 216.82 12.5853 214.959 12.5853C211.566 12.5853 208.818 9.82712 208.818 6.4286C208.818 3.03007 211.566 0.271851 214.959 0.271851Z" fill="#29293A"/>
<path d="M233.381 0.271973H221.1V12.5855H233.381V0.271973Z" fill="#29293A"/>
<path d="M239.521 12.5855C238.089 12.5855 233.381 12.5855 233.381 12.5855C233.381 12.5855 233.381 8.39395 233.381 6.42872C233.381 4.89446 233.381 0.271973 233.381 0.271973C233.381 0.271973 237.662 0.271973 239.521 0.271973C242.913 0.271973 245.662 3.02773 245.662 6.42872C245.662 9.8297 242.913 12.5855 239.521 12.5855Z" fill="#29293A"/>
<path d="M257.944 12.5852H270.226V0.271729C263.444 0.271729 257.944 5.78571 257.944 12.5852Z" fill="#29293A"/>
<path d="M276.366 12.5855C274.934 12.5855 270.225 12.5855 270.225 12.5855C270.225 12.5855 270.225 8.39395 270.225 6.42872C270.225 4.89446 270.225 0.271973 270.225 0.271973C270.225 0.271973 274.506 0.271973 276.366 0.271973C279.758 0.271973 282.506 3.02773 282.506 6.42872C282.506 9.8297 279.758 12.5855 276.366 12.5855Z" fill="#29293A"/>
<path d="M307.069 6.42872C307.069 7.86447 307.069 12.5855 307.069 12.5855C307.069 12.5855 302.889 12.5855 300.928 12.5855C299.398 12.5855 294.788 12.5855 294.788 12.5855C294.788 12.5855 294.788 8.29544 294.788 6.42872C294.788 3.02773 297.536 0.271973 300.928 0.271973C304.321 0.271973 307.069 3.02773 307.069 6.42872Z" fill="#29293A"/>
<path d="M251.803 12.5856C253.235 12.5856 257.943 12.5856 257.943 12.5856C257.943 12.5856 257.943 16.7771 257.943 18.7424C257.943 20.2766 257.943 24.8991 257.943 24.8991C257.943 24.8991 253.665 24.8991 251.803 24.8991C248.411 24.8991 245.662 22.1409 245.662 18.7424C245.662 15.3439 248.411 12.5856 251.803 12.5856Z" fill="#29293A"/>
<path d="M270.225 12.5856H257.944V24.8991H270.225V12.5856Z" fill="#29293A"/>
<path d="M307.069 12.5859H294.788V24.8994H307.069V12.5859Z" fill="#29293A"/>
<path d="M165.834 12.5858C167.266 12.5858 171.974 12.5858 171.974 12.5858C171.974 12.5858 171.974 16.7773 171.974 18.7425C171.974 20.2768 171.974 24.8992 171.974 24.8992C171.974 24.8992 167.696 24.8992 165.834 24.8992C162.442 24.8992 159.693 22.141 159.693 18.7425C159.693 15.344 162.442 12.5858 165.834 12.5858Z" fill="#29293A"/>
<path d="M184.256 12.5857H171.975V24.8992H184.256V12.5857Z" fill="#29293A"/>
<path d="M184.256 12.5857V24.8992H196.537C196.537 18.0997 191.037 12.5857 184.256 12.5857Z" fill="#29293A"/>
<path d="M184.256 31.0558C184.256 29.62 184.256 24.899 184.256 24.899C184.256 24.899 188.436 24.899 190.396 24.899C191.926 24.899 196.537 24.899 196.537 24.899C196.537 24.899 196.537 29.1915 196.537 31.0558C196.537 34.4568 193.788 37.2125 190.396 37.2125C187.004 37.2125 184.256 34.4568 184.256 31.0558Z" fill="#29293A"/>
<path d="M221.1 37.2122H233.381V24.8987C226.599 24.8987 221.1 30.4127 221.1 37.2122Z" fill="#29293A"/>
<path d="M233.381 24.899V37.2125H245.662C245.662 30.413 240.163 24.899 233.381 24.899Z" fill="#29293A"/>
<path d="M270.225 24.899H257.944V37.2125H270.225V24.899Z" fill="#29293A"/>
<path d="M282.506 37.2125H294.787V24.899C288.005 24.899 282.506 30.413 282.506 37.2125Z" fill="#29293A"/>
<path d="M307.069 24.8993H294.788V37.2128H307.069V24.8993Z" fill="#29293A"/>
<path d="M122.849 6.42878C122.849 7.86453 122.849 12.5855 122.849 12.5855C122.849 12.5855 118.668 12.5855 116.708 12.5855C115.178 12.5855 110.568 12.5855 110.568 12.5855C110.568 12.5855 110.568 8.2955 110.568 6.42878C110.568 3.02779 113.316 0.272034 116.708 0.272034C120.1 0.272034 122.849 3.02779 122.849 6.42878Z" fill="#29293A"/>
<path d="M141.271 0.272034C144.663 0.272034 147.412 3.02779 147.412 6.42878C147.412 9.82977 144.663 12.5855 141.271 12.5855C137.879 12.5855 135.13 9.82977 135.13 6.42878C135.13 3.02779 137.879 0.272034 141.271 0.272034Z" fill="#29293A"/>
<path d="M122.849 12.5853H110.568V24.8987H122.849V12.5853Z" fill="#29293A"/>
<path d="M122.848 12.5853V24.8987H135.13C135.13 18.0992 129.63 12.5853 122.848 12.5853Z" fill="#29293A"/>
<path d="M98.2861 37.2125H110.567V24.899C103.786 24.899 98.2861 30.413 98.2861 37.2125Z" fill="#29293A"/>
<path d="M122.849 24.899H110.568V37.2125H122.849V24.899Z" fill="#29293A"/>
<path d="M135.13 24.899H122.848V37.2125H135.13V24.899Z" fill="#29293A"/>
<path d="M141.271 37.2125C139.839 37.2125 135.13 37.2125 135.13 37.2125C135.13 37.2125 135.13 33.021 135.13 31.0557C135.13 29.5215 135.13 24.899 135.13 24.899C135.13 24.899 139.412 24.899 141.271 24.899C144.663 24.899 147.412 27.6547 147.412 31.0557C147.412 34.4567 144.663 37.2125 141.271 37.2125Z" fill="#29293A"/>
<path d="M110.567 49.526V37.2125H98.2861C98.2861 44.012 103.786 49.526 110.567 49.526Z" fill="#29293A"/>
<path d="M122.849 37.2125H110.568V49.526C117.349 49.526 122.849 44.012 122.849 37.2125Z" fill="#29293A"/>
<path d="M159.693 49.5262H171.974V37.2127C165.193 37.2127 159.693 42.7267 159.693 49.5262Z" fill="#29293A"/>
<path d="M171.974 37.2127V49.5262H184.256C184.256 42.7267 178.756 37.2127 171.974 37.2127Z" fill="#29293A"/>
<path d="M196.536 49.526H208.817V37.2125C202.036 37.2125 196.536 42.7265 196.536 49.526Z" fill="#29293A"/>
<path d="M221.1 37.2125H208.818V49.526H221.1V37.2125Z" fill="#29293A"/>
<path d="M233.381 37.2126H221.1V49.5262H233.381V37.2126Z" fill="#29293A"/>
<path d="M245.662 37.2126H233.381V49.5262H245.662V37.2126Z" fill="#29293A"/>
<path d="M257.943 37.2125H245.662V49.526H257.943V37.2125Z" fill="#29293A"/>
<path d="M270.225 37.2125H257.944V49.526H270.225V37.2125Z" fill="#29293A"/>
<path d="M294.787 37.2127H282.506V49.5262H294.787V37.2127Z" fill="#29293A"/>
<path d="M307.07 37.2125H294.788V49.526C301.57 49.526 307.07 44.012 307.07 37.2125Z" fill="#29293A"/>
<path d="M153.552 49.5264C154.984 49.5264 159.693 49.5264 159.693 49.5264C159.693 49.5264 159.693 53.7179 159.693 55.6831C159.693 57.2174 159.693 61.8398 159.693 61.8398C159.693 61.8398 155.414 61.8398 153.552 61.8398C150.16 61.8398 147.411 59.0816 147.411 55.6831C147.411 52.2846 150.16 49.5264 153.552 49.5264Z" fill="#29293A"/>
<path d="M171.974 49.5265H159.693V61.84H171.974V49.5265Z" fill="#29293A"/>
<path d="M184.256 49.5264H171.974V61.8399H184.256V49.5264Z" fill="#29293A"/>
<path d="M208.818 49.5264H196.536V61.8399H208.818V49.5264Z" fill="#29293A"/>
<path d="M221.1 55.6832C221.1 54.2474 221.1 49.5264 221.1 49.5264C221.1 49.5264 225.28 49.5264 227.24 49.5264C228.771 49.5264 233.381 49.5264 233.381 49.5264C233.381 49.5264 233.381 53.8189 233.381 55.6832C233.381 59.0841 230.632 61.8399 227.24 61.8399C223.848 61.8399 221.1 59.0841 221.1 55.6832Z" fill="#29293A"/>
<path d="M257.943 49.5264H245.662V61.8399H257.943V49.5264Z" fill="#29293A"/>
<path d="M270.226 49.5266H257.944V61.84C264.726 61.84 270.226 56.326 270.226 49.5266Z" fill="#29293A"/>
<path d="M282.506 55.6832C282.506 54.2474 282.506 49.5264 282.506 49.5264C282.506 49.5264 286.686 49.5264 288.646 49.5264C290.177 49.5264 294.787 49.5264 294.787 49.5264C294.787 49.5264 294.787 53.8189 294.787 55.6832C294.787 59.0841 292.038 61.8399 288.646 61.8399C285.254 61.8399 282.506 59.0841 282.506 55.6832Z" fill="#29293A"/>
<path d="M141.271 61.8397C144.663 61.8397 147.411 64.5955 147.411 67.9965C147.411 71.3974 144.663 74.1532 141.271 74.1532C137.878 74.1532 135.13 71.3974 135.13 67.9965C135.13 64.5955 137.878 61.8397 141.271 61.8397Z" fill="#29293A"/>
<path d="M171.974 74.1533V61.8398H159.693C159.693 68.6393 165.193 74.1533 171.974 74.1533Z" fill="#29293A"/>
<path d="M184.256 61.8397H171.974V74.1532H184.256V61.8397Z" fill="#29293A"/>
<path d="M208.818 61.8397H196.537V74.1532H208.818V61.8397Z" fill="#29293A"/>
<path d="M257.943 61.8397H245.662V74.1532H257.943V61.8397Z" fill="#29293A"/>
<path d="M307.069 67.9965C307.069 69.4323 307.069 74.1533 307.069 74.1533C307.069 74.1533 302.889 74.1533 300.928 74.1533C299.398 74.1533 294.788 74.1533 294.788 74.1533C294.788 74.1533 294.788 69.8632 294.788 67.9965C294.788 64.5955 297.536 61.8398 300.928 61.8398C304.321 61.8398 307.069 64.5955 307.069 67.9965Z" fill="#29293A"/>
<path d="M104.427 74.1527C107.819 74.1527 110.568 76.9085 110.568 80.3095C110.568 83.7104 107.819 86.4662 104.427 86.4662C101.035 86.4662 98.2862 83.7104 98.2862 80.3095C98.2862 76.9085 101.035 74.1527 104.427 74.1527Z" fill="#29293A"/>
<path d="M135.13 80.3095C135.13 81.7452 135.13 86.4662 135.13 86.4662C135.13 86.4662 130.949 86.4662 128.989 86.4662C127.459 86.4662 122.849 86.4662 122.849 86.4662C122.849 86.4662 122.849 82.1762 122.849 80.3095C122.849 76.9085 125.597 74.1527 128.989 74.1527C132.381 74.1527 135.13 76.9085 135.13 80.3095Z" fill="#29293A"/>
<path d="M153.552 74.1525C156.944 74.1525 159.693 76.9083 159.693 80.3093C159.693 83.7103 156.944 86.466 153.552 86.466C150.16 86.466 147.412 83.7103 147.412 80.3093C147.412 76.9083 150.16 74.1525 153.552 74.1525Z" fill="#29293A"/>
<path d="M171.974 80.3092C171.974 78.8735 171.974 74.1525 171.974 74.1525C171.974 74.1525 176.155 74.1525 178.115 74.1525C179.645 74.1525 184.256 74.1525 184.256 74.1525C184.256 74.1525 184.256 78.4449 184.256 80.3092C184.256 83.7102 181.507 86.4659 178.115 86.4659C174.723 86.4659 171.974 83.7102 171.974 80.3092Z" fill="#29293A"/>
<path d="M208.818 74.1525H196.537V86.466H208.818V74.1525Z" fill="#29293A"/>
<path d="M227.24 74.1525C230.632 74.1525 233.381 76.9083 233.381 80.3093C233.381 83.7103 230.632 86.466 227.24 86.466C223.848 86.466 221.1 83.7103 221.1 80.3093C221.1 76.9083 223.848 74.1525 227.24 74.1525Z" fill="#29293A"/>
<path d="M245.662 80.3092C245.662 78.8735 245.662 74.1525 245.662 74.1525C245.662 74.1525 249.843 74.1525 251.803 74.1525C253.333 74.1525 257.943 74.1525 257.943 74.1525C257.943 74.1525 257.943 78.4449 257.943 80.3092C257.943 83.7102 255.195 86.4659 251.803 86.4659C248.411 86.4659 245.662 83.7102 245.662 80.3092Z" fill="#29293A"/>
<path d="M282.506 80.3094C282.506 81.7451 282.506 86.4661 282.506 86.4661C282.506 86.4661 278.326 86.4661 276.365 86.4661C274.835 86.4661 270.225 86.4661 270.225 86.4661C270.225 86.4661 270.225 82.1761 270.225 80.3094C270.225 76.9084 272.973 74.1526 276.365 74.1526C279.758 74.1526 282.506 76.9084 282.506 80.3094Z" fill="#29293A"/>
<path d="M294.788 80.3095C294.788 78.8738 294.788 74.1528 294.788 74.1528C294.788 74.1528 298.968 74.1528 300.928 74.1528C302.459 74.1528 307.069 74.1528 307.069 74.1528C307.069 74.1528 307.069 78.4453 307.069 80.3095C307.069 83.7105 304.321 86.4663 300.928 86.4663C297.536 86.4663 294.788 83.7105 294.788 80.3095Z" fill="#29293A"/>
<path d="M122.849 92.6233C122.849 91.1875 122.849 86.4666 122.849 86.4666C122.849 86.4666 127.029 86.4666 128.989 86.4666C130.52 86.4666 135.13 86.4666 135.13 86.4666C135.13 86.4666 135.13 90.759 135.13 92.6233C135.13 96.0243 132.381 98.78 128.989 98.78C125.597 98.78 122.849 96.0243 122.849 92.6233Z" fill="#29293A"/>
<path d="M184.256 98.78H196.537V86.4666C189.755 86.4666 184.256 91.9805 184.256 98.78Z" fill="#29293A"/>
<path d="M208.818 86.4666H196.537V98.7801H208.818V86.4666Z" fill="#29293A"/>
<path d="M282.507 98.78V86.4666H270.226C270.226 93.2661 275.726 98.78 282.507 98.78Z" fill="#29293A"/>
<path d="M282.506 86.4666V98.7801H294.788C294.788 91.9806 289.288 86.4666 282.506 86.4666Z" fill="#29293A"/>
<path d="M43.0197 98.78C44.4517 98.78 49.1604 98.78 49.1604 98.78C49.1604 98.78 49.1604 102.971 49.1604 104.937C49.1604 106.471 49.1604 111.093 49.1604 111.093C49.1604 111.093 44.8816 111.093 43.0197 111.093C39.6276 111.093 36.879 108.335 36.879 104.937C36.879 101.538 39.6276 98.78 43.0197 98.78Z" fill="#29293A"/>
<path d="M49.1607 98.78V111.093H61.442C61.442 104.294 55.9425 98.78 49.1607 98.78Z" fill="#29293A"/>
<path d="M79.864 98.7799C81.296 98.7799 86.0047 98.7799 86.0047 98.7799C86.0047 98.7799 86.0047 102.971 86.0047 104.937C86.0047 106.471 86.0047 111.093 86.0047 111.093C86.0047 111.093 81.7259 111.093 79.864 111.093C76.4719 111.093 73.7234 108.335 73.7234 104.937C73.7234 101.538 76.4719 98.7799 79.864 98.7799Z" fill="#29293A"/>
<path d="M92.1452 111.093C90.7132 111.093 86.0045 111.093 86.0045 111.093C86.0045 111.093 86.0045 106.902 86.0045 104.937C86.0045 103.402 86.0045 98.7799 86.0045 98.7799C86.0045 98.7799 90.2858 98.7799 92.1452 98.7799C95.5373 98.7799 98.2858 101.536 98.2858 104.937C98.2858 108.338 95.5373 111.093 92.1452 111.093Z" fill="#29293A"/>
<path d="M141.271 98.78C142.703 98.78 147.411 98.78 147.411 98.78C147.411 98.78 147.411 102.971 147.411 104.937C147.411 106.471 147.411 111.093 147.411 111.093C147.411 111.093 143.132 111.093 141.271 111.093C137.878 111.093 135.13 108.335 135.13 104.937C135.13 101.538 137.878 98.78 141.271 98.78Z" fill="#29293A"/>
<path d="M159.693 98.78H147.411V111.093H159.693V98.78Z" fill="#29293A"/>
<path d="M171.974 98.78H159.693V111.093H171.974V98.78Z" fill="#29293A"/>
<path d="M184.256 98.78H171.974V111.093H184.256V98.78Z" fill="#29293A"/>
<path d="M196.537 98.78H184.256V111.093H196.537V98.78Z" fill="#29293A"/>
<path d="M208.818 98.7799H196.536V111.093H208.818V98.7799Z" fill="#29293A"/>
<path d="M233.381 104.937C233.381 106.372 233.381 111.093 233.381 111.093C233.381 111.093 229.2 111.093 227.24 111.093C225.71 111.093 221.1 111.093 221.1 111.093C221.1 111.093 221.1 106.803 221.1 104.937C221.1 101.536 223.848 98.7799 227.24 98.7799C230.632 98.7799 233.381 101.536 233.381 104.937Z" fill="#29293A"/>
<path d="M251.803 98.78C255.195 98.78 257.943 101.536 257.943 104.937C257.943 108.338 255.195 111.093 251.803 111.093C248.411 111.093 245.662 108.338 245.662 104.937C245.662 101.536 248.411 98.78 251.803 98.78Z" fill="#29293A"/>
<path d="M294.787 98.78H282.506V111.093H294.787V98.78Z" fill="#29293A"/>
<path d="M300.928 111.094C299.496 111.094 294.788 111.094 294.788 111.094C294.788 111.094 294.788 106.902 294.788 104.937C294.788 103.403 294.788 98.78 294.788 98.78C294.788 98.78 299.069 98.78 300.928 98.78C304.321 98.78 307.069 101.536 307.069 104.937C307.069 108.338 304.321 111.094 300.928 111.094Z" fill="#29293A"/>
<path d="M356.194 111.093H368.476V98.7798C361.694 98.7798 356.194 104.294 356.194 111.093Z" fill="#29293A"/>
<path d="M368.476 98.7799V111.093H380.757C380.757 104.294 375.257 98.7799 368.476 98.7799Z" fill="#29293A"/>
<path d="M18.4574 111.093C21.8495 111.093 24.5981 113.849 24.5981 117.25C24.5981 120.651 21.8495 123.407 18.4574 123.407C15.0653 123.407 12.3168 120.651 12.3168 117.25C12.3168 113.849 15.0653 111.093 18.4574 111.093Z" fill="#29293A"/>
<path d="M61.442 111.093H49.1607V123.407H61.442V111.093Z" fill="#29293A"/>
<path d="M67.5831 123.407C66.1511 123.407 61.4425 123.407 61.4425 123.407C61.4425 123.407 61.4425 119.215 61.4425 117.25C61.4425 115.716 61.4425 111.093 61.4425 111.093C61.4425 111.093 65.7237 111.093 67.5831 111.093C70.9753 111.093 73.7238 113.849 73.7238 117.25C73.7238 120.651 70.9753 123.407 67.5831 123.407Z" fill="#29293A"/>
<path d="M104.427 111.093C107.819 111.093 110.568 113.849 110.568 117.25C110.568 120.651 107.819 123.407 104.427 123.407C101.035 123.407 98.2862 120.651 98.2862 117.25C98.2862 113.849 101.035 111.093 104.427 111.093Z" fill="#29293A"/>
<path d="M159.693 111.094H147.411V123.407H159.693V111.094Z" fill="#29293A"/>
<path d="M171.974 111.093H159.693V123.407H171.974V111.093Z" fill="#29293A"/>
<path d="M184.256 111.094H171.974V123.407C178.756 123.407 184.256 117.893 184.256 111.094Z" fill="#29293A"/>
<path d="M196.536 117.25C196.536 115.814 196.536 111.094 196.536 111.094C196.536 111.094 200.717 111.094 202.677 111.094C204.207 111.094 208.818 111.094 208.818 111.094C208.818 111.094 208.818 115.386 208.818 117.25C208.818 120.651 206.069 123.407 202.677 123.407C199.285 123.407 196.536 120.651 196.536 117.25Z" fill="#29293A"/>
<path d="M233.381 111.094H221.1V123.407H233.381V111.094Z" fill="#29293A"/>
<path d="M294.787 111.093H282.506V123.407H294.787V111.093Z" fill="#29293A"/>
<path d="M319.35 117.25C319.35 118.686 319.35 123.407 319.35 123.407C319.35 123.407 315.17 123.407 313.209 123.407C311.679 123.407 307.069 123.407 307.069 123.407C307.069 123.407 307.069 119.117 307.069 117.25C307.069 113.849 309.817 111.093 313.209 111.093C316.602 111.093 319.35 113.849 319.35 117.25Z" fill="#29293A"/>
<path d="M331.631 123.407H343.912V111.093C337.13 111.093 331.631 116.607 331.631 123.407Z" fill="#29293A"/>
<path d="M356.194 111.094H343.913V123.407H356.194V111.094Z" fill="#29293A"/>
<path d="M368.476 111.093H356.194V123.407H368.476V111.093Z" fill="#29293A"/>
<path d="M380.757 111.093H368.476V123.407H380.757V111.093Z" fill="#29293A"/>
<path d="M380.757 111.093V123.407H393.038C393.038 116.607 387.538 111.093 380.757 111.093Z" fill="#29293A"/>
<path d="M6.17607 123.407C9.56818 123.407 12.3167 126.163 12.3167 129.564C12.3167 132.965 9.56818 135.721 6.17607 135.721C2.78396 135.721 0.0354004 132.965 0.0354004 129.564C0.0354004 126.163 2.78396 123.407 6.17607 123.407Z" fill="#29293A"/>
<path d="M61.4424 123.407H49.1611V135.72H61.4424V123.407Z" fill="#29293A"/>
<path d="M79.864 123.407C83.2561 123.407 86.0047 126.163 86.0047 129.564C86.0047 132.965 83.2561 135.721 79.864 135.721C76.4719 135.721 73.7234 132.965 73.7234 129.564C73.7234 126.163 76.4719 123.407 79.864 123.407Z" fill="#29293A"/>
<path d="M141.271 123.407C142.703 123.407 147.411 123.407 147.411 123.407C147.411 123.407 147.411 127.598 147.411 129.564C147.411 131.098 147.411 135.72 147.411 135.72C147.411 135.72 143.132 135.72 141.271 135.72C137.878 135.72 135.13 132.962 135.13 129.564C135.13 126.165 137.878 123.407 141.271 123.407Z" fill="#29293A"/>
<path d="M159.693 123.407H147.411V135.72C154.193 135.72 159.693 130.206 159.693 123.407Z" fill="#29293A"/>
<path d="M190.396 123.407C193.788 123.407 196.537 126.163 196.537 129.564C196.537 132.965 193.788 135.72 190.396 135.72C187.004 135.72 184.256 132.965 184.256 129.564C184.256 126.163 187.004 123.407 190.396 123.407Z" fill="#29293A"/>
<path d="M221.1 129.564C221.1 128.128 221.1 123.407 221.1 123.407C221.1 123.407 225.28 123.407 227.24 123.407C228.771 123.407 233.381 123.407 233.381 123.407C233.381 123.407 233.381 127.699 233.381 129.564C233.381 132.965 230.632 135.72 227.24 135.72C223.848 135.72 221.1 132.965 221.1 129.564Z" fill="#29293A"/>
<path d="M264.085 123.407C267.477 123.407 270.225 126.163 270.225 129.564C270.225 132.965 267.477 135.721 264.085 135.721C260.692 135.721 257.944 132.965 257.944 129.564C257.944 126.163 260.692 123.407 264.085 123.407Z" fill="#29293A"/>
<path d="M282.506 129.564C282.506 128.128 282.506 123.407 282.506 123.407C282.506 123.407 286.686 123.407 288.646 123.407C290.177 123.407 294.787 123.407 294.787 123.407C294.787 123.407 294.787 127.7 294.787 129.564C294.787 132.965 292.038 135.721 288.646 135.721C285.254 135.721 282.506 132.965 282.506 129.564Z" fill="#29293A"/>
<path d="M307.069 129.564C307.069 128.128 307.069 123.407 307.069 123.407C307.069 123.407 311.249 123.407 313.209 123.407C314.74 123.407 319.35 123.407 319.35 123.407C319.35 123.407 319.35 127.699 319.35 129.564C319.35 132.965 316.602 135.72 313.209 135.72C309.817 135.72 307.069 132.965 307.069 129.564Z" fill="#29293A"/>
<path d="M343.912 123.407H331.631V135.72H343.912V123.407Z" fill="#29293A"/>
<path d="M380.757 123.407H368.476V135.72H380.757V123.407Z" fill="#29293A"/>
<path d="M393.038 123.407H380.757V135.72H393.038V123.407Z" fill="#29293A"/>
<path d="M393.038 123.407V135.72H405.32C405.32 128.921 399.82 123.407 393.038 123.407Z" fill="#29293A"/>
<path d="M18.4574 135.72C19.8894 135.72 24.5981 135.72 24.5981 135.72C24.5981 135.72 24.5981 139.912 24.5981 141.877C24.5981 143.411 24.5981 148.034 24.5981 148.034C24.5981 148.034 20.3193 148.034 18.4574 148.034C15.0653 148.034 12.3168 145.276 12.3168 141.877C12.3168 138.479 15.0653 135.72 18.4574 135.72Z" fill="#29293A"/>
<path d="M30.7381 148.034C29.3061 148.034 24.5975 148.034 24.5975 148.034C24.5975 148.034 24.5975 143.842 24.5975 141.877C24.5975 140.343 24.5975 135.72 24.5975 135.72C24.5975 135.72 28.8787 135.72 30.7381 135.72C34.1302 135.72 36.8788 138.476 36.8788 141.877C36.8788 145.278 34.1302 148.034 30.7381 148.034Z" fill="#29293A"/>
<path d="M61.442 135.72H49.1607V148.034H61.442V135.72Z" fill="#29293A"/>
<path d="M116.708 135.72C118.14 135.72 122.849 135.72 122.849 135.72C122.849 135.72 122.849 139.912 122.849 141.877C122.849 143.411 122.849 148.034 122.849 148.034C122.849 148.034 118.57 148.034 116.708 148.034C113.316 148.034 110.568 145.276 110.568 141.877C110.568 138.479 113.316 135.72 116.708 135.72Z" fill="#29293A"/>
<path d="M128.989 148.034C127.557 148.034 122.849 148.034 122.849 148.034C122.849 148.034 122.849 143.842 122.849 141.877C122.849 140.343 122.849 135.72 122.849 135.72C122.849 135.72 127.13 135.72 128.989 135.72C132.381 135.72 135.13 138.476 135.13 141.877C135.13 145.278 132.381 148.034 128.989 148.034Z" fill="#29293A"/>
<path d="M307.069 141.877C307.069 143.313 307.069 148.034 307.069 148.034C307.069 148.034 302.889 148.034 300.928 148.034C299.398 148.034 294.788 148.034 294.788 148.034C294.788 148.034 294.788 143.744 294.788 141.877C294.788 138.476 297.536 135.721 300.928 135.721C304.321 135.721 307.069 138.476 307.069 141.877Z" fill="#29293A"/>
<path d="M319.35 148.034H331.631V135.72C324.85 135.72 319.35 141.234 319.35 148.034Z" fill="#29293A"/>
<path d="M343.912 135.721H331.631V148.034H343.912V135.721Z" fill="#29293A"/>
<path d="M356.194 135.72H343.913V148.034H356.194V135.72Z" fill="#29293A"/>
<path d="M368.476 135.721H356.194V148.034H368.476V135.721Z" fill="#29293A"/>
<path d="M380.757 135.721H368.476V148.034H380.757V135.721Z" fill="#29293A"/>
<path d="M393.038 135.72H380.757V148.034H393.038V135.72Z" fill="#29293A"/>
<path d="M405.319 135.72H393.038V148.034H405.319V135.72Z" fill="#29293A"/>
<path d="M36.879 160.347H49.1604V148.034C42.3786 148.034 36.879 153.548 36.879 160.347Z" fill="#29293A"/>
<path d="M61.442 148.034H49.1607V160.347C55.9425 160.347 61.442 154.833 61.442 148.034Z" fill="#29293A"/>
<path d="M79.864 148.034C81.296 148.034 86.0047 148.034 86.0047 148.034C86.0047 148.034 86.0047 152.225 86.0047 154.191C86.0047 155.725 86.0047 160.347 86.0047 160.347C86.0047 160.347 81.7259 160.347 79.864 160.347C76.4719 160.347 73.7234 157.589 73.7234 154.191C73.7234 150.792 76.4719 148.034 79.864 148.034Z" fill="#29293A"/>
<path d="M98.2858 148.034H86.0045V160.347H98.2858V148.034Z" fill="#29293A"/>
<path d="M104.427 160.347C102.995 160.347 98.2862 160.347 98.2862 160.347C98.2862 160.347 98.2862 156.156 98.2862 154.191C98.2862 152.656 98.2862 148.034 98.2862 148.034C98.2862 148.034 102.567 148.034 104.427 148.034C107.819 148.034 110.568 150.79 110.568 154.191C110.568 157.592 107.819 160.347 104.427 160.347Z" fill="#29293A"/>
<path d="M282.506 154.191C282.506 155.626 282.506 160.347 282.506 160.347C282.506 160.347 278.326 160.347 276.366 160.347C274.835 160.347 270.225 160.347 270.225 160.347C270.225 160.347 270.225 156.057 270.225 154.191C270.225 150.79 272.973 148.034 276.366 148.034C279.758 148.034 282.506 150.79 282.506 154.191Z" fill="#29293A"/>
<path d="M294.788 154.191C294.788 152.755 294.788 148.034 294.788 148.034C294.788 148.034 298.968 148.034 300.928 148.034C302.459 148.034 307.069 148.034 307.069 148.034C307.069 148.034 307.069 152.326 307.069 154.191C307.069 157.592 304.321 160.347 300.928 160.347C297.536 160.347 294.788 157.592 294.788 154.191Z" fill="#29293A"/>
<path d="M331.631 160.347V148.034H319.35C319.35 154.834 324.85 160.347 331.631 160.347Z" fill="#29293A"/>
<path d="M343.912 148.034H331.631V160.347H343.912V148.034Z" fill="#29293A"/>
<path d="M356.194 148.034H343.913V160.347H356.194V148.034Z" fill="#29293A"/>
<path d="M368.475 148.034H356.194V160.347C362.976 160.347 368.475 154.833 368.475 148.034Z" fill="#29293A"/>
<path d="M393.038 154.19C393.038 152.755 393.038 148.034 393.038 148.034C393.038 148.034 397.218 148.034 399.178 148.034C400.709 148.034 405.319 148.034 405.319 148.034C405.319 148.034 405.319 152.326 405.319 154.19C405.319 157.591 402.571 160.347 399.178 160.347C395.786 160.347 393.038 157.591 393.038 154.19Z" fill="#29293A"/>
<path d="M6.17607 160.347C7.60808 160.347 12.3167 160.347 12.3167 160.347C12.3167 160.347 12.3167 164.539 12.3167 166.504C12.3167 168.038 12.3167 172.661 12.3167 172.661C12.3167 172.661 8.03792 172.661 6.17607 172.661C2.78396 172.661 0.0354004 169.903 0.0354004 166.504C0.0354004 163.106 2.78396 160.347 6.17607 160.347Z" fill="#29293A"/>
<path d="M12.3168 160.347V172.661H24.5981C24.5981 165.861 19.0985 160.347 12.3168 160.347Z" fill="#29293A"/>
<path d="M49.1604 160.347H36.879V172.661H49.1604V160.347Z" fill="#29293A"/>
<path d="M282.507 172.661V160.347H270.226C270.226 167.147 275.726 172.661 282.507 172.661Z" fill="#29293A"/>
<path d="M288.646 172.661C287.214 172.661 282.506 172.661 282.506 172.661C282.506 172.661 282.506 168.469 282.506 166.504C282.506 164.97 282.506 160.347 282.506 160.347C282.506 160.347 286.787 160.347 288.646 160.347C292.038 160.347 294.787 163.103 294.787 166.504C294.787 169.905 292.038 172.661 288.646 172.661Z" fill="#29293A"/>
<path d="M374.617 160.347C376.049 160.347 380.757 160.347 380.757 160.347C380.757 160.347 380.757 164.539 380.757 166.504C380.757 168.038 380.757 172.661 380.757 172.661C380.757 172.661 376.478 172.661 374.617 172.661C371.224 172.661 368.476 169.903 368.476 166.504C368.476 163.106 371.224 160.347 374.617 160.347Z" fill="#29293A"/>
<path d="M386.897 172.661C385.465 172.661 380.757 172.661 380.757 172.661C380.757 172.661 380.757 168.469 380.757 166.504C380.757 164.97 380.757 160.347 380.757 160.347C380.757 160.347 385.038 160.347 386.897 160.347C390.289 160.347 393.038 163.103 393.038 166.504C393.038 169.905 390.289 172.661 386.897 172.661Z" fill="#29293A"/>
<path d="M24.5985 172.661H12.3172V184.974H24.5985V172.661Z" fill="#29293A"/>
<path d="M36.8788 172.661H24.5975V184.974H36.8788V172.661Z" fill="#29293A"/>
<path d="M49.1604 172.661H36.879V184.974H49.1604V172.661Z" fill="#29293A"/>
<path d="M55.3014 184.974C53.8694 184.974 49.1607 184.974 49.1607 184.974C49.1607 184.974 49.1607 180.783 49.1607 178.818C49.1607 177.283 49.1607 172.661 49.1607 172.661C49.1607 172.661 53.442 172.661 55.3014 172.661C58.6935 172.661 61.442 175.417 61.442 178.818C61.442 182.219 58.6935 184.974 55.3014 184.974Z" fill="#29293A"/>
<path d="M79.864 172.661C81.296 172.661 86.0047 172.661 86.0047 172.661C86.0047 172.661 86.0047 176.852 86.0047 178.818C86.0047 180.352 86.0047 184.974 86.0047 184.974C86.0047 184.974 81.7259 184.974 79.864 184.974C76.4719 184.974 73.7234 182.216 73.7234 178.818C73.7234 175.419 76.4719 172.661 79.864 172.661Z" fill="#29293A"/>
<path d="M92.1452 184.974C90.7132 184.974 86.0045 184.974 86.0045 184.974C86.0045 184.974 86.0045 180.783 86.0045 178.818C86.0045 177.283 86.0045 172.661 86.0045 172.661C86.0045 172.661 90.2858 172.661 92.1452 172.661C95.5373 172.661 98.2858 175.417 98.2858 178.818C98.2858 182.219 95.5373 184.974 92.1452 184.974Z" fill="#29293A"/>
<path d="M307.069 178.817C307.069 180.253 307.069 184.974 307.069 184.974C307.069 184.974 302.889 184.974 300.928 184.974C299.398 184.974 294.788 184.974 294.788 184.974C294.788 184.974 294.788 180.684 294.788 178.817C294.788 175.416 297.536 172.661 300.928 172.661C304.321 172.661 307.069 175.416 307.069 178.817Z" fill="#29293A"/>
<path d="M325.491 172.661C328.883 172.661 331.631 175.417 331.631 178.818C331.631 182.219 328.883 184.974 325.491 184.974C322.099 184.974 319.35 182.219 319.35 178.818C319.35 175.417 322.099 172.661 325.491 172.661Z" fill="#29293A"/>
<path d="M350.054 172.661C351.486 172.661 356.194 172.661 356.194 172.661C356.194 172.661 356.194 176.852 356.194 178.818C356.194 180.352 356.194 184.974 356.194 184.974C356.194 184.974 351.915 184.974 350.054 184.974C346.661 184.974 343.913 182.216 343.913 178.818C343.913 175.419 346.661 172.661 350.054 172.661Z" fill="#29293A"/>
<path d="M356.194 172.661V184.974H368.476C368.476 178.175 362.976 172.661 356.194 172.661Z" fill="#29293A"/>
<path d="M24.5981 184.974H12.3168V197.288H24.5981V184.974Z" fill="#29293A"/>
<path d="M36.8788 184.974H24.5975V197.288H36.8788V184.974Z" fill="#29293A"/>
<path d="M49.1604 184.974H36.879V197.288C43.6608 197.288 49.1604 191.774 49.1604 184.974Z" fill="#29293A"/>
<path d="M67.5831 184.974C70.9753 184.974 73.7238 187.73 73.7238 191.131C73.7238 194.532 70.9753 197.288 67.5831 197.288C64.191 197.288 61.4425 194.532 61.4425 191.131C61.4425 187.73 64.191 184.974 67.5831 184.974Z" fill="#29293A"/>
<path d="M282.506 197.288H294.787V184.974C288.005 184.974 282.506 190.488 282.506 197.288Z" fill="#29293A"/>
<path d="M307.069 184.974H294.788V197.288H307.069V184.974Z" fill="#29293A"/>
<path d="M307.068 184.974V197.287H319.35C319.35 190.488 313.85 184.974 307.068 184.974Z" fill="#29293A"/>
<path d="M343.912 191.131C343.912 192.566 343.912 197.287 343.912 197.287C343.912 197.287 339.732 197.287 337.772 197.287C336.241 197.287 331.631 197.287 331.631 197.287C331.631 197.287 331.631 192.997 331.631 191.131C331.631 187.73 334.379 184.974 337.772 184.974C341.164 184.974 343.912 187.73 343.912 191.131Z" fill="#29293A"/>
<path d="M368.476 184.974H356.194V197.288H368.476V184.974Z" fill="#29293A"/>
<path d="M380.757 184.974H368.476V197.288H380.757V184.974Z" fill="#29293A"/>
<path d="M393.038 184.974H380.757V197.288H393.038V184.974Z" fill="#29293A"/>
<path d="M399.178 197.288C397.746 197.288 393.038 197.288 393.038 197.288C393.038 197.288 393.038 193.096 393.038 191.131C393.038 189.596 393.038 184.974 393.038 184.974C393.038 184.974 397.319 184.974 399.178 184.974C402.571 184.974 405.319 187.73 405.319 191.131C405.319 194.532 402.571 197.288 399.178 197.288Z" fill="#29293A"/>
<path d="M0.0354004 209.601H12.3167V197.288C5.53499 197.288 0.0354004 202.802 0.0354004 209.601Z" fill="#29293A"/>
<path d="M24.5981 197.288H12.3168V209.601C19.0985 209.601 24.5981 204.087 24.5981 197.288Z" fill="#29293A"/>
<path d="M55.3017 197.288C58.6938 197.288 61.4424 200.044 61.4424 203.445C61.4424 206.846 58.6938 209.601 55.3017 209.601C51.9096 209.601 49.1611 206.846 49.1611 203.445C49.1611 200.044 51.9096 197.288 55.3017 197.288Z" fill="#29293A"/>
<path d="M79.8641 197.288C81.2961 197.288 86.0048 197.288 86.0048 197.288C86.0048 197.288 86.0048 201.479 86.0048 203.444C86.0048 204.979 86.0048 209.601 86.0048 209.601C86.0048 209.601 81.726 209.601 79.8641 209.601C76.472 209.601 73.7235 206.843 73.7235 203.444C73.7235 200.046 76.472 197.288 79.8641 197.288Z" fill="#29293A"/>
<path d="M92.1452 209.601C90.7132 209.601 86.0045 209.601 86.0045 209.601C86.0045 209.601 86.0045 205.41 86.0045 203.444C86.0045 201.91 86.0045 197.288 86.0045 197.288C86.0045 197.288 90.2858 197.288 92.1452 197.288C95.5373 197.288 98.2859 200.043 98.2859 203.444C98.2859 206.845 95.5373 209.601 92.1452 209.601Z" fill="#29293A"/>
<path d="M282.506 203.444C282.506 202.009 282.506 197.288 282.506 197.288C282.506 197.288 286.686 197.288 288.646 197.288C290.177 197.288 294.787 197.288 294.787 197.288C294.787 197.288 294.787 201.58 294.787 203.444C294.787 206.845 292.038 209.601 288.646 209.601C285.254 209.601 282.506 206.845 282.506 203.444Z" fill="#29293A"/>
<path d="M319.35 209.601V197.288H307.068C307.068 204.087 312.568 209.601 319.35 209.601Z" fill="#29293A"/>
<path d="M331.631 197.288H319.35V209.601H331.631V197.288Z" fill="#29293A"/>
<path d="M343.912 197.288H331.631V209.601H343.912V197.288Z" fill="#29293A"/>
<path d="M356.194 197.288H343.913V209.601H356.194V197.288Z" fill="#29293A"/>
<path d="M368.476 197.288H356.194V209.601H368.476V197.288Z" fill="#29293A"/>
<path d="M380.757 203.444C380.757 202.009 380.757 197.288 380.757 197.288C380.757 197.288 384.937 197.288 386.897 197.288C388.428 197.288 393.038 197.288 393.038 197.288C393.038 197.288 393.038 201.58 393.038 203.444C393.038 206.845 390.29 209.601 386.897 209.601C383.505 209.601 380.757 206.845 380.757 203.444Z" fill="#29293A"/>
<path d="M0.0354004 215.758C0.0354004 214.322 0.0354004 209.601 0.0354004 209.601C0.0354004 209.601 4.21597 209.601 6.17607 209.601C7.70633 209.601 12.3167 209.601 12.3167 209.601C12.3167 209.601 12.3167 213.893 12.3167 215.758C12.3167 219.159 9.56818 221.914 6.17607 221.914C2.78396 221.914 0.0354004 219.159 0.0354004 215.758Z" fill="#29293A"/>
<path d="M49.1604 215.758C49.1604 217.193 49.1604 221.914 49.1604 221.914C49.1604 221.914 44.9798 221.914 43.0197 221.914C41.4895 221.914 36.879 221.914 36.879 221.914C36.879 221.914 36.879 217.624 36.879 215.758C36.879 212.357 39.6276 209.601 43.0197 209.601C46.4118 209.601 49.1604 212.357 49.1604 215.758Z" fill="#29293A"/>
<path d="M73.7236 215.758C73.7236 217.194 73.7236 221.915 73.7236 221.915C73.7236 221.915 69.543 221.915 67.5829 221.915C66.0526 221.915 61.4422 221.915 61.4422 221.915C61.4422 221.915 61.4422 217.625 61.4422 215.758C61.4422 212.357 64.1908 209.601 67.5829 209.601C70.975 209.601 73.7236 212.357 73.7236 215.758Z" fill="#29293A"/>
<path d="M276.365 209.601C279.758 209.601 282.506 212.357 282.506 215.758C282.506 219.159 279.758 221.915 276.365 221.915C272.973 221.915 270.225 219.159 270.225 215.758C270.225 212.357 272.973 209.601 276.365 209.601Z" fill="#29293A"/>
<path d="M300.928 209.601C304.321 209.601 307.069 212.357 307.069 215.758C307.069 219.159 304.321 221.914 300.928 221.914C297.536 221.914 294.788 219.159 294.788 215.758C294.788 212.357 297.536 209.601 300.928 209.601Z" fill="#29293A"/>
<path d="M331.631 221.914V209.601H319.35C319.35 216.4 324.85 221.914 331.631 221.914Z" fill="#29293A"/>
<path d="M343.912 209.601H331.631V221.914H343.912V209.601Z" fill="#29293A"/>
<path d="M356.194 209.601H343.913V221.915H356.194V209.601Z" fill="#29293A"/>
<path d="M368.476 209.601H356.194V221.914H368.476V209.601Z" fill="#29293A"/>
<path d="M405.319 215.758C405.319 217.193 405.319 221.914 405.319 221.914C405.319 221.914 401.139 221.914 399.178 221.914C397.648 221.914 393.038 221.914 393.038 221.914C393.038 221.914 393.038 217.624 393.038 215.758C393.038 212.357 395.786 209.601 399.178 209.601C402.571 209.601 405.319 212.357 405.319 215.758Z" fill="#29293A"/>
<path d="M24.5981 228.071C24.5981 229.507 24.5981 234.228 24.5981 234.228C24.5981 234.228 20.4175 234.228 18.4574 234.228C16.9272 234.228 12.3168 234.228 12.3168 234.228C12.3168 234.228 12.3168 229.938 12.3168 228.071C12.3168 224.67 15.0653 221.915 18.4574 221.915C21.8495 221.915 24.5981 224.67 24.5981 228.071Z" fill="#29293A"/>
<path d="M49.1604 221.915H36.879V234.228H49.1604V221.915Z" fill="#29293A"/>
<path d="M61.442 221.915H49.1607V234.228H61.442V221.915Z" fill="#29293A"/>
<path d="M73.7238 221.914H61.4425V234.228H73.7238V221.914Z" fill="#29293A"/>
<path d="M86.0047 221.915H73.7234V234.228H86.0047V221.915Z" fill="#29293A"/>
<path d="M86.0045 221.915V234.228H98.2858C98.2858 227.429 92.7863 221.915 86.0045 221.915Z" fill="#29293A"/>
<path d="M294.787 228.071C294.787 229.507 294.787 234.228 294.787 234.228C294.787 234.228 290.606 234.228 288.646 234.228C287.116 234.228 282.506 234.228 282.506 234.228C282.506 234.228 282.506 229.938 282.506 228.071C282.506 224.67 285.254 221.915 288.646 221.915C292.038 221.915 294.787 224.67 294.787 228.071Z" fill="#29293A"/>
<path d="M356.194 221.914H343.913V234.228H356.194V221.914Z" fill="#29293A"/>
<path d="M368.476 221.914H356.194V234.228H368.476V221.914Z" fill="#29293A"/>
<path d="M368.476 221.915V234.228H380.757C380.757 227.429 375.257 221.915 368.476 221.915Z" fill="#29293A"/>
<path d="M393.038 228.071C393.038 226.636 393.038 221.915 393.038 221.915C393.038 221.915 397.218 221.915 399.178 221.915C400.709 221.915 405.319 221.915 405.319 221.915C405.319 221.915 405.319 226.207 405.319 228.071C405.319 231.472 402.571 234.228 399.178 234.228C395.786 234.228 393.038 231.472 393.038 228.071Z" fill="#29293A"/>
<path d="M6.17608 234.228C7.60808 234.228 12.3167 234.228 12.3167 234.228C12.3167 234.228 12.3167 238.42 12.3167 240.385C12.3167 241.919 12.3167 246.542 12.3167 246.542C12.3167 246.542 8.03793 246.542 6.17608 246.542C2.78397 246.542 0.035408 243.784 0.035408 240.385C0.035408 236.986 2.78397 234.228 6.17608 234.228Z" fill="#29293A"/>
<path d="M24.5981 234.228H12.3168V246.542H24.5981V234.228Z" fill="#29293A"/>
<path d="M49.1604 234.228H36.879V246.542H49.1604V234.228Z" fill="#29293A"/>
<path d="M61.4425 240.385C61.4425 238.949 61.4425 234.228 61.4425 234.228C61.4425 234.228 65.623 234.228 67.5831 234.228C69.1134 234.228 73.7238 234.228 73.7238 234.228C73.7238 234.228 73.7238 238.521 73.7238 240.385C73.7238 243.786 70.9753 246.542 67.5831 246.542C64.191 246.542 61.4425 243.786 61.4425 240.385Z" fill="#29293A"/>
<path d="M98.2859 234.228H86.0045V246.542H98.2859V234.228Z" fill="#29293A"/>
<path d="M276.365 234.228C277.797 234.228 282.506 234.228 282.506 234.228C282.506 234.228 282.506 238.42 282.506 240.385C282.506 241.919 282.506 246.542 282.506 246.542C282.506 246.542 278.227 246.542 276.365 246.542C272.973 246.542 270.225 243.784 270.225 240.385C270.225 236.987 272.973 234.228 276.365 234.228Z" fill="#29293A"/>
<path d="M294.787 234.228H282.506V246.542H294.787V234.228Z" fill="#29293A"/>
<path d="M307.069 234.228H294.788V246.542H307.069V234.228Z" fill="#29293A"/>
<path d="M313.209 246.542C311.777 246.542 307.069 246.542 307.069 246.542C307.069 246.542 307.069 242.35 307.069 240.385C307.069 238.851 307.069 234.228 307.069 234.228C307.069 234.228 311.35 234.228 313.209 234.228C316.602 234.228 319.35 236.984 319.35 240.385C319.35 243.786 316.602 246.542 313.209 246.542Z" fill="#29293A"/>
<path d="M331.631 246.542H343.912V234.228C337.13 234.228 331.631 239.742 331.631 246.542Z" fill="#29293A"/>
<path d="M356.194 234.228H343.913V246.542H356.194V234.228Z" fill="#29293A"/>
<path d="M368.475 234.228H356.194V246.542H368.475V234.228Z" fill="#29293A"/>
<path d="M380.757 234.228H368.476V246.542H380.757V234.228Z" fill="#29293A"/>
<path d="M386.897 246.542C385.465 246.542 380.757 246.542 380.757 246.542C380.757 246.542 380.757 242.35 380.757 240.385C380.757 238.851 380.757 234.228 380.757 234.228C380.757 234.228 385.038 234.228 386.897 234.228C390.29 234.228 393.038 236.984 393.038 240.385C393.038 243.786 390.29 246.542 386.897 246.542Z" fill="#29293A"/>
<path d="M24.5981 246.542H12.3168V258.855H24.5981V246.542Z" fill="#29293A"/>
<path d="M36.879 252.698C36.879 251.263 36.879 246.542 36.879 246.542C36.879 246.542 41.0596 246.542 43.0197 246.542C44.55 246.542 49.1604 246.542 49.1604 246.542C49.1604 246.542 49.1604 250.834 49.1604 252.698C49.1604 256.099 46.4118 258.855 43.0197 258.855C39.6276 258.855 36.879 256.099 36.879 252.698Z" fill="#29293A"/>
<path d="M79.864 246.542C81.296 246.542 86.0047 246.542 86.0047 246.542C86.0047 246.542 86.0047 250.733 86.0047 252.698C86.0047 254.232 86.0047 258.855 86.0047 258.855C86.0047 258.855 81.7259 258.855 79.864 258.855C76.4719 258.855 73.7234 256.097 73.7234 252.698C73.7234 249.3 76.4719 246.542 79.864 246.542Z" fill="#29293A"/>
<path d="M98.2858 246.542H86.0045V258.855H98.2858V246.542Z" fill="#29293A"/>
<path d="M110.568 209.601H122.849V197.287C116.067 197.287 110.568 202.801 110.568 209.601Z" fill="#29293A"/>
<path d="M128.989 209.601C127.557 209.601 122.848 209.601 122.848 209.601C122.848 209.601 122.848 205.409 122.848 203.444C122.848 201.91 122.848 197.287 122.848 197.287C122.848 197.287 127.13 197.287 128.989 197.287C132.381 197.287 135.13 200.043 135.13 203.444C135.13 206.845 132.381 209.601 128.989 209.601Z" fill="#29293A"/>
<path d="M104.427 209.601C105.859 209.601 110.567 209.601 110.567 209.601C110.567 209.601 110.567 213.793 110.567 215.758C110.567 217.292 110.567 221.915 110.567 221.915C110.567 221.915 106.289 221.915 104.427 221.915C101.035 221.915 98.2861 219.157 98.2861 215.758C98.2861 212.36 101.035 209.601 104.427 209.601Z" fill="#29293A"/>
<path d="M122.849 209.601H110.568V221.915H122.849V209.601Z" fill="#29293A"/>
<path d="M122.849 221.915H110.568V234.228H122.849V221.915Z" fill="#29293A"/>
<path d="M122.849 234.228H110.568V246.542H122.849V234.228Z" fill="#29293A"/>
<path d="M122.849 258.855V246.542H110.568C110.568 253.341 116.067 258.855 122.849 258.855Z" fill="#29293A"/>
<path d="M128.989 258.855C127.557 258.855 122.848 258.855 122.848 258.855C122.848 258.855 122.848 254.664 122.848 252.699C122.848 251.164 122.848 246.542 122.848 246.542C122.848 246.542 127.13 246.542 128.989 246.542C132.381 246.542 135.13 249.298 135.13 252.699C135.13 256.099 132.381 258.855 128.989 258.855Z" fill="#29293A"/>
<path d="M319.35 258.855H331.631V246.542C324.85 246.542 319.35 252.056 319.35 258.855Z" fill="#29293A"/>
<path d="M343.912 246.542H331.631V258.855C338.413 258.855 343.912 253.341 343.912 246.542Z" fill="#29293A"/>
<path d="M368.476 246.542H356.194V258.855H368.476V246.542Z" fill="#29293A"/>
<path d="M399.178 246.542C402.571 246.542 405.319 249.298 405.319 252.699C405.319 256.099 402.571 258.855 399.178 258.855C395.786 258.855 393.038 256.099 393.038 252.699C393.038 249.298 395.786 246.542 399.178 246.542Z" fill="#29293A"/>
<path d="M0.0354004 271.169H12.3167V258.855C5.53499 258.855 0.0354004 264.369 0.0354004 271.169Z" fill="#29293A"/>
<path d="M24.5981 258.855H12.3168V271.169C19.0985 271.169 24.5981 265.655 24.5981 258.855Z" fill="#29293A"/>
<path d="M61.442 265.012C61.442 266.448 61.442 271.169 61.442 271.169C61.442 271.169 57.2615 271.169 55.3014 271.169C53.7711 271.169 49.1607 271.169 49.1607 271.169C49.1607 271.169 49.1607 266.879 49.1607 265.012C49.1607 261.611 51.9093 258.855 55.3014 258.855C58.6935 258.855 61.442 261.611 61.442 265.012Z" fill="#29293A"/>
<path d="M98.2858 258.855H86.0045V271.169H98.2858V258.855Z" fill="#29293A"/>
<path d="M276.366 258.856C279.758 258.856 282.506 261.611 282.506 265.013C282.506 268.414 279.758 271.169 276.366 271.169C272.973 271.169 270.225 268.414 270.225 265.013C270.225 261.611 272.973 258.856 276.366 258.856Z" fill="#29293A"/>
<path d="M300.928 258.855C304.321 258.855 307.069 261.611 307.069 265.012C307.069 268.413 304.321 271.169 300.928 271.169C297.536 271.169 294.788 268.413 294.788 265.012C294.788 261.611 297.536 258.855 300.928 258.855Z" fill="#29293A"/>
<path d="M331.631 258.855H319.35V271.169H331.631V258.855Z" fill="#29293A"/>
<path d="M343.912 271.169H356.194V258.856C349.412 258.856 343.912 264.37 343.912 271.169Z" fill="#29293A"/>
<path d="M368.475 258.855H356.194V271.169H368.475V258.855Z" fill="#29293A"/>
<path d="M374.617 271.169C373.185 271.169 368.476 271.169 368.476 271.169C368.476 271.169 368.476 266.977 368.476 265.012C368.476 263.478 368.476 258.855 368.476 258.855C368.476 258.855 372.757 258.855 374.617 258.855C378.009 258.855 380.757 261.611 380.757 265.012C380.757 268.413 378.009 271.169 374.617 271.169Z" fill="#29293A"/>
<path d="M12.3167 271.169H0.0354004V283.482H12.3167V271.169Z" fill="#29293A"/>
<path d="M36.879 283.482H49.1604V271.169C42.3786 271.169 36.879 276.683 36.879 283.482Z" fill="#29293A"/>
<path d="M61.442 271.169H49.1607V283.482H61.442V271.169Z" fill="#29293A"/>
<path d="M73.7238 271.169H61.4425V283.482H73.7238V271.169Z" fill="#29293A"/>
<path d="M86.0047 271.169H73.7234V283.482H86.0047V271.169Z" fill="#29293A"/>
<path d="M98.2858 271.169H86.0045V283.482C92.7863 283.482 98.2858 277.968 98.2858 271.169Z" fill="#29293A"/>
<path d="M110.568 283.482H122.849V271.169C116.067 271.169 110.568 276.683 110.568 283.482Z" fill="#29293A"/>
<path d="M135.13 271.169H122.849V283.482H135.13V271.169Z" fill="#29293A"/>
<path d="M147.411 271.169H135.13V283.482H147.411V271.169Z" fill="#29293A"/>
<path d="M153.552 283.482C152.12 283.482 147.412 283.482 147.412 283.482C147.412 283.482 147.412 279.291 147.412 277.325C147.412 275.791 147.412 271.169 147.412 271.169C147.412 271.169 151.693 271.169 153.552 271.169C156.944 271.169 159.693 273.925 159.693 277.325C159.693 280.726 156.944 283.482 153.552 283.482Z" fill="#29293A"/>
<path d="M178.115 271.169C179.547 271.169 184.256 271.169 184.256 271.169C184.256 271.169 184.256 275.36 184.256 277.325C184.256 278.86 184.256 283.482 184.256 283.482C184.256 283.482 179.977 283.482 178.115 283.482C174.723 283.482 171.974 280.724 171.974 277.325C171.974 273.927 174.723 271.169 178.115 271.169Z" fill="#29293A"/>
<path d="M184.256 271.169V283.482H196.537C196.537 276.683 191.037 271.169 184.256 271.169Z" fill="#29293A"/>
<path d="M208.818 283.482H221.099V271.169C214.317 271.169 208.818 276.683 208.818 283.482Z" fill="#29293A"/>
<path d="M233.381 271.169H221.1V283.482H233.381V271.169Z" fill="#29293A"/>
<path d="M233.381 271.169V283.482H245.662C245.662 276.683 240.163 271.169 233.381 271.169Z" fill="#29293A"/>
<path d="M264.085 271.169C267.477 271.169 270.225 273.924 270.225 277.325C270.225 280.726 267.477 283.482 264.085 283.482C260.692 283.482 257.944 280.726 257.944 277.325C257.944 273.924 260.692 271.169 264.085 271.169Z" fill="#29293A"/>
<path d="M294.787 277.325C294.787 278.761 294.787 283.482 294.787 283.482C294.787 283.482 290.606 283.482 288.646 283.482C287.116 283.482 282.506 283.482 282.506 283.482C282.506 283.482 282.506 279.192 282.506 277.325C282.506 273.924 285.254 271.169 288.646 271.169C292.038 271.169 294.787 273.924 294.787 277.325Z" fill="#29293A"/>
<path d="M319.35 277.325C319.35 275.89 319.35 271.169 319.35 271.169C319.35 271.169 323.531 271.169 325.491 271.169C327.021 271.169 331.631 271.169 331.631 271.169C331.631 271.169 331.631 275.461 331.631 277.325C331.631 280.726 328.883 283.482 325.491 283.482C322.099 283.482 319.35 280.726 319.35 277.325Z" fill="#29293A"/>
<path d="M356.194 271.169H343.913V283.482H356.194V271.169Z" fill="#29293A"/>
<path d="M386.897 271.169C388.329 271.169 393.038 271.169 393.038 271.169C393.038 271.169 393.038 275.36 393.038 277.325C393.038 278.86 393.038 283.482 393.038 283.482C393.038 283.482 388.759 283.482 386.897 283.482C383.505 283.482 380.757 280.724 380.757 277.325C380.757 273.927 383.505 271.169 386.897 271.169Z" fill="#29293A"/>
<path d="M399.178 283.482C397.746 283.482 393.038 283.482 393.038 283.482C393.038 283.482 393.038 279.291 393.038 277.325C393.038 275.791 393.038 271.169 393.038 271.169C393.038 271.169 397.319 271.169 399.178 271.169C402.571 271.169 405.319 273.924 405.319 277.325C405.319 280.726 402.571 283.482 399.178 283.482Z" fill="#29293A"/>
<path d="M12.3167 283.482H0.0354004V295.796H12.3167V283.482Z" fill="#29293A"/>
<path d="M24.5978 295.796H36.8791V283.482C30.0974 283.482 24.5978 288.996 24.5978 295.796Z" fill="#29293A"/>
<path d="M49.1604 283.482H36.879V295.796H49.1604V283.482Z" fill="#29293A"/>
<path d="M110.568 289.639C110.568 288.203 110.568 283.482 110.568 283.482C110.568 283.482 114.748 283.482 116.708 283.482C118.239 283.482 122.849 283.482 122.849 283.482C122.849 283.482 122.849 287.775 122.849 289.639C122.849 293.04 120.101 295.796 116.708 295.796C113.316 295.796 110.568 293.04 110.568 289.639Z" fill="#29293A"/>
<path d="M135.13 289.639C135.13 288.203 135.13 283.482 135.13 283.482C135.13 283.482 139.31 283.482 141.271 283.482C142.801 283.482 147.411 283.482 147.411 283.482C147.411 283.482 147.411 287.775 147.411 289.639C147.411 293.04 144.663 295.796 141.271 295.796C137.878 295.796 135.13 293.04 135.13 289.639Z" fill="#29293A"/>
<path d="M196.537 283.483H184.256V295.796H196.537V283.483Z" fill="#29293A"/>
<path d="M208.818 283.482H196.536V295.796H208.818V283.482Z" fill="#29293A"/>
<path d="M221.099 283.483H208.818V295.796C215.6 295.796 221.099 290.282 221.099 283.483Z" fill="#29293A"/>
<path d="M245.662 295.796V283.482H233.381C233.381 290.282 238.88 295.796 245.662 295.796Z" fill="#29293A"/>
<path d="M251.803 295.796C250.371 295.796 245.662 295.796 245.662 295.796C245.662 295.796 245.662 291.604 245.662 289.639C245.662 288.105 245.662 283.482 245.662 283.482C245.662 283.482 249.943 283.482 251.803 283.482C255.195 283.482 257.943 286.238 257.943 289.639C257.943 293.04 255.195 295.796 251.803 295.796Z" fill="#29293A"/>
<path d="M294.787 283.482H282.506V295.796H294.787V283.482Z" fill="#29293A"/>
<path d="M294.788 283.482V295.795H307.07C307.07 288.996 301.57 283.482 294.788 283.482Z" fill="#29293A"/>
<path d="M331.631 295.795H343.912V283.482C337.13 283.482 331.631 288.996 331.631 295.795Z" fill="#29293A"/>
<path d="M356.194 283.482H343.913V295.796H356.194V283.482Z" fill="#29293A"/>
<path d="M374.617 283.482C378.009 283.482 380.757 286.238 380.757 289.639C380.757 293.04 378.009 295.796 374.617 295.796C371.224 295.796 368.476 293.04 368.476 289.639C368.476 286.238 371.224 283.482 374.617 283.482Z" fill="#29293A"/>
<path d="M12.3167 308.109V295.796H0.0354004C0.0354004 302.595 5.53499 308.109 12.3167 308.109Z" fill="#29293A"/>
<path d="M24.5981 295.796H12.3168V308.109H24.5981V295.796Z" fill="#29293A"/>
<path d="M36.8788 295.796H24.5975V308.109H36.8788V295.796Z" fill="#29293A"/>
<path d="M49.1604 295.796H36.879V308.109H49.1604V295.796Z" fill="#29293A"/>
<path d="M55.3014 308.109C53.8694 308.109 49.1607 308.109 49.1607 308.109C49.1607 308.109 49.1607 303.918 49.1607 301.953C49.1607 300.418 49.1607 295.796 49.1607 295.796C49.1607 295.796 53.442 295.796 55.3014 295.796C58.6935 295.796 61.442 298.552 61.442 301.953C61.442 305.354 58.6935 308.109 55.3014 308.109Z" fill="#29293A"/>
<path d="M79.864 295.796C81.296 295.796 86.0047 295.796 86.0047 295.796C86.0047 295.796 86.0047 299.987 86.0047 301.952C86.0047 303.487 86.0047 308.109 86.0047 308.109C86.0047 308.109 81.7259 308.109 79.864 308.109C76.4719 308.109 73.7234 305.351 73.7234 301.952C73.7234 298.554 76.4719 295.796 79.864 295.796Z" fill="#29293A"/>
<path d="M92.1452 308.109C90.7132 308.109 86.0045 308.109 86.0045 308.109C86.0045 308.109 86.0045 303.918 86.0045 301.953C86.0045 300.418 86.0045 295.796 86.0045 295.796C86.0045 295.796 90.2858 295.796 92.1452 295.796C95.5373 295.796 98.2858 298.552 98.2858 301.953C98.2858 305.354 95.5373 308.109 92.1452 308.109Z" fill="#29293A"/>
<path d="M153.552 295.796C156.944 295.796 159.693 298.552 159.693 301.953C159.693 305.354 156.944 308.11 153.552 308.11C150.16 308.11 147.411 305.354 147.411 301.953C147.411 298.552 150.16 295.796 153.552 295.796Z" fill="#29293A"/>
<path d="M171.974 308.109H184.256V295.796C177.474 295.796 171.974 301.31 171.974 308.109Z" fill="#29293A"/>
<path d="M196.537 295.796H184.256V308.11H196.537V295.796Z" fill="#29293A"/>
<path d="M276.365 295.796C277.797 295.796 282.506 295.796 282.506 295.796C282.506 295.796 282.506 299.987 282.506 301.953C282.506 303.487 282.506 308.109 282.506 308.109C282.506 308.109 278.227 308.109 276.365 308.109C272.973 308.109 270.225 305.351 270.225 301.953C270.225 298.554 272.973 295.796 276.365 295.796Z" fill="#29293A"/>
<path d="M294.787 295.796H282.506V308.109H294.787V295.796Z" fill="#29293A"/>
<path d="M307.069 295.796H294.788V308.109H307.069V295.796Z" fill="#29293A"/>
<path d="M319.35 295.796H307.069V308.109H319.35V295.796Z" fill="#29293A"/>
<path d="M331.631 295.796H319.35V308.109H331.631V295.796Z" fill="#29293A"/>
<path d="M343.912 295.796H331.631V308.109H343.912V295.796Z" fill="#29293A"/>
<path d="M356.194 295.796H343.913V308.109H356.194V295.796Z" fill="#29293A"/>
<path d="M399.178 295.796C402.571 295.796 405.319 298.551 405.319 301.952C405.319 305.353 402.571 308.109 399.178 308.109C395.786 308.109 393.038 305.353 393.038 301.952C393.038 298.551 395.786 295.796 399.178 295.796Z" fill="#29293A"/>
<path d="M110.568 314.266C110.568 315.701 110.568 320.422 110.568 320.422C110.568 320.422 106.387 320.422 104.427 320.422C102.897 320.422 98.2862 320.422 98.2862 320.422C98.2862 320.422 98.2862 316.132 98.2862 314.266C98.2862 310.865 101.035 308.109 104.427 308.109C107.819 308.109 110.568 310.865 110.568 314.266Z" fill="#29293A"/>
<path d="M141.271 308.109C144.663 308.109 147.411 310.865 147.411 314.266C147.411 317.667 144.663 320.423 141.271 320.423C137.878 320.423 135.13 317.667 135.13 314.266C135.13 310.865 137.878 308.109 141.271 308.109Z" fill="#29293A"/>
<path d="M159.693 320.423H171.974V308.109C165.193 308.109 159.693 313.623 159.693 320.423Z" fill="#29293A"/>
<path d="M184.256 308.109H171.974V320.423H184.256V308.109Z" fill="#29293A"/>
<path d="M196.537 308.109H184.256V320.423H196.537V308.109Z" fill="#29293A"/>
<path d="M196.536 308.11V320.423H208.817C208.817 313.624 203.318 308.11 196.536 308.11Z" fill="#29293A"/>
<path d="M239.521 308.109C240.953 308.109 245.662 308.109 245.662 308.109C245.662 308.109 245.662 312.301 245.662 314.266C245.662 315.8 245.662 320.422 245.662 320.422C245.662 320.422 241.383 320.422 239.521 320.422C236.129 320.422 233.381 317.664 233.381 314.266C233.381 310.867 236.129 308.109 239.521 308.109Z" fill="#29293A"/>
<path d="M257.943 308.109H245.662V320.423H257.943V308.109Z" fill="#29293A"/>
<path d="M264.085 320.423C262.653 320.423 257.944 320.423 257.944 320.423C257.944 320.423 257.944 316.231 257.944 314.266C257.944 312.732 257.944 308.109 257.944 308.109C257.944 308.109 262.225 308.109 264.085 308.109C267.477 308.109 270.225 310.865 270.225 314.266C270.225 317.667 267.477 320.423 264.085 320.423Z" fill="#29293A"/>
<path d="M307.069 308.109H294.788V320.423H307.069V308.109Z" fill="#29293A"/>
<path d="M356.194 308.109H343.913V320.423H356.194V308.109Z" fill="#29293A"/>
<path d="M356.194 308.109V320.423H368.476C368.476 313.623 362.976 308.109 356.194 308.109Z" fill="#29293A"/>
<path d="M110.568 332.736V320.423H98.2862C98.2862 327.222 103.786 332.736 110.568 332.736Z" fill="#29293A"/>
<path d="M116.708 332.736C115.276 332.736 110.568 332.736 110.568 332.736C110.568 332.736 110.568 328.545 110.568 326.579C110.568 325.045 110.568 320.423 110.568 320.423C110.568 320.423 114.849 320.423 116.708 320.423C120.101 320.423 122.849 323.178 122.849 326.579C122.849 329.98 120.101 332.736 116.708 332.736Z" fill="#29293A"/>
<path d="M171.974 320.423H159.693V332.736H171.974V320.423Z" fill="#29293A"/>
<path d="M196.537 320.423H184.256V332.736H196.537V320.423Z" fill="#29293A"/>
<path d="M208.818 320.423H196.536V332.736H208.818V320.423Z" fill="#29293A"/>
<path d="M214.959 332.736C213.527 332.736 208.818 332.736 208.818 332.736C208.818 332.736 208.818 328.545 208.818 326.579C208.818 325.045 208.818 320.423 208.818 320.423C208.818 320.423 213.1 320.423 214.959 320.423C218.351 320.423 221.1 323.178 221.1 326.579C221.1 329.98 218.351 332.736 214.959 332.736Z" fill="#29293A"/>
<path d="M245.662 326.579C245.662 325.144 245.662 320.423 245.662 320.423C245.662 320.423 249.843 320.423 251.803 320.423C253.333 320.423 257.943 320.423 257.943 320.423C257.943 320.423 257.943 324.715 257.943 326.579C257.943 329.98 255.195 332.736 251.803 332.736C248.411 332.736 245.662 329.98 245.662 326.579Z" fill="#29293A"/>
<path d="M282.506 332.736H294.788V320.423C288.006 320.423 282.506 325.937 282.506 332.736Z" fill="#29293A"/>
<path d="M307.069 320.423H294.788V332.736H307.069V320.423Z" fill="#29293A"/>
<path d="M325.491 320.423C328.883 320.423 331.631 323.178 331.631 326.579C331.631 329.98 328.883 332.736 325.491 332.736C322.099 332.736 319.35 329.98 319.35 326.579C319.35 323.178 322.099 320.423 325.491 320.423Z" fill="#29293A"/>
<path d="M356.194 320.423H343.913V332.736H356.194V320.423Z" fill="#29293A"/>
<path d="M368.476 320.423H356.194V332.736H368.476V320.423Z" fill="#29293A"/>
<path d="M368.476 320.423V332.736H380.757C380.757 325.937 375.257 320.423 368.476 320.423Z" fill="#29293A"/>
<path d="M128.989 332.736C132.381 332.736 135.13 335.492 135.13 338.893C135.13 342.294 132.381 345.05 128.989 345.05C125.597 345.05 122.849 342.294 122.849 338.893C122.849 335.492 125.597 332.736 128.989 332.736Z" fill="#29293A"/>
<path d="M171.974 332.736H159.693V345.05H171.974V332.736Z" fill="#29293A"/>
<path d="M196.537 345.05V332.736H184.256C184.256 339.536 189.755 345.05 196.537 345.05Z" fill="#29293A"/>
<path d="M208.817 332.736H196.536V345.05C203.318 345.05 208.817 339.536 208.817 332.736Z" fill="#29293A"/>
<path d="M257.944 345.05H270.226V332.736C263.444 332.736 257.944 338.25 257.944 345.05Z" fill="#29293A"/>
<path d="M282.506 332.736H270.225V345.049H282.506V332.736Z" fill="#29293A"/>
<path d="M294.787 332.736H282.506V345.05H294.787V332.736Z" fill="#29293A"/>
<path d="M307.069 332.736H294.788V345.05H307.069V332.736Z" fill="#29293A"/>
<path d="M356.194 332.736H343.913V345.049H356.194V332.736Z" fill="#29293A"/>
<path d="M368.476 332.736H356.194V345.05H368.476V332.736Z" fill="#29293A"/>
<path d="M380.757 332.736H368.476V345.05H380.757V332.736Z" fill="#29293A"/>
<path d="M380.757 332.736V345.05H393.038C393.038 338.25 387.538 332.736 380.757 332.736Z" fill="#29293A"/>
<path d="M98.2862 357.363H110.568V345.049C103.786 345.049 98.2862 350.563 98.2862 357.363Z" fill="#29293A"/>
<path d="M110.568 345.049V357.363H122.849C122.849 350.563 117.349 345.049 110.568 345.049Z" fill="#29293A"/>
<path d="M147.411 357.363H159.693V345.05C152.911 345.05 147.411 350.564 147.411 357.363Z" fill="#29293A"/>
<path d="M171.974 345.049H159.693V357.363H171.974V345.049Z" fill="#29293A"/>
<path d="M171.974 345.049V357.363H184.256C184.256 350.563 178.756 345.049 171.974 345.049Z" fill="#29293A"/>
<path d="M245.661 357.363H257.943V345.05C251.161 345.05 245.661 350.564 245.661 357.363Z" fill="#29293A"/>
<path d="M270.225 345.049H257.944V357.363H270.225V345.049Z" fill="#29293A"/>
<path d="M282.506 345.049H270.225V357.363H282.506V345.049Z" fill="#29293A"/>
<path d="M294.787 345.049H282.506V357.363H294.787V345.049Z" fill="#29293A"/>
<path d="M307.069 345.049H294.788V357.363H307.069V345.049Z" fill="#29293A"/>
<path d="M319.35 345.049H307.069V357.363H319.35V345.049Z" fill="#29293A"/>
<path d="M331.631 345.049H319.35V357.363H331.631V345.049Z" fill="#29293A"/>
<path d="M343.912 345.049H331.631V357.363H343.912V345.049Z" fill="#29293A"/>
<path d="M356.194 345.049H343.913V357.363H356.194V345.049Z" fill="#29293A"/>
<path d="M368.476 345.05H356.194V357.363C362.976 357.363 368.476 351.849 368.476 345.05Z" fill="#29293A"/>
<path d="M393.038 345.049H380.757V357.363H393.038V345.049Z" fill="#29293A"/>
<path d="M110.568 369.676V357.363H98.2863C98.2863 364.162 103.786 369.676 110.568 369.676Z" fill="#29293A"/>
<path d="M122.849 357.363H110.568V369.676H122.849V357.363Z" fill="#29293A"/>
<path d="M135.13 369.676H147.411V357.363C140.629 357.363 135.13 362.877 135.13 369.676Z" fill="#29293A"/>
<path d="M159.693 357.363H147.412V369.676H159.693V357.363Z" fill="#29293A"/>
<path d="M171.974 357.363H159.693V369.676H171.974V357.363Z" fill="#29293A"/>
<path d="M184.256 357.363H171.974V369.676H184.256V357.363Z" fill="#29293A"/>
<path d="M196.537 357.363H184.256V369.676H196.537V357.363Z" fill="#29293A"/>
<path d="M202.677 369.676C201.245 369.676 196.536 369.676 196.536 369.676C196.536 369.676 196.536 365.485 196.536 363.52C196.536 361.985 196.536 357.363 196.536 357.363C196.536 357.363 200.818 357.363 202.677 357.363C206.069 357.363 208.818 360.119 208.818 363.52C208.818 366.921 206.069 369.676 202.677 369.676Z" fill="#29293A"/>
<path d="M233.381 363.52C233.381 364.955 233.381 369.676 233.381 369.676C233.381 369.676 229.2 369.676 227.24 369.676C225.71 369.676 221.1 369.676 221.1 369.676C221.1 369.676 221.1 365.386 221.1 363.52C221.1 360.119 223.848 357.363 227.24 357.363C230.632 357.363 233.381 360.119 233.381 363.52Z" fill="#29293A"/>
<path d="M257.943 369.676V357.363H245.661C245.661 364.162 251.161 369.676 257.943 369.676Z" fill="#29293A"/>
<path d="M270.225 357.363H257.944V369.676H270.225V357.363Z" fill="#29293A"/>
<path d="M282.506 357.363H270.225V369.676H282.506V357.363Z" fill="#29293A"/>
<path d="M294.787 357.363H282.506V369.676C289.287 369.676 294.787 364.162 294.787 357.363Z" fill="#29293A"/>
<path d="M307.069 363.52C307.069 362.084 307.069 357.363 307.069 357.363C307.069 357.363 311.249 357.363 313.209 357.363C314.74 357.363 319.35 357.363 319.35 357.363C319.35 357.363 319.35 361.655 319.35 363.52C319.35 366.921 316.602 369.676 313.209 369.676C309.817 369.676 307.069 366.921 307.069 363.52Z" fill="#29293A"/>
<path d="M331.631 363.52C331.631 362.084 331.631 357.363 331.631 357.363C331.631 357.363 335.811 357.363 337.772 357.363C339.302 357.363 343.912 357.363 343.912 357.363C343.912 357.363 343.912 361.655 343.912 363.52C343.912 366.921 341.164 369.676 337.772 369.676C334.379 369.676 331.631 366.921 331.631 363.52Z" fill="#29293A"/>
<path d="M393.038 357.363H380.757V369.676H393.038V357.363Z" fill="#29293A"/>
<path d="M110.568 375.833C110.568 374.398 110.568 369.677 110.568 369.677C110.568 369.677 114.748 369.677 116.708 369.677C118.239 369.677 122.849 369.677 122.849 369.677C122.849 369.677 122.849 373.969 122.849 375.833C122.849 379.234 120.101 381.99 116.708 381.99C113.316 381.99 110.568 379.234 110.568 375.833Z" fill="#29293A"/>
<path d="M147.411 381.99V369.677H135.13C135.13 376.476 140.629 381.99 147.411 381.99Z" fill="#29293A"/>
<path d="M159.693 369.676H147.411V381.99H159.693V369.676Z" fill="#29293A"/>
<path d="M184.256 369.677H171.974V381.99H184.256V369.677Z" fill="#29293A"/>
<path d="M196.537 369.676H184.256V381.99C191.037 381.99 196.537 376.476 196.537 369.676Z" fill="#29293A"/>
<path d="M214.959 369.677C216.391 369.677 221.1 369.677 221.1 369.677C221.1 369.677 221.1 373.868 221.1 375.833C221.1 377.368 221.1 381.99 221.1 381.99C221.1 381.99 216.821 381.99 214.959 381.99C211.567 381.99 208.818 379.232 208.818 375.833C208.818 372.435 211.567 369.677 214.959 369.677Z" fill="#29293A"/>
<path d="M233.381 369.676H221.1V381.99C227.881 381.99 233.381 376.476 233.381 369.676Z" fill="#29293A"/>
<path d="M270.225 375.833C270.225 374.398 270.225 369.677 270.225 369.677C270.225 369.677 274.405 369.677 276.366 369.677C277.896 369.677 282.506 369.677 282.506 369.677C282.506 369.677 282.506 373.969 282.506 375.833C282.506 379.234 279.758 381.99 276.366 381.99C272.973 381.99 270.225 379.234 270.225 375.833Z" fill="#29293A"/>
<path d="M350.054 369.677C353.446 369.677 356.194 372.432 356.194 375.833C356.194 379.234 353.446 381.99 350.054 381.99C346.661 381.99 343.913 379.234 343.913 375.833C343.913 372.432 346.661 369.677 350.054 369.677Z" fill="#29293A"/>
<path d="M393.038 369.676H380.757V381.99H393.038V369.676Z" fill="#29293A"/>
<path d="M393.038 369.677V381.99H405.32C405.32 375.191 399.82 369.677 393.038 369.677Z" fill="#29293A"/>
<path d="M159.693 381.99H147.411V394.304H159.693V381.99Z" fill="#29293A"/>
<path d="M171.974 381.99H159.693V394.303H171.974V381.99Z" fill="#29293A"/>
<path d="M184.256 381.989H171.974V394.303C178.756 394.303 184.256 388.789 184.256 381.989Z" fill="#29293A"/>
<path d="M202.678 381.99C206.07 381.99 208.818 384.746 208.818 388.147C208.818 391.548 206.07 394.304 202.678 394.304C199.286 394.304 196.537 391.548 196.537 388.147C196.537 384.746 199.286 381.99 202.678 381.99Z" fill="#29293A"/>
<path d="M239.521 381.99C240.953 381.99 245.662 381.99 245.662 381.99C245.662 381.99 245.662 386.181 245.662 388.146C245.662 389.681 245.662 394.303 245.662 394.303C245.662 394.303 241.383 394.303 239.521 394.303C236.129 394.303 233.381 391.545 233.381 388.146C233.381 384.748 236.129 381.99 239.521 381.99Z" fill="#29293A"/>
<path d="M257.943 381.99H245.662V394.303H257.943V381.99Z" fill="#29293A"/>
<path d="M257.944 381.99V394.303H270.226C270.226 387.504 264.726 381.99 257.944 381.99Z" fill="#29293A"/>
<path d="M294.787 388.146C294.787 389.582 294.787 394.303 294.787 394.303C294.787 394.303 290.606 394.303 288.646 394.303C287.116 394.303 282.506 394.303 282.506 394.303C282.506 394.303 282.506 390.013 282.506 388.146C282.506 384.746 285.254 381.99 288.646 381.99C292.038 381.99 294.787 384.746 294.787 388.146Z" fill="#29293A"/>
<path d="M313.209 381.99C314.641 381.99 319.35 381.99 319.35 381.99C319.35 381.99 319.35 386.181 319.35 388.147C319.35 389.681 319.35 394.303 319.35 394.303C319.35 394.303 315.071 394.303 313.209 394.303C309.817 394.303 307.069 391.545 307.069 388.147C307.069 384.748 309.817 381.99 313.209 381.99Z" fill="#29293A"/>
<path d="M325.491 394.303C324.059 394.303 319.35 394.303 319.35 394.303C319.35 394.303 319.35 390.112 319.35 388.146C319.35 386.612 319.35 381.99 319.35 381.99C319.35 381.99 323.631 381.99 325.491 381.99C328.883 381.99 331.631 384.745 331.631 388.146C331.631 391.547 328.883 394.303 325.491 394.303Z" fill="#29293A"/>
<path d="M362.335 381.99C363.767 381.99 368.476 381.99 368.476 381.99C368.476 381.99 368.476 386.181 368.476 388.146C368.476 389.681 368.476 394.303 368.476 394.303C368.476 394.303 364.197 394.303 362.335 394.303C358.943 394.303 356.194 391.545 356.194 388.146C356.194 384.748 358.943 381.99 362.335 381.99Z" fill="#29293A"/>
<path d="M380.757 381.99H368.476V394.303H380.757V381.99Z" fill="#29293A"/>
<path d="M393.038 381.99H380.757V394.303H393.038V381.99Z" fill="#29293A"/>
<path d="M405.32 381.99H393.038V394.303C399.82 394.303 405.32 388.789 405.32 381.99Z" fill="#29293A"/>
<path d="M116.708 394.303C118.14 394.303 122.849 394.303 122.849 394.303C122.849 394.303 122.849 398.495 122.849 400.46C122.849 401.994 122.849 406.617 122.849 406.617C122.849 406.617 118.57 406.617 116.708 406.617C113.316 406.617 110.568 403.859 110.568 400.46C110.568 397.062 113.316 394.303 116.708 394.303Z" fill="#29293A"/>
<path d="M135.13 394.303H122.849V406.617H135.13V394.303Z" fill="#29293A"/>
<path d="M147.411 394.303H135.13V406.617H147.411V394.303Z" fill="#29293A"/>
<path d="M159.693 394.303H147.412V406.617H159.693V394.303Z" fill="#29293A"/>
<path d="M171.974 394.303H159.693V406.617C166.475 406.617 171.974 401.103 171.974 394.303Z" fill="#29293A"/>
<path d="M227.24 394.303C230.632 394.303 233.381 397.059 233.381 400.46C233.381 403.861 230.632 406.617 227.24 406.617C223.848 406.617 221.1 403.861 221.1 400.46C221.1 397.059 223.848 394.303 227.24 394.303Z" fill="#29293A"/>
<path d="M257.943 406.617V394.303H245.661C245.661 401.103 251.161 406.617 257.943 406.617Z" fill="#29293A"/>
<path d="M270.226 394.303H257.944V406.617C264.726 406.617 270.226 401.103 270.226 394.303Z" fill="#29293A"/>
<path d="M294.787 406.617V394.303H282.506C282.506 401.103 288.005 406.617 294.787 406.617Z" fill="#29293A"/>
<path d="M300.928 406.617C299.496 406.617 294.788 406.617 294.788 406.617C294.788 406.617 294.788 402.425 294.788 400.46C294.788 398.926 294.788 394.303 294.788 394.303C294.788 394.303 299.069 394.303 300.928 394.303C304.321 394.303 307.069 397.059 307.069 400.46C307.069 403.861 304.321 406.617 300.928 406.617Z" fill="#29293A"/>
<path d="M350.054 394.303C353.446 394.303 356.194 397.059 356.194 400.46C356.194 403.861 353.446 406.617 350.054 406.617C346.661 406.617 343.913 403.861 343.913 400.46C343.913 397.059 346.661 394.303 350.054 394.303Z" fill="#29293A"/>
<path d="M56.627 13.2263H29.3747C25.85 13.2263 22.5832 14.3468 19.9181 16.1569C17.8549 17.6222 16.1355 19.5184 14.9319 21.6733C13.6424 24.0006 12.9546 26.5864 12.9546 29.3446V57.3578C12.9546 66.2358 20.348 73.5623 29.3747 73.5623H43.0439H56.713C65.8258 73.5623 73.1331 66.322 73.1331 57.3578V29.3446C73.1331 20.4666 65.7398 13.2263 56.627 13.2263Z" fill="#29293A"/>
<path d="M56.6272 0.296936H29.3749C16.0497 0.296936 4.78767 9.08876 1.26293 21.156C0.91905 22.3627 0.575172 23.6556 0.403234 24.9485C0.145326 26.4138 0.0593567 27.8791 0.0593567 29.3444V57.3576C0.0593567 73.3898 13.2127 86.4913 29.3749 86.4913H43.044H56.7131C72.8754 86.4913 86.0287 73.476 86.0287 57.3576V29.3444C86.0287 13.3123 72.8754 0.296936 56.6272 0.296936ZM73.1333 57.3576C73.1333 66.2356 65.7399 73.5621 56.7131 73.5621H43.044H29.3749C20.2621 73.5621 12.9548 66.3218 12.9548 57.3576V29.3444C12.9548 26.5862 13.6425 23.9142 14.9321 21.6731C16.1356 19.4321 17.855 17.5358 19.9183 16.1567C22.5833 14.3466 25.8502 13.2261 29.3749 13.2261H56.6272C65.7399 13.2261 73.0473 20.4664 73.0473 29.4306V57.3576H73.1333Z" fill="#29293A"/>
<path d="M375.942 13.2262H348.69C345.165 13.2262 341.898 14.3467 339.233 16.1568C337.17 17.6221 335.451 19.5184 334.247 21.6732C332.958 24.0005 332.27 26.5863 332.27 29.3445V57.3577C332.27 66.2357 339.663 73.5623 348.69 73.5623H362.359H376.028C385.141 73.5623 392.448 66.3219 392.448 57.3577V29.3445C392.448 20.4665 385.055 13.2262 375.942 13.2262Z" fill="#29293A"/>
<path d="M375.943 0.296692H348.69C335.365 0.296692 324.103 9.08852 320.578 21.1557C320.234 22.3624 319.891 23.6554 319.719 24.9483C319.461 26.4136 319.375 27.8789 319.375 29.3442V57.3574C319.375 73.3895 332.528 86.4911 348.69 86.4911H362.359H376.029C392.191 86.4911 405.344 73.4757 405.344 57.3574V29.3442C405.344 13.312 392.191 0.296692 375.943 0.296692ZM392.449 57.3574C392.449 66.2354 385.055 73.5619 376.029 73.5619H362.359H348.69C339.578 73.5619 332.27 66.3216 332.27 57.3574V29.3442C332.27 26.586 332.958 23.9139 334.247 21.6729C335.451 19.4318 337.17 17.5356 339.234 16.1565C341.899 14.3464 345.166 13.2258 348.69 13.2258H375.943C385.055 13.2258 392.363 20.4662 392.363 29.4304V57.3574H392.449Z" fill="#29293A"/>
<path d="M56.627 333.377H29.3747C25.85 333.377 22.5832 334.497 19.9181 336.308C17.8549 337.773 16.1355 339.669 14.9319 341.824C13.6424 344.151 12.9546 346.737 12.9546 349.495V377.508C12.9546 386.386 20.348 393.713 29.3747 393.713H43.0439H56.713C65.8258 393.713 73.1331 386.473 73.1331 377.508V349.495C73.1331 340.617 65.7398 333.377 56.627 333.377Z" fill="#29293A"/>
<path d="M56.6272 320.448H29.3749C16.0497 320.448 4.78767 329.239 1.26293 341.307C0.91905 342.513 0.575172 343.806 0.403234 345.099C0.145326 346.565 0.0593567 348.03 0.0593567 349.495V377.508C0.0593567 393.54 13.2127 406.642 29.3749 406.642H43.044H56.7131C72.8754 406.642 86.0287 393.627 86.0287 377.508V349.495C86.0287 333.463 72.8754 320.448 56.6272 320.448ZM73.1333 377.508C73.1333 386.386 65.7399 393.713 56.7131 393.713H43.044H29.3749C20.2621 393.713 12.9548 386.473 12.9548 377.508V349.495C12.9548 346.737 13.6425 344.065 14.9321 341.824C16.1356 339.583 17.855 337.687 19.9183 336.307C22.5833 334.497 25.8502 333.377 29.3749 333.377H56.6272C65.7399 333.377 73.0473 340.617 73.0473 349.581V377.508H73.1333Z" fill="#29293A"/>
<path d="M34.6682 61.852C29.1048 61.852 24.573 57.4192 24.573 51.952V34.8116C24.573 33.1124 25.0151 31.487 25.7888 30.0832C26.5257 28.7164 27.5942 27.5713 28.8837 26.6847C30.5049 25.5396 32.5313 24.8746 34.6682 24.8746H51.3586C56.922 24.8746 61.4538 29.3075 61.4538 34.7747V51.915C61.4538 57.3822 56.922 61.8151 51.3586 61.8151H42.995L34.6682 61.852Z" fill="#29293A"/>
<path d="M353.985 61.8526C348.421 61.8526 343.89 57.4197 343.89 51.9525V34.8122C343.89 33.1129 344.332 31.4875 345.105 30.0838C345.842 28.717 346.911 27.5718 348.2 26.6853C349.822 25.5401 351.848 24.8752 353.985 24.8752H370.675C376.239 24.8752 380.77 29.308 380.77 34.7752V51.9156C380.77 57.3828 376.239 61.8156 370.675 61.8156H362.312L353.985 61.8526Z" fill="#29293A"/>
<path d="M34.6682 382.002C29.1048 382.002 24.573 377.569 24.573 372.102V354.962C24.573 353.262 25.0151 351.637 25.7888 350.233C26.5257 348.866 27.5942 347.721 28.8837 346.835C30.5049 345.69 32.5313 345.025 34.6682 345.025H51.3586C56.922 345.025 61.4538 349.457 61.4538 354.925V372.065C61.4538 377.532 56.922 381.965 51.3586 381.965H42.995L34.6682 382.002Z" fill="#29293A"/>
</svg>
